<svg width="151" height="160" viewBox="0 0 151 160" fill="none" xmlns="http://www.w3.org/2000/svg">
<path d="M41.8792 103.713V120.238C41.54 120.287 41.1426 120.403 40.7549 120.403C32.6233 120.403 24.4917 120.432 16.3601 120.374C13.1521 120.345 10.0216 119.734 7.09459 118.319C2.60718 116.138 0.310179 112.543 0.155106 107.571C0.135722 106.97 0.155106 106.369 0.155106 105.768C0.155106 78.2426 0.155106 50.7173 0.155106 23.1823C0.155106 20.5945 0.0581862 17.997 0.145414 15.4093C0.193874 13.8586 0.31987 12.2594 0.746319 10.7765C2.08382 6.0468 5.5051 3.24581 9.91496 1.54971C11.0198 1.12326 12.2604 1.06511 13.4138 0.725886C17.31 -0.417771 21.2837 0.134674 25.2186 0.124982C59.0631 0.0765216 92.9173 0.0959056 126.762 0.0959056C133.585 0.667734 139.032 3.65287 141.639 10.6796C141.988 11.6197 142.143 12.6664 142.201 13.6744C142.298 15.4771 142.25 17.2895 142.25 19.0922C142.25 48.2458 142.25 77.3994 142.24 106.553C142.24 107.987 142.201 109.461 141.881 110.847C140.951 114.878 138.179 117.34 134.506 118.91C131.588 120.161 128.477 120.635 125.347 120.665C117.341 120.742 109.326 120.694 101.32 120.694C101.146 120.694 100.971 120.635 100.816 120.606C100.496 119.317 100.409 106.369 100.71 103.946C101.214 103.917 101.737 103.868 102.26 103.868C107.562 103.868 112.864 103.849 118.155 103.868C119.658 103.868 121.024 103.577 122.197 102.618C123.515 101.542 124.29 100.147 124.475 98.4504C124.552 97.7332 124.542 97.0063 124.542 96.2891C124.542 72.4952 124.542 48.7013 124.542 24.9075C124.542 23.9576 124.562 22.9303 124.242 22.058C123.37 19.7028 121.528 18.4623 119.066 18.1521C118.417 18.0649 117.739 18.1134 117.08 18.1134C86.666 18.1134 56.2525 18.1134 25.8389 18.1134C24.327 18.1134 22.8441 18.1715 21.4194 18.8015C19.0351 19.8482 17.7655 21.5152 17.7655 24.2387C17.7946 48.4493 17.7946 72.6697 17.7655 96.8803C17.7655 98.9932 18.3664 100.796 19.9753 102.192C21.3225 103.355 22.9507 103.694 24.6856 103.694C29.803 103.694 34.9203 103.694 40.0474 103.694C40.6289 103.694 41.2202 103.694 41.8889 103.694L41.8792 103.713Z" fill="black"/>
<path d="M63.473 41.7812C63.6862 43.5839 63.7443 45.3963 64.132 47.1312C64.7911 50.1163 66.4 52.675 68.2414 55.0786C70.8389 58.4708 73.4848 61.834 75.5589 65.5848C77.129 68.4245 78.641 71.2934 80.1142 74.1913C80.5988 75.1411 80.8701 76.1975 81.2675 77.2927C81.3741 77.2152 81.597 77.1376 81.7036 76.9826C84.0103 73.571 85.9197 69.9849 86.666 65.8755C87.3444 62.115 87.4898 58.3545 87.0149 54.5649C86.7726 52.6362 86.6175 50.6881 86.7338 48.6625C89.244 53.1111 91.8318 57.5113 94.2354 62.0084C96.0187 65.3522 97.3853 68.8897 98.151 72.6309C99.6242 79.7739 99.6436 86.8781 96.891 93.7401C95.8055 96.4538 94.1676 98.9447 92.7622 101.532C92.4521 102.114 92.0741 102.657 91.512 103.568C91.5023 98.9737 92.5684 94.8449 92.3552 90.5708C92.1613 91.036 91.9578 91.4915 91.7833 91.9567C90.7269 94.8934 89.7771 97.8785 88.614 100.776C86.4333 106.185 83.3028 111.011 79.3873 115.324C78.2921 116.526 77.1872 117.718 76.0726 118.901C75.6752 119.317 75.2294 119.676 74.4928 120.364C76.4312 113.812 77.5458 107.609 76.9933 101.184C76.5766 96.2406 74.832 91.6563 73.2231 86.9653C73.0778 87.8085 72.8742 88.6421 72.787 89.4949C72.3799 93.8176 71.3138 98.0142 70.1314 102.172C68.8036 106.844 67.4273 111.506 66.0414 116.264C64.3549 114.946 63.0853 113.211 61.68 111.622C58.375 107.9 56.9212 103.325 55.7775 98.6248C55.3414 96.8221 54.9925 94.9903 54.5951 93.1682C54.5369 92.8872 54.3916 92.6352 54.1686 92.0343C51.9879 96.415 52.3659 100.767 52.5501 105.099C52.4725 105.118 52.3175 105.196 52.2787 105.157C49.3226 101.784 46.8221 98.1499 45.5718 93.7594C44.8934 91.3558 44.6996 88.9328 44.7965 86.4614C45.0485 80.3457 46.4538 74.4626 48.305 68.6668C48.9059 66.7866 49.4099 64.8579 49.8945 62.9388C50.5632 60.2832 49.9235 57.6955 49.4389 55.1077C49.2451 54.061 49.0319 53.0142 48.8187 51.9481C50.9412 54.5359 53.0056 57.0655 55.0894 59.5854C56.6304 61.4463 57.9291 63.4428 59.034 65.6042C60.42 68.3373 61.9513 70.9832 63.5117 73.852C63.754 73.4062 63.977 73.1445 64.0642 72.8441C64.9074 69.7717 65.0043 66.6703 64.3065 63.5688C63.6184 60.5255 62.8721 57.4919 62.1549 54.4583C61.5927 52.0741 61.6993 49.6705 62.0192 47.2863C62.2227 45.8034 62.6492 44.3593 62.9981 42.8958C63.095 42.5081 63.2888 42.1398 63.4342 41.7909L63.473 41.7812Z" fill="#DD0032"/>
<path d="M36.2094 126.47V159.849H25.4125C20.7603 153.23 15.9918 146.455 11.0586 139.438C10.7581 141.347 10.9423 142.985 10.9132 144.604C10.8841 146.29 10.9132 147.976 10.9132 149.663C10.9132 151.349 10.9132 153.036 10.9132 154.722V159.878H0V126.528C1.42473 126.237 9.01357 126.15 12.5027 126.392C16.6509 131.723 20.8863 137.18 25.3058 142.869C25.5094 140.853 25.3931 139.099 25.4125 137.354C25.4221 135.551 25.4125 133.739 25.4125 131.936C25.4125 130.133 25.4125 128.331 25.4125 126.557C26.8178 126.237 33.9026 126.179 36.1997 126.47H36.2094Z" fill="black"/>
<path d="M75.6364 126.373C76.0725 126.344 76.5474 126.286 77.0127 126.286C82.9054 126.286 88.8078 126.228 94.7006 126.305C97.9474 126.344 101.185 126.557 104.286 127.701C106.069 128.36 107.61 129.349 108.948 130.696C112.902 134.698 112.204 140.824 108.337 144.168C105.982 146.203 103.191 147.279 100.128 147.531C97.2011 147.773 94.2451 147.783 91.3084 147.889C90.6009 147.918 89.8933 147.889 89.0114 147.889V159.636C87.5285 159.966 77.5554 160.033 75.5976 159.762C75.3069 158.25 75.3166 127.914 75.6267 126.383L75.6364 126.373ZM89.0501 140.262C91.4925 140.3 93.8283 140.523 96.1253 139.922C97.6276 139.525 98.3932 138.575 98.3739 137.267C98.3448 135.968 97.7051 135.212 96.2028 134.776C93.8574 134.098 91.4925 134.437 89.0598 134.456V140.262H89.0501Z" fill="black"/>
<path d="M120.103 126.383H134.031C138.46 137.529 142.88 148.665 147.357 159.937H133.721C132.916 157.785 132.092 155.614 131.278 153.462H120.472C119.619 155.565 118.746 157.717 117.845 159.927H107.213C107.213 159.927 107.135 159.869 107.116 159.82C107.087 159.772 107.058 159.694 107.077 159.646C108.618 155.672 110.159 151.698 111.72 147.725C114.501 140.62 117.293 133.526 120.103 126.383ZM128.913 145.631C127.886 142.743 126.946 140.116 125.851 137.054C124.756 140.145 123.806 142.811 122.798 145.631H128.904H128.913Z" fill="black"/>
<path d="M40.7065 126.305C50.9703 126.305 61.1179 126.305 71.3139 126.305V134.708H53.7035V139.583H67.03C67.3498 141.095 67.3789 145.621 67.0784 147.511H53.6066C53.6066 151.659 53.6066 155.662 53.6066 159.626C52.2206 160.004 44.7578 160.121 40.8131 159.859C40.532 158.473 40.4254 130.066 40.6968 126.286L40.7065 126.305Z" fill="black"/>
<path d="M69.3755 24.1808C69.9279 26.6813 70.4028 28.7845 70.8583 30.8877C71.8275 35.4332 73.6206 39.5911 76.6832 43.1287C79.8428 46.7922 81.3257 51.1343 81.6068 55.8446C81.7328 57.9671 81.1706 60.1284 80.8799 62.2704C80.7733 63.0748 80.56 63.8696 80.3274 64.9841C79.8816 64.0925 79.5618 63.5303 79.3098 62.9391C77.982 59.8765 76.0629 57.2112 74.0179 54.5846C70.4028 49.9421 68.1736 44.6988 67.6503 38.7576C67.2626 34.3089 68.0864 30.0251 69.0168 25.7412C69.1041 25.3341 69.2107 24.9271 69.3948 24.1808H69.3755Z" fill="#DD0032"/>
<path d="M143.384 131.646C139.73 131.646 136.716 128.632 136.745 124.997C136.764 121.963 139.013 118.455 143.451 118.387C146.96 118.329 150.023 121.479 150.042 124.958C150.071 128.515 146.96 131.636 143.384 131.646ZM149.112 124.968C149.092 121.75 146.611 119.269 143.393 119.259C140.156 119.24 137.442 121.867 137.539 125.075C137.636 128.302 140.05 130.793 143.316 130.822C147.047 130.851 149.257 127.711 149.112 124.978V124.968Z" fill="black"/>
<path d="M144.411 128.302C144.004 127.4 143.645 126.606 143.219 125.646C142.414 126.518 143.006 127.449 142.531 128.331C142.007 128.35 141.377 128.379 140.631 128.418V121.634C142.046 121.314 143.422 121.391 144.779 121.517C146.592 121.682 147.28 123.291 146.262 124.803C146.097 125.045 145.865 125.239 145.603 125.52C145.952 126.422 146.301 127.313 146.689 128.311H144.411V128.302ZM142.666 124.27C143.577 124.221 144.246 124.318 144.498 123.446C144.052 122.835 143.51 122.845 142.831 123.097C142.792 123.398 142.744 123.727 142.666 124.28V124.27Z" fill="black"/>
</svg>
