<svg width="240" height="176" viewBox="0 0 240 176" fill="none" xmlns="http://www.w3.org/2000/svg">
<path d="M118.107 156.369C119.512 157.209 120.821 157.113 122.279 156.386C126.46 154.285 130.483 151.921 134.382 149.347C135.278 147.569 135.849 145.591 135.998 143.507C136.192 142.089 131.422 144.19 131.08 143.507C130.246 141.861 137.061 138.814 132.362 127.984C132.257 127.738 131.993 127.581 131.739 127.642C130.412 127.975 131.879 133.193 125.705 135.531C125.397 135.645 125.107 135.347 125.239 135.049C130.395 123.282 118.028 112.951 118.661 116.304C120.338 127.957 104.643 132.624 104.643 142.342C104.643 145.004 105.31 147.508 106.487 149.697C109.201 151.457 111.994 153.112 114.901 154.609C115.99 155.169 117.071 155.738 118.116 156.369H118.107Z" fill="url(#paint0_linear_165_1037)"/>
<path d="M189.769 27.0694C189.339 26.7279 188.996 26.3427 188.566 26.1501C184.64 24.3815 180.74 22.5341 176.735 20.9494C171.044 18.6992 165.141 17.097 159.169 15.8187C153.679 14.6455 148.146 13.6474 142.525 13.1921C137.659 12.7981 132.802 12.0889 127.927 11.9401C121.559 11.7387 115.183 11.5461 108.824 12.229C103.554 12.7894 98.2662 13.1659 93.0051 13.7787C87.2609 14.4441 81.6221 15.7137 76.0097 17.097C70.6168 18.4278 65.3733 20.1877 60.2176 22.2189C56.9063 23.5322 53.6478 25.0294 50.6176 27.0606C50.5824 27.8223 50.5209 28.549 50.5122 29.2757C50.4682 36.0261 50.398 42.7765 51.0216 49.5094C51.1006 50.3762 51.3202 51.3655 51.5574 52.0922C51.7155 44.3875 52.9539 36.8841 54.4997 29.4596C55.2024 29.0656 55.7469 28.6891 56.3442 28.444C60.4108 26.7892 64.451 25.0469 68.5791 23.5585C72.3295 22.2189 76.159 21.1332 80.0939 20.4153C83.6159 19.7674 87.0765 18.7605 90.6073 18.2615C95.6576 17.5435 100.699 16.8606 105.811 16.5717V19.1895H105.706C105.372 19.1895 105.02 19.1107 104.757 19.3822C104.555 19.5923 104.687 20.0826 104.757 20.3365C104.836 20.6342 104.941 20.9231 105.038 21.2208C105.328 22.1401 106.048 22.5516 106.795 22.5253C107.761 22.4816 108.727 22.5078 109.693 22.5166C109.825 22.5166 109.957 22.5341 110.062 22.5428C110.106 22.6129 110.132 22.6392 110.141 22.6742C110.326 23.5935 110.51 24.5128 110.694 25.4409C110.73 25.6247 110.773 25.8086 110.809 25.9925C110.967 26.798 111.116 27.6034 111.274 28.4089C111.423 29.1619 111.582 29.9149 111.722 30.6766C111.933 31.7272 112.135 32.7866 112.337 33.846C112.486 34.5815 112.662 35.3169 112.758 36.0611C112.82 36.5514 113.031 36.8754 113.452 37.1205C114.55 37.7597 115.631 38.4251 116.711 39.0905C116.799 39.143 116.86 39.2131 116.974 39.3006C116.755 39.537 116.553 39.7471 116.36 39.9485C115.78 40.0186 115.2 39.8872 114.594 40.1411C114.304 40.5614 114.05 41.0604 113.821 41.5945C113.909 41.7083 113.997 41.8134 114.058 41.8922H115.727C115.833 41.7434 115.964 41.5595 116.061 41.4282H117.308C117.422 41.5858 117.519 41.7259 117.624 41.8834H119.197C119.302 41.7346 119.416 41.5945 119.539 41.4369H121.138C121.269 41.612 121.384 41.7609 121.489 41.901C122.042 41.901 122.552 41.9535 123.052 41.8747C123.167 41.7083 123.263 41.5683 123.36 41.4194H124.528C124.721 41.6033 124.897 41.7609 125.055 41.9097C125.512 41.9097 125.924 41.901 126.337 41.9097C126.566 41.9097 126.741 41.8572 126.847 41.577C126.697 41.2706 126.495 40.9554 126.355 40.6052C126.17 40.1324 125.828 39.966 125.354 39.9748C125.002 39.9748 124.66 39.9748 124.326 39.9748C124.106 39.7384 123.904 39.5283 123.667 39.2744C125.011 38.4163 126.355 37.6634 127.681 36.8228C127.751 36.6302 127.839 36.4201 127.883 36.21C128.024 35.5183 128.138 34.8266 128.27 34.1437C128.48 33.0668 128.709 31.9986 128.919 30.9217C129.174 29.5646 129.42 28.1988 129.675 26.833C129.912 25.6247 130.149 24.4165 130.386 23.2083C130.43 22.9806 130.518 22.7617 130.588 22.5166H131.133C132.099 22.5078 133.065 22.5166 134.031 22.5078C134.725 22.5078 135.208 22.1664 135.472 21.536C135.612 21.212 135.7 20.8531 135.841 20.5291C135.946 20.2665 136.007 20.0038 135.964 19.7324C135.788 19.2508 135.41 19.1808 134.962 19.1808H134.831V16.5892C137 16.738 139.161 16.9131 141.33 17.1583C147.083 17.7974 152.783 18.6905 158.44 19.89C164.184 21.107 169.823 22.718 175.339 24.7142C178.922 26.0187 182.506 27.4108 185.896 29.4771C187.424 36.7703 188.584 44.1248 188.513 52.101C189.822 49.0453 190.085 34.8792 189.769 27.0694ZM119.276 37.4095C118.863 37.6459 118.52 37.8472 118.107 38.0836C117.765 37.9523 117.493 37.6021 117.159 37.3482C116.447 36.8053 115.771 36.2275 115.068 35.6759C114.708 35.3957 114.533 35.0718 114.533 34.5815C114.559 31.6047 114.533 28.6278 114.533 25.651V25.0907C114.647 25.0206 114.735 24.9156 114.822 24.9156C115.455 24.898 116.087 24.9068 116.728 24.9068C116.904 25.3708 116.957 25.8086 117.009 26.2464C117.045 26.5353 117.08 26.8242 117.15 27.1044C117.255 27.5159 117.545 27.7348 117.976 27.761C118.213 27.7698 118.45 27.761 118.67 27.761C118.836 27.9537 118.775 28.155 118.775 28.3301C118.784 30.7641 118.784 33.1894 118.775 35.6146C118.766 36.1574 118.915 36.6215 119.284 37.068C119.276 37.1906 119.276 37.3394 119.267 37.4095H119.276ZM125.643 35.6321C124.721 36.3676 123.808 37.1205 122.885 37.8647C122.78 37.9523 122.657 38.0223 122.525 38.1186C122.192 37.891 121.937 37.5145 121.419 37.5583C121.401 37.3744 121.375 37.2168 121.357 37.068C121.752 36.6215 121.884 36.1312 121.884 35.5708C121.867 33.1806 121.875 30.7904 121.875 28.4002V27.8398C122.104 27.7173 122.315 27.761 122.517 27.7698C123.079 27.7873 123.483 27.4896 123.553 26.9205C123.606 26.439 123.676 25.9662 123.755 25.4934C123.781 25.3183 123.834 25.1344 123.86 24.9768C124.141 24.9156 125.608 24.8543 125.819 24.9068C125.916 24.9331 125.995 25.0031 126.118 25.0731V25.5284C126.118 28.5578 126.109 31.5871 126.118 34.6165C126.126 35.063 125.977 35.3607 125.635 35.6321H125.643Z" fill="white"/>
<path d="M150.465 47.9688C142.902 44.7469 134.945 42.4617 126.829 41.1396C134.4 44.3529 142.349 46.6555 150.465 47.9688Z" fill="#95D8E6"/>
<path d="M146.661 55.2527C140.197 50.1746 133.118 45.902 125.625 42.5137C132.09 47.583 139.16 51.8732 146.661 55.2527Z" fill="#95D8E6"/>
<path d="M113.724 41.1396C105.609 42.4617 97.6512 44.7469 90.0889 47.9688C98.2133 46.6555 106.162 44.3529 113.724 41.1396Z" fill="#95D8E6"/>
<path d="M114.928 42.5137C107.436 45.902 100.356 50.1746 93.8921 55.2527C101.384 51.8732 108.463 47.583 114.928 42.5137Z" fill="#95D8E6"/>
<path d="M118.011 44.3262C115.499 47.0053 113.54 50.1748 112.302 53.6244C114.814 50.954 116.764 47.767 118.011 44.3262Z" fill="#95D8E6"/>
<path d="M127.347 53.6332C126.1 50.1835 124.15 47.0053 121.638 44.335C122.885 47.7846 124.835 50.9628 127.347 53.6332Z" fill="#95D8E6"/>
<path d="M180.968 99.7916C180.538 100.606 180.046 101.429 179.651 102.296C178.878 103.994 178.219 105.745 177.402 107.426C172.765 116.978 167.082 125.848 160.284 134.051C155.84 139.41 150.93 144.286 145.634 148.734C138.317 154.88 130.29 160.029 121.744 164.354C120.602 164.932 119.627 164.923 118.52 164.292C116.333 163.032 114.067 161.902 111.88 160.641C105.653 157.052 99.7417 152.989 94.261 148.349C87.8318 142.903 82.0524 136.827 76.9318 130.155C70.9681 122.372 65.909 114.037 61.939 105.071C61.1485 103.294 60.2614 101.569 59.3567 99.7041C58.4521 99.7041 57.644 99.6866 56.836 99.7041C51.285 99.8354 45.7428 100.046 40.1919 100.098C30.2142 100.203 20.2365 100.212 10.2501 100.291C9.45079 100.291 8.53734 100.019 7.43066 101C15.274 102.086 22.7134 102.751 30.1264 103.618C37.5569 104.493 44.9875 105.378 52.866 106.314C57.2751 116.401 62.6329 125.953 69.2466 134.761C75.8339 143.525 83.405 151.343 92.0477 158.12C100.743 164.94 110.123 170.596 120.136 175.105C120.602 174.921 120.909 174.834 121.19 174.685C125.371 172.487 129.622 170.404 133.706 168.048C144.791 161.64 154.636 153.69 163.253 144.208C168.918 137.974 173.995 131.32 178.307 124.114C180.854 119.859 183.366 115.578 185.29 110.981C185.975 109.352 186.871 107.82 187.644 106.297C191.131 105.877 194.354 105.474 197.577 105.089C201.697 104.598 205.816 104.099 209.944 103.653C216.338 102.952 222.741 102.287 229.144 101.63C230.33 101.508 231.428 101.184 232.508 100.65C219.948 100.229 207.415 99.993 194.89 99.8004C190.322 99.7303 185.746 99.7916 180.977 99.7916H180.968Z" fill="white"/>
<path d="M95.763 145.723C102.825 151.843 110.554 156.921 118.801 161.272C119.776 161.789 120.54 161.885 121.515 161.307C123.685 160.02 125.951 158.891 128.12 157.612C134.743 153.716 140.882 149.155 146.6 144.033C154.285 137.142 160.723 129.175 166.494 120.656C166.696 120.358 166.713 119.956 166.977 119.071C164.342 122.136 162.164 124.841 159.801 127.38C153.012 134.673 145.73 141.441 137.553 147.194C136.508 147.929 135.445 148.647 134.374 149.347C130.483 151.921 126.46 154.285 122.271 156.387C120.821 157.113 119.504 157.21 118.099 156.369C117.053 155.739 115.964 155.17 114.884 154.609C111.986 153.112 109.192 151.466 106.47 149.698C100.866 146.055 95.6225 141.905 90.6512 137.396C85.3374 132.572 80.3047 127.45 75.7989 121.847L73.7085 120.113L74.4551 121.339C80.4188 130.445 87.4981 138.578 95.7542 145.723H95.763Z" fill="white"/>
<path d="M48.3687 57.2584C47.2444 46.5594 47.3586 36.088 47.6045 25.7391C47.9471 25.3539 48.114 25.0387 48.3775 24.8723C49.2031 24.347 50.0375 23.848 50.8982 23.4014C57.6261 19.8643 64.7141 17.2026 72.0481 15.2327C76.5978 14.0069 81.1914 12.8425 85.8201 11.9932C90.2205 11.1877 94.7087 10.9075 99.1354 10.2421C105.775 9.23526 112.468 9.30531 119.143 8.99011C122.718 8.82376 126.319 9.15647 129.894 9.37535C134.698 9.66428 139.512 9.89192 144.29 10.461C148.558 10.9688 152.774 11.9582 157.025 12.6411C162.831 13.5779 168.461 15.1977 174.047 16.9487C179.185 18.5597 184.112 20.7311 188.943 23.1125C190.305 23.7867 191.78 24.382 192.764 25.8179C193.045 35.764 193.019 45.7626 192.237 55.7525C192.202 56.1465 192.061 56.5405 191.877 57.3548C192.975 57.3548 193.765 57.3635 194.564 57.3548C206.088 57.1796 217.603 57.0045 229.126 56.8382C231.91 56.7944 234.686 56.8032 237.47 56.7769C238.024 56.7769 238.586 56.6718 239.139 56.6193C237.584 55.9539 236.012 55.5862 234.422 55.3235C229.038 54.4392 223.646 53.625 218.27 52.7407C213.694 51.9877 209.127 51.1997 204.56 50.3855C203.471 50.1929 202.417 49.8251 201.538 49.5975C201.679 39.5814 202.109 29.8454 201.213 20.2057C200.44 19.6016 199.905 19.0763 199.281 18.7261C196.593 17.1939 193.941 15.6092 191.174 14.2258C183.489 10.391 175.4 7.63303 167.082 5.56677C161.803 4.26222 156.41 3.36917 151.053 2.38857C148.655 1.9508 146.213 1.6969 143.789 1.42548C139.582 0.961445 135.375 0.296037 131.15 0.190973C122.903 -0.0104008 114.655 -0.203019 106.408 0.453634C99.3286 1.01398 92.2933 1.75818 85.3107 3.00144C79.4523 4.04333 73.6642 5.36539 67.9551 7.02891C59.6463 9.45415 51.6448 12.6236 44.1352 16.9487C42.4664 17.9118 40.5692 18.6123 39.1551 20.4596C38.2066 30.0205 38.7423 39.8265 38.8214 49.8251C32.5151 50.867 26.2527 51.8126 20.0254 52.9596C13.7367 54.1153 7.37765 54.9645 1.1416 56.5493C16.8723 56.5668 32.5678 57.6437 48.3599 57.2584H48.3687Z" fill="white"/>
<path d="M13.7106 62.3008H7.07048L0.0439453 78.5245H6.44687L7.32519 75.8803H13.5437L14.422 78.5245H20.7634L13.7106 62.3008ZM8.54605 72.2994L10.4169 66.801L12.3228 72.2994H8.54605Z" fill="url(#paint1_linear_165_1037)"/>
<path d="M45.9358 62.3008H38.2417L34.1312 72.8948L30.0295 62.3008H22.3091V78.5245H28.0269V68.1844L31.8564 78.5245H36.3446L40.2004 68.1406V78.5245H45.9358V62.3008Z" fill="url(#paint2_linear_165_1037)"/>
<path d="M67.2876 74.8472H55.7378V72.2556H66.2249V68.5959H55.7378V65.9343H67.0769V62.3008H49.9058V78.5245H67.2876V74.8472Z" fill="url(#paint3_linear_165_1037)"/>
<path d="M84.9506 72.0455C88.4287 71.31 88.6834 68.4558 88.6834 67.4489C88.6834 65.978 88.1477 65.0149 87.849 64.5334C86.5403 62.4671 84.4412 62.3008 82.2542 62.3008H70.2651V78.5245H76.1235V72.6146H79.2064L82.5704 78.5245H88.9996L84.9506 72.0455ZM82.5528 68.3945C82.1839 68.8235 81.6042 68.9636 80.4975 68.9636H76.1235V65.978H80.963C81.5779 65.978 82.2278 66.0743 82.6231 66.6434C82.8514 66.9674 82.869 67.3351 82.869 67.4752C82.869 67.6591 82.8514 68.0268 82.5528 68.3945Z" fill="url(#paint4_linear_165_1037)"/>
<path d="M97.4932 62.3008H91.6611V78.5245H97.4932V62.3008Z" fill="url(#paint5_linear_165_1037)"/>
<path d="M111.16 65.3129C112.863 65.3129 114.383 65.9783 115.235 67.6768L120.628 66.7313C120.487 66.2935 120.145 65.2166 119.249 64.2535C117.887 62.7563 115.375 61.6094 110.949 61.6094C100.532 61.6094 100.005 68.71 100.005 70.4085C100.005 75.1627 103.114 77.1589 104.73 77.9206C105.951 78.4897 107.708 79.0676 110.773 79.0676C113.61 79.0676 117 78.5422 119.091 76.4235C120.312 75.1802 120.751 73.8494 120.935 73.254L115.384 72.6762C114.927 74.1033 113.311 75.3903 110.914 75.3903C110.176 75.3903 108.472 75.3465 107.181 73.6918C106.742 73.1402 106.118 72.1071 106.118 70.3822C106.118 69.0952 106.487 67.7206 107.383 66.775C108.718 65.3742 110.562 65.3041 111.16 65.3041V65.3129Z" fill="url(#paint6_linear_165_1037)"/>
<path d="M134.813 62.3008H128.181L121.146 78.5245H127.558L128.427 75.8803H134.655L135.533 78.5245H141.865L134.813 62.3008ZM129.648 72.2994L131.519 66.801L133.434 72.2994H129.648Z" fill="url(#paint7_linear_165_1037)"/>
<path d="M161.786 78.5245V62.3008H156.051V70.8548L148.278 62.3008H143.464V78.5245H149.226V69.8391L156.947 78.5245H161.786Z" fill="url(#paint8_linear_165_1037)"/>
<path d="M188.759 69.0599H179.475V65.9605H189.593V62.3008H173.643V78.5245H179.475V72.6846H188.759V69.0599Z" fill="url(#paint9_linear_165_1037)"/>
<path d="M197.455 62.3008H191.623V78.5245H197.455V62.3008Z" fill="url(#paint10_linear_165_1037)"/>
<path d="M215.829 72.0455C219.307 71.31 219.561 68.4558 219.561 67.4489C219.561 65.978 219.034 65.0149 218.736 64.5334C217.418 62.4671 215.319 62.3008 213.132 62.3008H201.143V78.5245H207.001V72.6146H210.093L213.457 78.5245H219.886L215.829 72.0455ZM213.431 68.3945C213.062 68.8235 212.482 68.9636 211.384 68.9636H207.001V65.978H211.841C212.465 65.978 213.106 66.0743 213.501 66.6434C213.729 66.9674 213.756 67.3351 213.756 67.4752C213.756 67.6591 213.729 68.0268 213.431 68.3945Z" fill="url(#paint11_linear_165_1037)"/>
<path d="M239.693 65.9343V62.3008H222.521V78.5245H239.895V74.8472H228.353V72.2556H238.841V68.5959H228.353V65.9343H239.693Z" fill="url(#paint12_linear_165_1037)"/>
<path d="M10.8384 84.9776C9.86349 83.5767 8.07173 83.4629 7.07045 83.4629H0V94.696H1.62489V90.1958H7.03532C8.20348 90.1958 9.25746 90.1783 10.2324 89.434C11.3303 88.6023 11.4093 87.3503 11.4093 86.9037C11.4093 86.2208 11.2249 85.5379 10.8384 84.9776ZM9.25746 88.077C8.65142 88.8299 7.69405 88.8562 6.81574 88.8562H1.60732V84.8025H6.64007C7.54474 84.8025 8.63385 84.8025 9.27502 85.5992C9.6527 86.072 9.67027 86.5973 9.67027 86.8074C9.67027 87.4728 9.43312 87.8756 9.25746 88.077Z" fill="white"/>
<path d="M23.2226 89.9419C23.855 89.8456 24.1624 89.7492 24.4523 89.6354C26.1386 88.9437 26.2704 87.3678 26.2704 86.7637C26.2704 85.214 25.4096 84.0407 23.8901 83.638C23.4158 83.5154 23.0645 83.4629 22.1071 83.4629H14.4219V94.696H16.038V90.1958H21.4835L25.2954 94.696H27.3858L23.2226 89.9419ZM16.0204 88.8737V84.8025H22.2125C23.0909 84.8025 23.8462 84.8813 24.3205 85.7218C24.5928 86.1858 24.6103 86.6148 24.6103 86.8249C24.6103 87.4728 24.3556 87.8581 24.1975 88.0507C23.5739 88.8474 22.5024 88.8737 21.5889 88.8737H16.0204Z" fill="white"/>
<path d="M36.3973 83.2002C32.8401 83.2002 29.5991 85.1702 29.5991 89.2064C29.5991 92.8661 32.3131 95.0024 36.4939 95.0024C40.9382 95.0024 43.3009 92.3933 43.3009 89.2414C43.3009 85.0126 39.7261 83.2002 36.3973 83.2002ZM36.529 93.6191C33.209 93.6191 31.1977 91.9293 31.1977 89.1451C31.1977 85.9669 33.6745 84.566 36.3973 84.566C40.3585 84.566 41.6848 87.0438 41.6848 89.0838C41.6848 91.3077 40.3936 93.6191 36.529 93.6191Z" fill="white"/>
<path d="M50.6702 94.7048V84.8025H55.2813V83.4717H44.478V84.8025H49.0716V94.7048H50.6702Z" fill="white"/>
<path d="M68.8336 93.3127H59.62V89.5304H68.1924V88.1908H59.62V84.855H68.412V83.4717H58.0215V94.7048H68.8336V93.3127Z" fill="white"/>
<path d="M78.3724 94.9846C80.735 94.9846 83.5896 94.363 84.9158 91.6226L83.2207 91.2723C82.2018 93.1985 80.1378 93.5838 78.592 93.5838C75.5705 93.5838 73.2254 92.1391 73.2254 88.9872C73.2254 85.6251 75.9043 84.5307 78.3987 84.5307C80.2168 84.5307 82.0876 85.1173 82.966 86.7546L84.6699 86.3868C83.3788 84.0316 81.0161 83.1211 78.3372 83.1211C74.0774 83.1211 71.5391 85.4938 71.5391 88.9959C71.5391 93.0059 74.5429 94.9759 78.3724 94.9759V94.9846Z" fill="white"/>
<path d="M86.0752 84.8025H90.6776V94.7048H92.2761V84.8025H96.8873V83.4717H86.0752V84.8025Z" fill="white"/>
<path d="M101.235 83.4717H99.6099V94.7048H101.235V83.4717Z" fill="white"/>
<path d="M111.617 83.2002C108.059 83.2002 104.818 85.1702 104.818 89.2064C104.818 92.8661 107.532 95.0024 111.713 95.0024C116.149 95.0024 118.511 92.3933 118.511 89.2414C118.511 85.0126 114.937 83.2002 111.617 83.2002ZM111.739 93.6191C108.419 93.6191 106.408 91.9293 106.408 89.1451C106.408 85.9669 108.885 84.566 111.617 84.566C115.578 84.566 116.895 87.0438 116.895 89.0838C116.895 91.3077 115.604 93.6191 111.739 93.6191Z" fill="white"/>
<path d="M134.022 94.7048V83.4717H132.494C132.494 84.0408 132.538 92.7524 132.538 92.7524L123.772 83.4717H122.13V94.7048H123.658C123.658 93.8818 123.623 85.4154 123.623 85.4154L132.45 94.7048H134.014H134.022Z" fill="white"/>
<path d="M152.801 92.8398C151.791 93.6015 150.324 93.6015 149.779 93.6015C149.235 93.6015 147.829 93.584 146.538 93.0586C145.519 92.6471 145.186 92.2794 144.747 91.8154L143.262 92.4195C144.395 94.2844 147.065 94.9673 149.612 94.9673C154.004 94.9673 155.137 93.0149 155.137 91.3076C155.137 89.4602 153.767 88.4446 151.466 88.2169L147.97 87.8842C146.837 87.7704 145.686 87.5865 145.686 86.3695C145.686 84.8549 147.715 84.4871 149.393 84.4871C151.404 84.4871 152.537 85.0737 153.539 86.0193L155.005 85.4327C154.285 84.4171 152.766 83.1738 149.367 83.1738C147.548 83.1738 146.319 83.5416 145.642 83.9093C145.168 84.1632 144.079 84.8811 144.079 86.4571C144.079 86.8423 144.114 87.6303 144.878 88.3307C145.704 89.0925 146.714 89.1712 148.919 89.3814L150.64 89.539C151.949 89.6528 153.547 89.8892 153.547 91.3251C153.547 91.6228 153.451 92.3319 152.783 92.8398H152.801Z" fill="white"/>
<path d="M167.293 83.4717L162.84 88.9701L158.483 83.4717H156.428L162.041 90.3271V94.7048H163.622V90.3534L169.339 83.4717H167.293Z" fill="white"/>
<path d="M179.651 92.8398C178.65 93.6015 177.174 93.6015 176.638 93.6015C176.102 93.6015 174.688 93.584 173.397 93.0586C172.378 92.6471 172.036 92.2794 171.605 91.8154L170.121 92.4195C171.254 94.2844 173.924 94.9673 176.471 94.9673C180.863 94.9673 181.996 93.0149 181.996 91.3076C181.996 89.4602 180.626 88.4446 178.325 88.2169L174.829 87.8842C173.696 87.7704 172.545 87.5865 172.545 86.3695C172.545 84.8549 174.574 84.4871 176.252 84.4871C178.263 84.4871 179.396 85.0737 180.397 86.0193L181.864 85.4327C181.144 84.4171 179.633 83.1738 176.225 83.1738C174.407 83.1738 173.178 83.5416 172.51 83.9093C172.027 84.1632 170.947 84.8811 170.947 86.4571C170.947 86.8423 170.982 87.6303 171.746 88.3307C172.58 89.0925 173.582 89.1712 175.786 89.3814L177.508 89.539C178.816 89.6528 180.415 89.8892 180.415 91.3251C180.415 91.6228 180.318 92.3319 179.651 92.8398Z" fill="white"/>
<path d="M189.655 94.7048V84.8025H194.266V83.4717H183.463V84.8025H188.056V94.7048H189.655Z" fill="white"/>
<path d="M207.818 93.3127H198.605V89.5304H207.177V88.1908H198.605V84.855H207.397V83.4717H197.006V94.7048H207.818V93.3127Z" fill="white"/>
<path d="M224.989 94.7048V83.4717H222.82L218.226 92.9888L213.633 83.4717H211.428V94.7048H212.93C212.93 94.2933 212.851 85.0652 212.851 85.0652L217.445 94.7048H218.947L223.558 85.0652C223.558 85.0652 223.479 94.1182 223.479 94.7048H224.998H224.989Z" fill="white"/>
<path d="M236.328 88.2257L232.833 87.893C231.7 87.7792 230.549 87.5953 230.549 86.3783C230.549 84.8636 232.578 84.4959 234.256 84.4959C236.267 84.4959 237.4 85.0825 238.401 86.0281L239.868 85.4415C239.148 84.4259 237.628 83.1826 234.229 83.1826C232.411 83.1826 231.182 83.5503 230.505 83.9181C230.031 84.172 228.942 84.8899 228.942 86.4659C228.942 86.8511 228.977 87.6391 229.741 88.3395C230.567 89.1012 231.577 89.18 233.781 89.3902L235.503 89.5478C236.812 89.6616 238.41 89.898 238.41 91.3339C238.41 91.6315 238.313 92.3407 237.646 92.8485C236.636 93.6103 235.169 93.6103 234.625 93.6103C234.08 93.6103 232.675 93.5927 231.384 93.0674C230.365 92.6559 230.031 92.2882 229.592 91.8242L228.107 92.4283C229.24 94.2932 231.911 94.9761 234.458 94.9761C238.849 94.9761 239.982 93.0236 239.982 91.3164C239.982 89.469 238.612 88.4533 236.311 88.2257H236.328Z" fill="white"/>
<defs>
<linearGradient id="paint0_linear_165_1037" x1="104.634" y1="136.31" x2="135.998" y2="136.31" gradientUnits="userSpaceOnUse">
<stop stop-color="#D1393F"/>
<stop offset="1" stop-color="#B52A2A"/>
</linearGradient>
<linearGradient id="paint1_linear_165_1037" x1="0.0439453" y1="70.417" x2="20.7634" y2="70.417" gradientUnits="userSpaceOnUse">
<stop stop-color="#D1393F"/>
<stop offset="1" stop-color="#B52A2A"/>
</linearGradient>
<linearGradient id="paint2_linear_165_1037" x1="22.3091" y1="70.417" x2="45.9358" y2="70.417" gradientUnits="userSpaceOnUse">
<stop stop-color="#D1393F"/>
<stop offset="1" stop-color="#B52A2A"/>
</linearGradient>
<linearGradient id="paint3_linear_165_1037" x1="49.9058" y1="70.417" x2="67.2876" y2="70.417" gradientUnits="userSpaceOnUse">
<stop stop-color="#D1393F"/>
<stop offset="1" stop-color="#B52A2A"/>
</linearGradient>
<linearGradient id="paint4_linear_165_1037" x1="70.2651" y1="70.417" x2="88.9996" y2="70.417" gradientUnits="userSpaceOnUse">
<stop stop-color="#D1393F"/>
<stop offset="1" stop-color="#B52A2A"/>
</linearGradient>
<linearGradient id="paint5_linear_165_1037" x1="91.6611" y1="70.417" x2="97.4932" y2="70.417" gradientUnits="userSpaceOnUse">
<stop stop-color="#D1393F"/>
<stop offset="1" stop-color="#B52A2A"/>
</linearGradient>
<linearGradient id="paint6_linear_165_1037" x1="100.005" y1="70.3472" x2="120.935" y2="70.3472" gradientUnits="userSpaceOnUse">
<stop stop-color="#D1393F"/>
<stop offset="1" stop-color="#B52A2A"/>
</linearGradient>
<linearGradient id="paint7_linear_165_1037" x1="121.146" y1="70.417" x2="141.865" y2="70.417" gradientUnits="userSpaceOnUse">
<stop stop-color="#D1393F"/>
<stop offset="1" stop-color="#B52A2A"/>
</linearGradient>
<linearGradient id="paint8_linear_165_1037" x1="143.464" y1="70.417" x2="161.786" y2="70.417" gradientUnits="userSpaceOnUse">
<stop stop-color="#D1393F"/>
<stop offset="1" stop-color="#B52A2A"/>
</linearGradient>
<linearGradient id="paint9_linear_165_1037" x1="173.643" y1="70.417" x2="189.593" y2="70.417" gradientUnits="userSpaceOnUse">
<stop stop-color="#D1393F"/>
<stop offset="1" stop-color="#B52A2A"/>
</linearGradient>
<linearGradient id="paint10_linear_165_1037" x1="191.623" y1="70.417" x2="197.455" y2="70.417" gradientUnits="userSpaceOnUse">
<stop stop-color="#D1393F"/>
<stop offset="1" stop-color="#B52A2A"/>
</linearGradient>
<linearGradient id="paint11_linear_165_1037" x1="201.143" y1="70.417" x2="219.886" y2="70.417" gradientUnits="userSpaceOnUse">
<stop stop-color="#D1393F"/>
<stop offset="1" stop-color="#B52A2A"/>
</linearGradient>
<linearGradient id="paint12_linear_165_1037" x1="222.521" y1="70.417" x2="239.895" y2="70.417" gradientUnits="userSpaceOnUse">
<stop stop-color="#D1393F"/>
<stop offset="1" stop-color="#B52A2A"/>
</linearGradient>
</defs>
</svg>
