<svg width="268" height="160" viewBox="0 0 268 160" fill="none" xmlns="http://www.w3.org/2000/svg">
<path d="M97.6254 124.366C109.593 105.266 121.53 86.1961 133.57 66.9816C145.579 86.1547 157.526 105.214 169.473 124.294C168.158 124.584 142.369 124.687 138.736 124.428C140.402 123.59 142.069 122.803 143.684 121.913C145.537 120.888 147.059 119.48 148.239 117.72C149.13 116.374 149.544 114.894 149.709 113.289C150.072 109.738 148.954 106.643 147.018 103.754C146.107 102.398 145.258 101 144.336 99.6545C142.918 97.5736 142.96 95.3271 143.539 93.0184C143.632 92.6561 143.726 92.2834 143.86 91.7451C141.593 93.0185 139.657 94.4161 138.104 96.2899C136.613 98.0912 136.303 100.12 137.09 102.305C137.4 103.143 137.804 103.961 138.187 104.769C138.632 105.68 139.119 106.57 139.564 107.481C141.603 111.643 141.272 115.629 138.632 119.438C137.338 121.302 135.868 122.989 134.098 124.47H127.731C128.186 123.776 128.59 123.207 128.963 122.606C130.485 120.142 130.495 117.668 128.766 115.349C127.493 113.641 126.023 112.078 124.604 110.473C123.973 109.759 123.269 109.096 122.606 108.402C120.846 106.56 119.666 104.437 119.542 101.829C119.542 101.746 119.438 101.663 119.293 101.445C116.726 104.8 114.542 108.216 115.07 112.657C115.37 115.152 116.767 117.047 118.631 118.589C119.842 119.594 121.198 120.412 122.503 121.302C123.548 122.027 124.242 122.907 123.838 124.283C122.658 124.584 99.9444 124.666 97.6254 124.377V124.366ZM136.748 79.4876C136.51 80.5435 136.406 81.2579 136.189 81.9308C135.506 83.9806 134.118 85.5128 132.472 86.8483C131.292 87.8007 130.081 88.7221 128.911 89.6849C126.84 91.3827 125.174 93.4119 123.994 95.8344C123.352 97.1699 122.917 98.5985 122.979 100.048C123.062 102.036 123.714 103.94 125.029 105.473C126.385 107.046 127.783 108.62 129.356 109.945C132.048 112.212 133.352 115.018 133.373 118.486C133.373 119.076 133.373 119.676 133.373 120.298C133.621 120.256 133.704 120.267 133.735 120.225C135.754 117.906 136.624 115.194 136.313 112.15C136.106 110.059 135.299 108.133 134.305 106.291C133.611 105.007 132.855 103.744 132.255 102.419C131.199 100.058 131.489 97.8117 133.145 95.793C133.642 95.1925 134.201 94.6335 134.781 94.1055C136.034 92.977 137.307 91.859 138.591 90.7719C140.04 89.5503 140.454 87.956 140.113 86.2064C139.657 83.7942 138.487 81.6927 136.717 79.4772L136.748 79.4876Z" fill="#CF242A"/>
<path d="M107.253 94.0433C104.168 98.671 101.269 103.019 98.3086 107.471C96.1345 107.709 93.9087 107.947 91.6933 108.206C89.6848 108.444 87.6764 108.661 85.6784 108.961C83.0695 109.345 80.471 109.769 77.8828 110.204C73.7935 110.897 69.6835 111.498 65.6253 112.357C59.3206 113.693 53.0262 115.101 46.7939 116.685C39.1847 118.62 31.6376 120.836 24.2976 123.621C18.6243 125.774 12.9925 128.021 7.37103 130.288C5.60072 131.002 3.90289 131.882 2.16365 132.69C1.9773 132.773 1.77025 132.824 1.43896 132.659C2.87798 131.541 4.29629 130.381 5.75601 129.304C14.0692 123.165 22.9932 118.051 32.3519 113.703C40.0543 110.131 47.9637 107.077 56.0595 104.52C64.7246 101.777 73.5037 99.4681 82.4483 97.8324C87.2416 96.9524 92.0556 96.1863 96.8696 95.4513C100.245 94.9337 103.63 94.5403 107.253 94.064V94.0433Z" fill="#036CB5"/>
<path d="M265.649 132.648C234.891 118.465 202.384 111.073 168.82 107.471C165.891 103.081 162.961 98.6813 159.896 94.0847C160.652 94.209 161.211 94.3229 161.791 94.385C164.131 94.6438 166.481 94.8405 168.82 95.1511C171.988 95.5755 175.156 96.0207 178.293 96.5901C182.041 97.263 185.788 97.9877 189.495 98.8366C194.464 99.9754 199.423 101.197 204.34 102.512C211.887 104.531 219.248 107.119 226.474 110.069C235.812 113.889 244.809 118.372 253.329 123.786C257.273 126.292 261.073 129.004 264.758 131.872C265.069 132.11 265.348 132.39 265.638 132.648H265.649Z" fill="#036CB5"/>
<path d="M38.2633 0C38.5636 0.103526 38.8534 0.279521 39.1537 0.310579C47.001 0.9835 53.9994 3.80977 60.1902 8.61339C61.8363 9.88677 63.3478 11.3361 64.911 12.713C65.1181 12.889 65.2423 13.1478 65.4908 13.4895C61.5568 17.6202 57.3018 21.3782 53.2333 25.4261C52.0634 24.4115 50.9764 23.4487 49.8583 22.5273C46.3591 19.6286 42.363 17.7548 37.901 16.9783C34.2569 16.3468 30.6024 16.3882 27.0618 17.5684C25.9541 17.9308 24.8877 18.5105 23.9146 19.1524C20.3947 21.4714 20.1462 27.4759 23.9146 29.8052C25.2397 30.6231 26.6684 31.3788 28.1488 31.8344C31.8033 32.9524 35.4888 33.9256 39.1951 34.8573C43.6674 35.9858 48.1398 37.0935 52.374 38.957C56.6703 40.8412 60.4905 43.3465 63.3167 47.177C65.3976 50.0032 66.5882 53.1711 67.0644 56.6289C67.7684 61.7224 67.4785 66.7227 65.7392 71.5885C63.8137 76.9615 60.2627 80.9783 55.3452 83.7839C51.2352 86.1339 46.7525 87.3659 42.0835 87.956C38.6153 88.3908 35.1472 88.7117 31.648 88.5254C23.9456 88.132 16.647 86.3306 10.0006 82.2828C6.39793 80.088 3.30249 77.3342 0.735037 73.9903C0.54869 73.7522 0.248463 73.5969 0 73.4002C0 73.1724 0 72.9447 0 72.7273C0.74539 72.1475 1.53219 71.6195 2.23617 70.9984C5.62148 68.0272 8.98609 65.0249 12.5267 61.8881C12.9408 62.385 13.3031 62.8819 13.7379 63.3271C16.7195 66.4225 20.2394 68.669 24.308 70.1081C28.8631 71.7231 33.5529 72.0129 38.3048 71.6609C40.3132 71.516 42.3216 71.1433 44.2265 70.3876C46.7939 69.373 48.647 67.6855 49.2993 64.9421C49.5167 64.0207 49.4856 63.0476 49.5374 62.0951C49.6823 59.4034 48.5021 57.3743 46.2349 56.0595C44.6923 55.1588 43.0359 54.3927 41.3588 53.7716C36.814 52.0841 32.0414 51.2145 27.362 50.0343C22.7137 48.8644 18.1585 47.4254 13.9761 45.0236C10.5804 43.0773 7.77483 40.5409 5.97347 37.0107C3.18861 31.5652 2.7331 25.7884 3.95471 19.9185C5.42478 12.858 9.74183 7.85765 15.9638 4.41022C20.1462 2.07053 24.66 0.755742 29.4222 0.310579C29.6707 0.289874 29.8984 0.103526 30.1262 0C32.8386 0 35.5406 0 38.253 0H38.2633Z" fill="#404041"/>
<path d="M267.005 70.3255V86.6205C267.005 86.6205 266.943 86.6826 266.901 86.7137C266.86 86.7448 266.808 86.7965 266.767 86.7965C246.745 86.8069 226.712 86.8172 206.69 86.8276C206.473 86.8276 206.256 86.7862 206.059 86.7655C205.769 85.4507 205.665 4.68976 205.935 1.9049C207.167 1.62538 263.744 1.52185 266.798 1.81172C266.891 7.2158 266.818 12.6406 266.85 18.1896H223.234C223.016 19.7218 223.151 21.1712 223.13 22.6102C223.11 24.0802 223.13 25.54 223.13 27.01V35.9444H256.269V52.4154H223.462C223.048 53.6681 222.913 66.6503 223.234 69.8389C223.265 69.8803 223.296 69.9321 223.348 69.9631C223.389 69.9942 223.441 70.0252 223.493 70.0356C223.607 70.0667 223.71 70.0874 223.824 70.0977C223.938 70.1081 224.052 70.1081 224.166 70.1081C238.328 70.1081 252.48 70.1184 266.642 70.1288C266.694 70.1288 266.756 70.1288 266.808 70.1495C266.86 70.1702 266.901 70.2116 267.026 70.3151L267.005 70.3255Z" fill="#404041"/>
<path d="M155.01 52.3843V86.6723C149.078 77.6965 143.301 68.9589 137.555 60.2731V1.79101C137.845 1.7496 138.104 1.66678 138.353 1.66678C150.538 1.67713 162.723 1.60466 174.908 1.75995C180.012 1.82207 184.929 3.03333 189.515 5.39373C195.313 8.37529 199.091 13.0133 200.593 19.3387C202.032 25.3743 201.794 31.4099 199.713 37.2902C197.963 42.2284 194.681 45.8829 190.043 48.3261C186.472 50.2103 182.631 51.2145 178.645 51.7632C174.784 52.2912 170.912 52.4258 167.019 52.3947C163.634 52.374 160.248 52.3947 156.863 52.3947C156.314 52.3947 155.755 52.3947 155 52.3947L155.01 52.3843ZM155.082 35.4992C155.403 35.5613 155.569 35.6131 155.735 35.6131C161.884 35.5924 168.023 35.5924 174.173 35.5406C175.808 35.5303 177.403 35.1369 178.935 34.5468C180.954 33.7807 182.3 32.3727 182.983 30.3125C183.469 28.8425 183.614 27.3517 183.531 25.8195C183.304 21.7302 181.564 19.7011 178.169 18.79C177.848 18.7072 177.517 18.5933 177.185 18.5623C174.67 18.3552 172.154 18.0446 169.628 17.9929C165.176 17.8997 160.725 17.9618 156.263 17.9722C155.89 17.9722 155.507 18.055 155.082 18.1068V35.4992Z" fill="#404041"/>
<path d="M89.6746 86.8276C83.8046 86.8276 78.2246 86.8276 72.6341 86.8276C72.5306 86.8276 72.4374 86.7551 72.2511 86.6826V1.81171H132.793C133.083 2.9505 133.176 15.2805 132.886 18.2413H89.7678V35.8615C91.9832 36.0789 94.1573 35.934 96.3417 35.9547C98.5364 35.9858 100.742 35.9547 102.947 35.9547H122.782V52.4361C120.577 52.4982 118.403 52.4568 116.219 52.4672C114.014 52.4672 111.819 52.4672 109.614 52.4672H96.4141C94.2297 52.4672 92.0453 52.4672 89.6746 52.4672C89.6746 64.0311 89.6746 75.419 89.6746 86.8276Z" fill="#404041"/>
<path d="M211.691 153.002C213.42 148.995 215.035 145.247 216.681 141.458H218.389C216.204 146.314 214.061 151.066 211.908 155.838H210.086C209.382 151.946 209.838 147.939 209.123 143.726C207.249 147.918 205.479 151.884 203.709 155.849H201.804C201.493 151.066 201.183 146.324 200.872 141.458C201.483 141.427 202.021 141.407 202.705 141.376C202.891 145.206 203.067 148.954 203.253 152.908C204.309 151.718 204.578 150.32 205.2 149.119C205.821 147.918 206.318 146.666 206.856 145.434C207.425 144.15 207.984 142.866 208.595 141.5H210.831C210.862 142.111 210.904 142.711 210.925 143.322C211.059 146.19 211.173 149.047 211.328 151.915C211.339 152.215 211.515 152.494 211.701 153.022L211.691 153.002Z" fill="#404041"/>
<path d="M172.941 144.958H171.564C171.491 144.854 171.398 144.782 171.367 144.688C170.901 143.073 170.363 142.67 168.738 142.721C167.537 142.763 166.543 143.198 165.901 144.254C165.176 145.444 165.456 146.448 166.729 147.018C167.288 147.266 167.909 147.37 168.499 147.577C169.245 147.836 170.001 148.063 170.715 148.395C171.833 148.933 172.361 149.927 172.226 151.159C171.906 154.161 169.607 155.983 167.154 156.211C166.274 156.294 165.342 156.221 164.483 156.025C162.909 155.652 162.226 154.72 162.205 153.126C162.205 152.691 162.267 152.246 162.298 151.739H163.965C164.006 151.997 164.11 152.308 164.11 152.619C164.11 153.623 164.669 154.151 165.559 154.451C167.423 155.082 169.462 154.151 170.125 152.349C170.56 151.169 170.239 150.393 169.069 149.906C168.344 149.606 167.578 149.42 166.822 149.181C166.398 149.047 165.953 148.943 165.539 148.778C163.955 148.157 163.313 146.925 163.686 145.279C164.193 143.001 166.046 141.376 168.437 141.127C168.883 141.086 169.338 141.075 169.794 141.096C172.268 141.189 173.158 142.214 172.961 144.958H172.941Z" fill="#404041"/>
<path d="M44.4128 156.718C44.5474 157.329 44.6509 157.753 44.7234 158.105C45.4066 158.892 46.2555 158.83 46.9906 158.633C48.9472 158.105 48.999 156.335 49.4856 154.472C48.2432 155.362 47.1459 155.735 45.8725 155.662C44.8579 155.61 43.7399 155.155 43.4707 153.706C43.0462 151.48 43.3982 149.316 44.8476 147.473C46.4833 145.392 48.6056 145.144 50.9763 146.718C51.0695 146.459 51.1627 146.221 51.2869 145.9H52.7674C52.2601 148.519 51.7838 151.045 51.2973 153.561C51.1109 154.492 50.9453 155.434 50.7279 156.366C50.1999 158.716 48.7091 159.907 46.3073 159.959C46.0278 159.959 45.7483 159.959 45.4584 159.959C43.2326 159.886 42.6011 159.161 42.8392 156.811C43.305 156.78 43.7916 156.76 44.4231 156.718H44.4128ZM50.4277 150.103C50.5726 147.763 49.2682 146.593 47.591 147.152C46.9595 147.359 46.3384 147.939 45.976 148.509C45.2824 149.606 44.9511 150.869 45.0236 152.204C45.1168 154.047 46.5558 154.906 48.1915 154.027C48.7091 153.747 49.2371 153.281 49.4752 152.774C49.9514 151.78 50.231 150.683 50.4277 150.103Z" fill="#404041"/>
<path d="M108.889 146.676C108.993 146.428 109.106 146.179 109.231 145.879H110.494C110.556 146.034 110.649 146.148 110.628 146.231C109.986 149.471 109.293 152.701 108.703 155.952C108.019 159.772 105.328 160.3 102.46 159.865C100.918 159.627 100.566 158.923 100.731 156.832C101.228 156.801 101.756 156.77 102.294 156.739C102.47 157.35 102.595 157.826 102.719 158.25C104.665 159.141 105.959 158.706 106.725 156.905C107.005 156.252 107.181 155.548 107.295 154.741C106.177 155.331 105.1 155.786 103.847 155.662C102.439 155.538 101.477 154.824 101.311 153.447C101.083 151.563 101.342 149.741 102.326 148.084C103.423 146.231 105.4 145.279 107.119 145.807C107.688 145.983 108.206 146.335 108.889 146.676ZM107.088 147.163C105.825 146.873 104.779 147.09 104.065 148.167C103.174 149.523 102.771 151.035 102.936 152.639C103.05 153.695 103.837 154.296 104.914 154.306C106.042 154.316 106.901 153.788 107.357 152.815C107.781 151.915 108.071 150.931 108.289 149.958C108.537 148.84 108.268 147.836 107.077 147.152L107.088 147.163Z" fill="#404041"/>
<path d="M121.509 141.438H123.476C124.283 146.221 125.091 150.962 125.919 155.818C125.308 155.849 124.76 155.88 124.097 155.921C123.849 154.689 123.6 153.509 123.341 152.236H117.295C116.643 153.385 115.95 154.596 115.235 155.838H113.444C116.157 150.993 118.828 146.241 121.519 141.438H121.509ZM122.161 143.705C120.96 145.051 118.714 149.357 118.589 150.455H123.072C122.762 148.188 122.472 146.055 122.161 143.705Z" fill="#404041"/>
<path d="M32.9007 149.119C30.8302 149.378 28.8528 149.026 26.8962 149.347C26.6063 150.993 26.0783 152.463 26.099 154.192H32.3727C32.2485 154.824 32.1657 155.29 32.0622 155.828H23.8939C24.7946 151.055 25.6746 146.335 26.596 141.469C27.8486 141.272 29.1324 141.407 30.4057 141.386C31.6998 141.365 32.9939 141.386 34.4018 141.386V143.022H28.0867C27.7865 144.564 27.507 145.972 27.1964 147.566H33.1699C33.0664 148.208 32.9835 148.664 32.9111 149.14L32.9007 149.119Z" fill="#404041"/>
<path d="M240.316 154.844C239.829 155.145 239.374 155.466 238.887 155.704C236.485 156.873 234.073 155.642 234.104 152.587C234.125 150.745 234.56 148.871 235.792 147.39C236.34 146.728 237.106 146.148 237.893 145.786C239.363 145.113 240.74 145.392 241.931 146.842C242.283 144.968 242.604 143.291 242.935 141.531H244.54C243.649 146.314 242.79 150.972 241.9 155.797C241.506 155.828 241.03 155.859 240.533 155.9C240.45 155.476 240.388 155.165 240.316 154.844ZM237.862 154.896C239.125 154.71 240.067 154.037 240.554 152.877C241.144 151.438 241.744 149.948 241.268 148.343C240.833 146.873 239.26 146.303 238.059 147.246C237.396 147.774 236.827 148.56 236.506 149.357C236.144 150.269 235.999 151.304 235.937 152.298C235.843 154.016 236.144 154.347 237.862 154.906V154.896Z" fill="#404041"/>
<path d="M141.107 141.448C140.972 142.017 140.858 142.473 140.723 143.063H134.916C134.636 144.543 134.377 145.91 134.108 147.339C134.947 147.815 135.858 147.535 136.727 147.587C137.566 147.629 138.404 147.587 139.357 147.587V149.202H133.798C133.352 151.459 132.938 153.581 132.503 155.797H130.733C131.655 150.972 132.555 146.221 133.466 141.448H141.117H141.107Z" fill="#404041"/>
<path d="M179.836 155.724C179.742 155.776 179.649 155.859 179.546 155.869C179.266 155.89 178.987 155.869 178.635 155.869C178.521 155.59 178.397 155.3 178.293 155.031C177.662 155.393 177.061 155.849 176.388 156.087C174.545 156.749 172.578 155.548 172.775 153.83C172.868 152.981 173.282 152.101 173.748 151.376C174.307 150.517 175.187 149.968 176.274 149.854C177.268 149.751 178.262 149.616 179.256 149.492C179.784 147.991 179.67 147.225 178.862 146.883C177.786 146.417 176.761 146.914 175.85 148.353H174.369C174.649 146.966 175.374 146.159 176.626 145.775C177.734 145.434 178.831 145.341 179.929 145.755C181.047 146.179 181.513 146.976 181.295 148.136C180.829 150.662 180.322 153.188 179.836 155.714V155.724ZM179.235 151.086C177.848 150.672 176.782 150.91 175.767 151.418C175.073 151.759 174.67 152.349 174.556 153.126C174.442 153.954 174.866 154.544 175.674 154.679C176.844 154.875 177.869 154.399 178.448 153.271C178.769 152.639 178.935 151.935 179.235 151.086Z" fill="#404041"/>
<path d="M193.108 152.95H194.495C194.309 155.31 191.182 156.677 189.163 156.149C187.88 155.818 187.041 154.834 186.927 153.499C186.772 151.78 187.051 150.124 187.755 148.56C188.832 146.169 191.337 145.009 193.574 145.734C194.63 146.076 195.199 146.79 195.292 147.794C195.385 148.84 195.271 149.906 195.251 151.117C194.019 151.138 192.973 151.159 191.917 151.159C190.861 151.159 189.805 151.159 188.791 151.159C188.283 153.354 188.563 154.244 189.816 154.741C191.027 155.217 191.907 154.751 193.118 152.939L193.108 152.95ZM193.636 149.844C193.677 149.389 193.729 149.057 193.729 148.736C193.687 147.142 192.611 146.459 191.12 147.038C189.857 147.525 189.319 148.519 188.925 149.844H193.636Z" fill="#404041"/>
<path d="M76.009 151.169C75.3568 152.784 75.626 154.068 76.6612 154.658C77.8414 155.321 79.0216 154.772 80.2329 152.96H81.4442C81.5063 153.136 81.5891 153.26 81.5684 153.333C80.7919 155.486 78.4419 156.729 76.3092 156.138C74.7563 155.714 73.7832 154.461 73.9592 152.701C74.1041 151.273 74.4251 149.813 74.9531 148.478C75.7399 146.479 77.7897 145.351 79.8084 145.527C81.2992 145.662 82.3655 146.562 82.4898 148.053C82.5726 149.026 82.3862 150.03 82.3034 151.169H75.9987H76.009ZM80.823 149.906C80.8748 149.389 80.9369 149.119 80.9265 148.85C80.8644 147.132 79.5703 146.345 78.0381 147.09C76.9615 147.618 76.3921 148.519 76.154 149.751C76.4128 149.813 76.6198 149.896 76.8372 149.896C78.121 149.906 79.3943 149.896 80.8333 149.896L80.823 149.906Z" fill="#404041"/>
<path d="M73.3174 151.169H67.0437C66.4432 152.919 66.702 154.058 67.7787 154.648C69.0107 155.321 70.0977 154.824 71.34 152.991H72.7687C71.9819 155.29 69.9631 156.563 67.8098 156.211C66.1637 155.942 65.2009 154.989 65.1077 153.26C65.0042 151.273 65.4287 149.337 66.5364 147.649C67.4164 146.314 68.7208 145.589 70.3565 145.517C72.2821 145.434 73.7936 146.355 73.6383 149.15C73.6072 149.761 73.452 150.362 73.3174 151.18V151.169ZM71.7438 149.823C72.1579 148.591 72.0233 147.742 71.34 147.194C70.636 146.624 69.5904 146.676 68.6897 147.37C67.9236 147.96 67.3646 148.685 67.3543 149.823H71.7438Z" fill="#404041"/>
<path d="M155.662 152.939H156.884C156.946 153.095 157.049 153.219 157.018 153.281C156.201 155.248 154.586 156.314 152.567 156.242C150.703 156.17 149.544 155.207 149.409 153.374C149.254 151.252 149.741 149.233 150.972 147.453C151.749 146.324 152.888 145.651 154.234 145.548C156.749 145.361 157.94 146.324 157.909 148.923C157.909 149.596 157.764 150.258 157.66 151.086H151.376C150.745 152.877 151.014 154.058 152.08 154.648C153.302 155.31 154.41 154.803 155.673 152.939H155.662ZM156.014 149.844C156.377 149.14 156.459 148.571 156.169 147.939C155.807 147.183 155.269 146.79 154.472 146.811C152.991 146.852 151.811 148.157 151.79 149.844H156.014Z" fill="#404041"/>
<path d="M219.134 156.242C216.919 156.263 215.48 155.01 215.49 152.743C215.49 150.641 216.018 148.633 217.581 147.039C218.451 146.148 219.517 145.693 220.708 145.548C222.934 145.279 224.518 146.428 224.714 148.633C224.921 150.952 224.269 153.095 222.623 154.824C221.712 155.786 220.48 156.242 219.134 156.252V156.242ZM217.24 151.645C217.281 152.349 217.281 152.691 217.333 153.022C217.633 154.731 219.134 155.445 220.604 154.503C221.153 154.151 221.64 153.633 222.012 153.084C222.758 151.987 222.954 150.672 223.027 149.399C223.079 148.54 222.799 147.598 221.867 147.121C220.884 146.614 219.963 146.904 219.207 147.546C218.668 148.001 218.172 148.612 217.902 149.254C217.53 150.113 217.395 151.066 217.24 151.645Z" fill="#404041"/>
<path d="M41.0586 148.105C39.7024 146.811 38.4186 146.769 37.4351 147.929C37.021 148.426 36.669 149.068 36.5241 149.699C36.11 151.449 35.8305 153.219 35.4888 154.979C35.4371 155.248 35.3439 155.507 35.2507 155.828H33.6771C34.3086 152.474 34.9194 149.192 35.5406 145.879H37.0314C37.0728 146.2 37.1142 146.49 37.1453 146.749C37.9114 146.366 38.5636 145.9 39.2883 145.693C41.5244 145.071 43.0877 146.511 42.7046 148.788C42.3216 151.107 41.8868 153.416 41.4623 155.818C40.924 155.849 40.4374 155.869 39.9819 155.9C39.9094 155.745 39.8266 155.642 39.8473 155.569C40.1786 153.747 40.5306 151.935 40.8412 150.103C40.955 149.44 40.9757 148.767 41.0482 148.094L41.0586 148.105Z" fill="#404041"/>
<path d="M97.7081 155.952C98.174 153.219 98.6088 150.693 99.0022 148.426C98.5467 147.359 97.9359 147.049 97.1284 147.07C96.3416 147.09 95.7101 147.432 95.2338 148.032C94.5506 148.892 94.3021 149.937 94.1054 150.993C93.8155 152.588 93.5153 154.182 93.2151 155.828H91.5897C92.2212 152.484 92.832 149.202 93.4532 145.889H94.9543C94.9854 146.2 95.0164 146.49 95.0475 146.79C95.7411 146.417 96.3519 145.993 97.0249 145.765C99.2714 144.978 101.011 146.438 100.617 148.788C100.245 151.055 99.8201 153.323 99.3853 155.786C98.9297 155.828 98.4018 155.88 97.7081 155.952Z" fill="#404041"/>
<path d="M63.3064 155.807H61.6603C62.0744 153.612 62.4471 151.521 62.8716 149.44C63.0269 148.664 63.0579 147.96 62.3747 147.453C61.6086 146.873 60.7804 146.976 59.9936 147.411C58.8548 148.043 58.4407 149.14 58.2129 150.331C57.8609 152.142 57.5193 153.954 57.1673 155.818H55.5626C56.1838 152.474 56.7946 149.244 57.4157 145.9C57.8609 145.879 58.2854 145.858 58.7823 145.827C58.8651 146.138 58.9376 146.397 59.0101 146.655C59.1032 146.655 59.2275 146.697 59.2792 146.655C60.3973 145.796 61.5879 145.258 63.0372 145.775C64.1139 146.159 64.6522 146.749 64.6315 147.877C64.6108 148.829 64.4452 149.772 64.2795 150.714C63.9793 152.412 63.6377 154.109 63.3064 155.807Z" fill="#404041"/>
<path d="M255.803 148.198C252.677 148.343 250.192 145.713 250.296 142.649C250.41 139.419 252.646 137.462 255.938 137.411C259.178 137.359 261.766 139.812 261.653 142.784C261.528 145.993 259.075 148.353 255.793 148.198H255.803ZM260.379 142.732C260.358 140.226 258.34 138.311 255.772 138.363C253.391 138.404 251.538 140.33 251.559 142.742C251.579 145.351 253.484 147.256 256.041 147.214C258.454 147.183 260.4 145.175 260.379 142.742V142.732Z" fill="#404041"/>
<path d="M183.956 155.849H182.641C182.589 155.662 182.486 155.507 182.517 155.372C182.796 153.716 183.107 152.07 183.397 150.413C183.583 149.389 183.749 148.353 183.935 147.214C183.304 147.142 182.828 147.101 182.227 147.028C182.362 146.614 182.465 146.262 182.579 145.9C183.128 145.838 183.625 145.786 184.204 145.734C184.339 145.154 184.474 144.616 184.577 144.078C185.053 141.665 186.234 140.889 188.832 141.303C188.863 141.448 188.936 141.603 188.925 141.759C188.925 142.028 188.863 142.297 188.822 142.659C188.221 142.701 187.673 142.732 187.176 142.763C186.548 143.349 186.151 144.326 185.985 145.693C186.575 145.775 187.155 145.848 187.859 145.941C187.838 146.283 187.817 146.593 187.797 147.007C187.093 147.08 186.441 147.142 185.633 147.214C185.095 150.03 184.546 152.867 183.966 155.859L183.956 155.849Z" fill="#404041"/>
<path d="M232.116 155.828H230.491C231.392 151.014 232.272 146.314 233.131 141.686C233.338 141.562 233.431 141.458 233.524 141.458C233.907 141.438 234.291 141.458 234.808 141.458C233.907 146.262 233.017 150.972 232.106 155.828H232.116Z" fill="#404041"/>
<path d="M84.405 145.858H85.7508C85.8751 146.179 85.9889 146.459 86.1235 146.811C87.0346 146.076 87.9559 145.568 89.2397 145.889C89.1672 146.345 89.0844 146.811 89.0119 147.277C88.8256 147.339 88.6703 147.422 88.515 147.432C86.4548 147.577 85.7405 148.146 85.285 150.186C84.8708 152.039 84.5292 153.902 84.1462 155.828H82.7693C82.7279 155.673 82.6243 155.507 82.6554 155.372C82.8624 154.161 83.0902 152.95 83.3076 151.739C83.6596 149.813 84.0219 147.898 84.405 145.858Z" fill="#404041"/>
<path d="M145.361 145.858H146.718C146.832 146.169 146.945 146.459 147.08 146.821C148.012 146.024 148.974 145.537 150.269 145.92C150.134 146.438 150.02 146.904 149.906 147.359C149.637 147.401 149.471 147.422 149.316 147.442C147.484 147.587 146.707 148.198 146.262 150.01C145.983 151.148 145.796 152.318 145.568 153.478C145.424 154.244 145.279 155.01 145.123 155.807H143.508C144.129 152.453 144.74 149.213 145.361 145.858Z" fill="#404041"/>
<path d="M226.505 145.889H227.965V147.142C228.969 146.2 229.953 145.486 231.381 145.889C231.299 146.386 231.216 146.852 231.143 147.297C228.286 147.66 227.613 148.353 227.158 151.19C226.909 152.722 226.588 154.254 226.288 155.828H224.663C225.284 152.484 225.895 149.202 226.505 145.879V145.889Z" fill="#404041"/>
<path d="M52.3015 155.921C52.9641 152.453 53.5749 149.213 54.2064 145.91H55.8318C55.2003 149.244 54.5998 152.474 53.9683 155.797C53.43 155.838 52.9537 155.869 52.3119 155.911L52.3015 155.921Z" fill="#404041"/>
<path d="M88.3494 155.849C88.9809 152.474 89.5917 149.285 90.2232 145.931C90.658 145.9 91.1239 145.869 91.7864 145.817C91.3102 149.285 90.5648 152.525 89.9747 155.838H88.3494V155.849Z" fill="#404041"/>
<path d="M141.748 145.931C142.235 145.91 142.649 145.879 143.281 145.848C142.835 149.285 142.121 152.536 141.479 155.807H139.875C140.506 152.474 141.117 149.244 141.748 145.92V145.931Z" fill="#404041"/>
<path d="M142.411 141.458H144.067C144.336 142.069 144.181 142.639 143.953 143.343C143.374 143.374 142.794 143.405 142.059 143.436C142.193 142.701 142.297 142.09 142.411 141.458Z" fill="#404041"/>
<path d="M56.4323 143.343H54.486C54.6309 142.67 54.7551 142.1 54.8897 141.49H56.7532C56.6497 142.08 56.5461 142.649 56.4323 143.343Z" fill="#404041"/>
<path d="M92.8321 141.521C92.6768 142.204 92.5526 142.763 92.418 143.363H90.5856C90.6787 142.742 90.7719 142.173 90.8651 141.521H92.8217H92.8321Z" fill="#404041"/>
<path d="M254.82 145.424H253.795V140.206C255.099 139.698 256.342 139.678 257.605 140.206C258.578 141.489 258.568 141.531 257.367 142.929C257.936 143.601 258.319 144.378 258.288 145.392H257.304C256.821 144.102 256.059 143.474 255.017 143.508C254.965 144.088 254.903 144.688 254.83 145.424H254.82ZM256.725 142.39C257.087 140.796 256.756 140.547 254.913 140.93C254.944 141.427 254.965 141.945 255.006 142.556C255.679 142.494 256.176 142.442 256.725 142.39Z" fill="#404041"/>
</svg>
