<svg width="48" height="51" viewBox="0 0 48 51" fill="none" xmlns="http://www.w3.org/2000/svg">
<path d="M34.2067 28.8456C33.1154 28.8456 32.0446 28.6912 31.0048 28.372C28.6162 27.6308 26.5468 26.004 25.0127 23.6567C24.9613 23.5743 19.8238 15.5231 25.8467 8.46036C26.0629 8.21327 26.4026 8.11031 26.7218 8.21327C27.0307 8.31622 27.2572 8.6045 27.2778 8.93396C27.2778 8.93396 27.3087 9.48992 27.4734 10.2415C27.6381 11.0137 28.3691 11.0137 28.5338 11.0137C28.678 11.0137 29.4193 10.9313 29.5016 10.1385C29.6869 8.42947 30.6135 2.65364 34.9068 0.192997C35.1848 0.0385635 35.5142 0.04886 35.7819 0.234181C36.0393 0.419501 36.1732 0.728368 36.1114 1.03724C36.1114 1.08871 35.1539 6.71011 38.7162 11.6108C39.0971 12.1359 39.7149 12.4139 40.2914 12.3109C40.6003 12.2594 41.0018 12.0844 41.1768 11.5182C41.4857 10.4989 41.671 9.32519 41.7431 8.01765C41.7637 7.64701 42.0314 7.32784 42.402 7.26607C42.7726 7.20429 43.1433 7.38962 43.2874 7.72937C43.4007 7.97647 45.954 13.7935 45.4907 19.281C45.2436 22.2359 43.5551 24.9745 40.8577 26.7865C38.8603 28.1352 36.5232 28.8353 34.217 28.8353L34.2067 28.8456ZM26.0011 10.9931C22.5212 16.738 26.3306 22.6992 26.3718 22.7609C27.2984 24.1714 28.9354 26.0246 31.4887 26.8174C34.2479 27.6719 37.4086 27.1572 39.9414 25.4481C42.227 23.9038 43.6581 21.6078 43.864 19.1472C44.0905 16.4189 43.483 13.5258 42.8653 11.4255C42.8138 11.6211 42.7624 11.8064 42.7109 11.9815C42.402 13.011 41.5886 13.7317 40.5488 13.9067C39.3648 14.1126 38.1293 13.5773 37.388 12.558C34.7009 8.86188 34.2994 4.90838 34.3406 2.63305C32.3741 4.57892 31.3754 7.71908 31.1077 10.3033C30.9739 11.6005 29.9443 12.558 28.6059 12.6198C27.4425 12.6919 26.4026 12.0226 26.0011 10.9828V10.9931Z" fill="#B92D2D"/>
<path d="M29.985 42.7239H7.37585C6.92285 42.7239 6.5625 42.3636 6.5625 41.9106V22.4828C6.5625 22.0401 6.92285 21.6694 7.37585 21.6694C7.82886 21.6694 8.1892 22.0298 8.1892 22.4828V41.0972H29.985C30.4277 41.0972 30.7983 41.4576 30.7983 41.9106C30.7983 42.3636 30.438 42.7239 29.985 42.7239Z" fill="#B92D2D"/>
<path d="M34.2167 31.8109C33.774 31.8109 33.4033 31.4505 33.4033 30.9975V28.0221C33.4033 27.5794 33.7637 27.2087 34.2167 27.2087C34.6697 27.2087 35.03 27.5691 35.03 28.0221V30.9975C35.03 31.4402 34.6697 31.8109 34.2167 31.8109Z" fill="#B92D2D"/>
<path d="M5.82132 24.5215C5.67718 24.5215 5.53304 24.4804 5.40949 24.4083L0.591153 21.5564C0.36465 21.4226 0.210216 21.1755 0.199921 20.9181C0.189625 20.6607 0.292581 20.393 0.508789 20.2283L20.3072 4.57897C20.6058 4.34217 21.0176 4.34217 21.3162 4.57897L26.6287 8.77957C26.9788 9.05755 27.0405 9.56204 26.7626 9.92238C26.4846 10.2724 25.9801 10.3342 25.6197 10.0562L20.8117 6.25715L2.44436 20.7739L5.76984 22.7404L20.3072 11.2299C20.6058 10.9931 21.0176 10.9931 21.3162 11.2299L24.4049 13.67C24.7549 13.948 24.8167 14.4524 24.5387 14.8128C24.2607 15.1628 23.7562 15.2246 23.3959 14.9466L20.8117 12.8978L6.3361 24.3568C6.19196 24.4701 6.01693 24.5318 5.83161 24.5318L5.82132 24.5215Z" fill="#B92D2D"/>
<path d="M24.8786 42.7138H16.7245C16.2715 42.7138 15.9111 42.3534 15.9111 41.9004V29.0824C15.9111 28.6397 16.2715 28.269 16.7245 28.269H24.8786C25.3213 28.269 25.6919 28.6294 25.6919 29.0824V41.9004C25.6919 42.3431 25.3316 42.7138 24.8786 42.7138ZM17.5378 41.0973H24.0652V29.906H17.5378V41.0973Z" fill="#B92D2D"/>
<path d="M37.4388 50.0855C37.3461 50.0855 37.2432 50.0649 37.1608 50.034C27.833 46.5747 27.7197 35.4142 27.7197 35.301C27.7197 34.9509 27.9462 34.6318 28.286 34.5288C30.9834 33.6743 31.8483 30.8018 31.8586 30.7709C31.9615 30.4209 32.2807 30.1841 32.641 30.1841H42.2468C42.6072 30.1841 42.9263 30.4209 43.0293 30.7709C43.0293 30.7709 43.9044 33.664 46.6019 34.5288C46.9416 34.6318 47.1681 34.9509 47.1681 35.301C47.1681 35.4142 47.0652 46.1628 37.7579 50.0237C37.655 50.0649 37.552 50.0855 37.4491 50.0855H37.4388ZM29.367 35.8569C29.5215 37.9881 30.551 45.6584 37.4182 48.4073C44.3883 45.3289 45.3664 37.9675 45.5105 35.8672C43.194 34.8789 42.0924 32.83 41.6703 31.8211H33.197C32.7749 32.83 31.6732 34.8789 29.367 35.8672V35.8569Z" fill="#B92D2D"/>
<path d="M36.872 43.7846C36.6866 43.7846 36.5013 43.7229 36.3469 43.5993L33.5259 41.2416C33.1861 40.9533 33.1347 40.4386 33.4229 40.0988C33.7112 39.7591 34.226 39.7076 34.5657 39.9959L36.7072 41.7873L41.1137 35.4349C41.3711 35.0643 41.8756 34.9716 42.2463 35.229C42.6169 35.4864 42.7096 35.9909 42.4522 36.3615L37.5412 43.4346C37.4073 43.6199 37.2117 43.7435 36.9852 43.7743C36.944 43.7743 36.9131 43.7743 36.8823 43.7743L36.872 43.7846Z" fill="#B92D2D"/>
</svg>
