<svg width="51" height="46" viewBox="0 0 51 46" fill="none" xmlns="http://www.w3.org/2000/svg">
<path d="M49.9495 9.46875C49.8454 9.20833 49.6162 9.01042 49.335 8.94792C49.0537 8.88542 48.7725 8.97917 48.5641 9.17708L41.012 16.7292C40.8766 16.8646 40.7933 17.0417 40.7725 17.2396C40.5016 19.8229 39.3454 22.2604 37.5016 24.1042L36.8766 24.7292L31.6891 19.5417C31.7829 19.5417 31.887 19.5417 31.9808 19.5417C32.512 19.5417 33.0641 19.4479 33.6058 19.2292C34.0329 19.0521 34.2412 18.5625 34.0641 18.125C33.887 17.6979 33.3975 17.4896 32.96 17.6667C32.0433 18.0417 30.9495 17.8646 29.71 17.1458C28.8245 16.6354 28.1683 16.0104 28.0016 15.8437L26.5016 14.3437C26.6579 13.4687 26.4704 12.5521 25.9391 11.8021C25.3037 10.8958 24.3037 10.375 23.1891 10.375L19.3245 10.4062C19.0225 10.4062 18.7516 10.2917 18.5329 10.0833C18.3245 9.875 18.21 9.59375 18.21 9.30208V9.23958C18.21 8.64583 18.6787 8.15625 19.2725 8.13542L26.3141 7.85417C28.7933 7.76042 31.262 8.51042 33.262 9.96875C33.5954 10.2187 34.0641 10.1771 34.3558 9.88542L41.8141 2.42708C42.012 2.22917 42.1058 1.9375 42.0433 1.65625C41.9808 1.375 41.7933 1.14583 41.5225 1.04167C39.762 0.354167 37.9079 0 36.0016 0C32.2829 0 28.762 1.35417 26.0016 3.83333C22.3766 0.572917 17.4391 -0.708333 12.6475 0.385417C12.3454 0.458333 12.1058 0.677083 12.0225 0.979167C11.9391 1.27083 12.0225 1.59375 12.2412 1.8125L17.5225 7.09375C16.9079 7.60417 16.512 8.38542 16.512 9.25V9.3125C16.512 10.0625 16.8037 10.7708 17.335 11.3021C17.8662 11.8229 18.5641 12.1146 19.3037 12.1146H19.3245L23.1891 12.0833C23.9079 12.0833 24.3245 12.4792 24.5225 12.7396C24.3037 12.7396 24.0954 12.8229 23.9287 12.9896C23.5954 13.3229 23.5954 13.8542 23.9287 14.1875L36.5329 26.7917C36.9704 27.2292 36.9704 27.9271 36.5329 28.3646C36.0954 28.8021 35.3975 28.8021 34.96 28.3646L26.9287 20.3333C26.5954 20 26.0641 20 25.7308 20.3333C25.3975 20.6667 25.3975 21.1979 25.7308 21.5312L34.3766 30.1771C34.8141 30.6146 34.8141 31.3125 34.3766 31.75C33.9391 32.1875 33.2412 32.1875 32.8037 31.75L24.6058 23.5521C24.2725 23.2187 23.7412 23.2187 23.4079 23.5521C23.0745 23.8854 23.0745 24.4167 23.4079 24.75L30.1266 31.4687C30.5641 31.9062 30.5641 32.6042 30.1266 33.0417C29.6891 33.4792 28.9912 33.4792 28.5537 33.0417L21.2516 25.7396C20.9183 25.4062 20.387 25.4062 20.0537 25.7396C19.7204 26.0729 19.7204 26.6042 20.0537 26.9375L25.46 32.3437C25.6683 32.5521 25.7829 32.8333 25.7829 33.125C25.7829 33.4167 25.6683 33.6979 25.46 33.9062C25.2516 34.1146 24.9704 34.2292 24.6787 34.2292C24.585 34.2292 24.5016 34.2188 24.4183 34.1979C24.4808 33.9583 24.5225 33.6979 24.5225 33.4375C24.5225 31.8229 23.21 30.5104 21.5954 30.5104C21.5745 30.5104 21.5641 30.5104 21.5433 30.5104C21.5433 30.4792 21.5433 30.4375 21.5433 30.4062C21.5433 28.7917 20.2308 27.4792 18.6162 27.4792C18.6162 27.4792 18.6162 27.4792 18.6058 27.4792C18.6058 27.4792 18.6058 27.4792 18.6058 27.4687C18.6058 25.8542 17.2933 24.5417 15.6787 24.5417C15.335 24.5417 15.012 24.6042 14.6995 24.7083L14.0954 24.1042C12.262 22.2708 11.0954 19.8333 10.8245 17.2396C10.8037 17.0417 10.7204 16.8646 10.585 16.7292L3.30371 9.44792C3.09538 9.23958 2.80371 9.15625 2.52246 9.21875C2.24121 9.28125 2.01204 9.47917 1.90788 9.75C1.28288 11.4271 0.959961 13.1875 0.959961 14.9896C0.959961 19 2.52246 22.7604 5.35579 25.5937L25.3662 45.6042C25.5225 45.7604 25.7412 45.8542 25.96 45.8542C26.1787 45.8542 26.3975 45.7604 26.5537 45.6042L46.5641 25.5937C49.3975 22.7604 50.96 19 50.96 14.9896C50.96 13.0833 50.6058 11.2187 49.9079 9.45833L49.9495 9.46875ZM14.585 1.77083C18.5641 1.34375 22.5225 2.71875 25.3975 5.59375C25.7308 5.92708 26.262 5.92708 26.5954 5.59375C29.1058 3.08333 32.4495 1.69792 36.0016 1.69792C37.2412 1.69792 38.4704 1.86458 39.6475 2.20833L33.6475 8.20833C31.5954 6.88542 29.1787 6.16667 26.7308 6.16667C26.5641 6.16667 26.3975 6.16667 26.2412 6.16667L19.2725 6.4375L14.585 1.77083ZM21.6162 32.2083C22.2933 32.2083 22.8558 32.7604 22.8558 33.4479C22.8558 34.1354 22.3037 34.6875 21.6162 34.6875C20.9287 34.6875 20.3766 34.1354 20.3766 33.4479C20.3766 32.7604 20.9287 32.2083 21.6162 32.2083ZM17.71 29.6042C17.71 29.6042 17.8037 29.5208 17.8454 29.4687C18.0641 29.2812 18.3454 29.1667 18.6475 29.1667C19.3245 29.1667 19.887 29.7187 19.887 30.4062C19.887 31.0937 19.335 31.6458 18.6475 31.6458C17.96 31.6458 17.4079 31.0937 17.4079 30.4062C17.4079 30.1042 17.5225 29.8229 17.71 29.6042ZM15.71 26.2396C16.387 26.2396 16.9495 26.7917 16.9495 27.4792C16.9495 27.7812 16.835 28.0625 16.6475 28.2812C16.6058 28.3229 16.5537 28.3646 16.512 28.4167C16.2933 28.6042 16.012 28.7187 15.71 28.7187C15.0329 28.7187 14.4704 28.1667 14.4704 27.4792C14.4704 26.8021 15.0225 26.2396 15.71 26.2396ZM45.4183 24.4062L26.0016 43.8229L6.58496 24.4062C4.07454 21.8958 2.68913 18.5521 2.68913 15C2.68913 13.8542 2.83496 12.7292 3.11621 11.6354L9.20996 17.7292C9.57454 20.5833 10.887 23.2708 12.9287 25.3021L13.3558 25.7292C12.9912 26.2187 12.7829 26.8229 12.7829 27.4687C12.7829 29.0833 14.0954 30.3958 15.71 30.3958C15.71 30.3958 15.71 30.3958 15.7204 30.3958C15.7204 30.3958 15.7204 30.3958 15.7204 30.4062C15.7204 32.0208 17.0329 33.3333 18.6475 33.3333C18.6683 33.3333 18.6787 33.3333 18.6995 33.3333C18.6995 33.3646 18.6995 33.4062 18.6995 33.4375C18.6995 35.0521 20.012 36.3646 21.6266 36.3646C22.3558 36.3646 23.0225 36.0937 23.5329 35.6562C23.8975 35.8229 24.3037 35.9167 24.71 35.9167C25.46 35.9167 26.1579 35.625 26.6891 35.0937C26.96 34.8229 27.1683 34.5 27.3141 34.1458L27.3766 34.2083C27.9183 34.75 28.637 35.0312 29.3558 35.0312C30.0745 35.0312 30.7933 34.7604 31.335 34.2083C31.6266 33.9167 31.835 33.5833 31.9704 33.2187C32.46 33.5625 33.0225 33.7396 33.5954 33.7396C34.3141 33.7396 35.0329 33.4687 35.5745 32.9167C36.2829 32.2083 36.5329 31.2083 36.3141 30.2917C36.8454 30.1771 37.3245 29.9167 37.7204 29.5312C38.6995 28.5521 38.7933 27.0312 38.0329 25.9479L38.6891 25.2917C40.7308 23.25 42.0433 20.5729 42.4079 17.7187L48.7933 11.3333C49.137 12.5208 49.3037 13.7396 49.3037 14.9896C49.3037 18.5417 47.9183 21.8854 45.4079 24.3958L45.4183 24.4062Z" fill="#B92D2D"/>
</svg>
