<svg width="47" height="51" viewBox="0 0 47 51" fill="none" xmlns="http://www.w3.org/2000/svg">
<path d="M23.5797 50.9299C23.354 50.9299 23.1283 50.8479 22.9539 50.6735L13.1878 41.0407C5.15538 33.1211 0.55957 22.1035 0.55957 10.8191V8.74692C0.55957 8.25451 0.959653 7.85443 1.45206 7.85443C4.77582 7.85443 7.48407 5.14618 7.48407 1.82242C7.48407 1.33001 7.88415 0.929932 8.37656 0.929932H38.7828C39.2752 0.929932 39.6753 1.33001 39.6753 1.82242C39.6753 5.14618 42.3835 7.85443 45.7073 7.85443C46.1997 7.85443 46.5998 8.25451 46.5998 8.74692V10.8191C46.5998 22.1035 41.9937 33.1109 33.9716 41.0407L24.2054 50.6735C24.0311 50.8479 23.8054 50.9299 23.5797 50.9299ZM2.34455 9.58812V10.8089C2.34455 21.6111 6.75571 32.1671 14.4496 39.7584L23.5899 48.7756L32.7303 39.7584C40.4242 32.1671 44.8353 21.6214 44.8353 10.8089V9.58812C41.2346 9.17778 38.3725 6.30539 37.9519 2.70465H9.21776C8.80742 6.30539 5.94529 9.16752 2.34455 9.58812Z" fill="#B92D2D"/>
<path d="M21.5082 39.1427C21.4364 39.1427 21.3748 39.1427 21.303 39.1222C17.374 38.1784 14.2657 35.3573 12.7884 31.377C11.1368 26.9556 11.8036 22.011 14.5632 18.1538C19.2821 11.5678 17.0252 7.0438 16.9226 6.85915C16.7482 6.53087 16.7995 6.13079 17.0355 5.85381C17.2714 5.57683 17.6612 5.47425 18.01 5.59735C25.0781 8.1312 26.1963 13.958 26.1963 17.3434C27.2016 15.6917 27.017 13.9478 27.017 13.9273C26.976 13.6092 27.1196 13.2912 27.3863 13.0963C27.653 12.9117 27.9915 12.8706 28.289 13.0143C31.541 14.5428 33.408 18.5333 33.4799 18.6975C35.6341 23.796 35.8393 28.2379 34.0954 31.931C31.5718 37.2859 25.9193 39.0196 25.6731 39.0914C25.2833 39.2042 24.8832 39.0504 24.6678 38.7221C24.4524 38.3836 24.4831 37.9527 24.7499 37.6552C29.1508 32.6491 28.8943 28.9868 28.2685 27.1402C26.9657 28.8944 24.8627 29.9716 24.7499 30.0331C24.4113 30.2075 23.9805 30.1357 23.7137 29.8587C23.4368 29.5818 23.3752 29.1612 23.5599 28.8226C24.1138 27.766 24.2164 26.8222 23.8676 25.9502C23.4675 24.9449 22.5443 24.1858 21.7339 23.6831C21.8057 25.1603 21.2312 26.0118 20.667 26.8427C20.0207 27.7968 19.3539 28.7816 19.3026 31.1513C19.2103 35.9626 21.8159 37.3987 21.9185 37.4603C22.3186 37.6757 22.5032 38.1476 22.3391 38.5682C22.2057 38.917 21.8672 39.1427 21.5082 39.1427ZM19.1487 8.03888C19.5796 10.306 19.518 14.2966 16.0199 19.1899C13.6091 22.5547 13.0244 26.8838 14.4606 30.7512C15.271 32.926 16.6456 34.7008 18.3998 35.9113C17.8664 34.7315 17.4766 33.1722 17.5176 31.1205C17.5792 28.2276 18.4716 26.9145 19.1795 25.8477C19.8668 24.8218 20.2566 24.2679 19.6616 22.37C19.5591 22.052 19.6514 21.693 19.8976 21.4673C20.1335 21.2313 20.4926 21.1595 20.8106 21.2621C20.9542 21.3134 24.4318 22.5342 25.5192 25.2834C25.7552 25.8784 25.868 26.4939 25.8475 27.13C26.5348 26.5247 27.1811 25.7759 27.4068 24.9757C27.4991 24.6577 27.7556 24.4217 28.0839 24.3499C28.4121 24.2781 28.7404 24.4012 28.9558 24.6474C29.12 24.8423 32.5258 29.0381 28.3711 35.7779C29.8381 34.7931 31.4794 33.3056 32.4848 31.1616C33.9928 27.9507 33.7774 24.0011 31.8488 19.4258C31.8488 19.4258 30.6793 16.9433 28.7404 15.4045C28.5353 16.8715 27.8274 18.995 25.6013 20.4825C25.3038 20.6876 24.9037 20.6774 24.6062 20.4825C24.3087 20.2773 24.1651 19.908 24.2369 19.5489C24.3087 19.2001 25.8886 11.6499 19.1487 8.0594V8.03888Z" fill="#B92D2D"/>
</svg>
