<svg width="42" height="51" viewBox="0 0 42 51" fill="none" xmlns="http://www.w3.org/2000/svg">
<path d="M40.3409 23.3977C39.898 23.3977 39.5478 23.0475 39.5478 22.6046C39.5478 11.4503 31.0507 2.36616 20.5967 2.36616C10.1428 2.36616 1.64569 11.4503 1.64569 22.6046C1.64569 23.0475 1.28521 23.3977 0.852631 23.3977C0.420052 23.3977 0.0595703 23.0475 0.0595703 22.6046C0.0595703 10.5748 9.26731 0.780029 20.5967 0.780029C31.9262 0.780029 41.1339 10.5748 41.1339 22.6046C41.1339 23.0475 40.7837 23.3977 40.3409 23.3977Z" fill="#B92D2D"/>
<path d="M14.0154 23.3979C13.5725 23.3979 13.2223 23.0477 13.2223 22.6049C13.2223 20.9157 10.5753 19.4841 7.434 19.4841C4.29266 19.4841 1.64569 20.9157 1.64569 22.6049C1.64569 23.0477 1.28521 23.3979 0.852631 23.3979C0.420052 23.3979 0.0595703 23.0477 0.0595703 22.6049C0.0595703 19.9579 3.30391 17.8877 7.434 17.8877C11.5641 17.8877 14.8084 19.9579 14.8084 22.6049C14.8084 23.0477 14.448 23.3979 14.0154 23.3979Z" fill="#B92D2D"/>
<path d="M27.1785 23.3979C26.7356 23.3979 26.3854 23.0477 26.3854 22.6049C26.3854 20.9157 23.7384 19.4841 20.5971 19.4841C17.4557 19.4841 14.8088 20.9157 14.8088 22.6049C14.8088 23.0477 14.4483 23.3979 14.0157 23.3979C13.5831 23.3979 13.2227 23.0477 13.2227 22.6049C13.2227 19.9579 16.467 17.8877 20.5971 17.8877C24.7272 17.8877 27.9715 19.9579 27.9715 22.6049C27.9715 23.0477 27.6213 23.3979 27.1785 23.3979Z" fill="#B92D2D"/>
<path d="M40.3406 23.3979C39.8977 23.3979 39.5475 23.0477 39.5475 22.6049C39.5475 20.9157 36.9005 19.4841 33.7592 19.4841C30.6179 19.4841 27.9709 20.9157 27.9709 22.6049C27.9709 23.0477 27.6207 23.3979 27.1778 23.3979C26.7349 23.3979 26.3848 23.0477 26.3848 22.6049C26.3848 19.9579 29.6188 17.8877 33.7592 17.8877C37.8996 17.8877 41.1336 19.9579 41.1336 22.6049C41.1336 23.0477 40.7834 23.3979 40.3406 23.3979Z" fill="#B92D2D"/>
<path d="M14.0153 23.3979C13.6239 23.3979 13.2943 23.1095 13.2325 22.7181C13.1398 22.1001 11.0799 7.46457 20.1332 0.924401C20.4834 0.666914 20.988 0.749308 21.2455 1.09949C21.503 1.44967 21.4206 1.95435 21.0704 2.21184C12.8102 8.18554 14.7877 22.3473 14.8083 22.4812C14.8701 22.9138 14.5715 23.3155 14.1389 23.3876C14.0977 23.3876 14.0565 23.3876 14.0256 23.3876L14.0153 23.3979Z" fill="#B92D2D"/>
<path d="M27.178 23.3978C27.178 23.3978 27.0956 23.3978 27.0647 23.3978C26.6322 23.336 26.3335 22.9344 26.3953 22.4915C26.4159 22.3473 28.4037 8.19579 20.1332 2.22209C19.783 1.9646 19.7006 1.47024 19.9581 1.10975C20.2156 0.759572 20.71 0.677163 21.0704 0.93465C30.1237 7.47482 28.0638 22.1104 27.9711 22.7284C27.9093 23.1197 27.5694 23.4081 27.1883 23.4081L27.178 23.3978Z" fill="#B92D2D"/>
<path d="M20.5968 23.7687C20.1539 23.7687 19.8037 23.4185 19.8037 22.9756V18.6808C19.8037 18.2379 20.1642 17.8877 20.5968 17.8877C21.0294 17.8877 21.3898 18.2379 21.3898 18.6808V22.9756C21.3898 23.4185 21.0396 23.7687 20.5968 23.7687Z" fill="#B92D2D"/>
<path d="M30.474 50.7738H10.7196C10.2767 50.7738 9.9265 50.4236 9.9265 49.9807V37.3021C9.68961 37.4257 9.40123 37.4154 9.16434 37.2712L5.62132 35.1701C5.39473 35.0362 5.25053 34.7993 5.22993 34.5418C5.20934 34.2843 5.32263 34.0268 5.52862 33.862L20.0921 22.3369C20.3805 22.1103 20.7925 22.1103 21.0808 22.3369L35.6443 33.862C35.8503 34.0268 35.9636 34.274 35.943 34.5418C35.9224 34.8096 35.7782 35.0362 35.5516 35.1701L32.0086 37.2712C31.7717 37.4051 31.4833 37.4154 31.2464 37.3021V49.9807C31.2464 50.4236 30.8963 50.7738 30.4534 50.7738H30.474ZM11.5126 49.1774H29.6809V36.0558L20.5968 28.8668L11.5126 36.0558V49.1774ZM30.9581 35.0568L31.679 35.6233L33.7595 34.3873L20.5865 23.9745L7.41343 34.3873L9.49392 35.6233L10.2046 35.0568L20.0715 27.2395C20.3599 27.0129 20.7719 27.0129 21.0602 27.2395L30.9375 35.0568H30.9581Z" fill="#B92D2D"/>
<path d="M23.594 50.7634H17.5997C17.1568 50.7634 16.8066 50.4132 16.8066 49.9703V40.536C16.8066 40.0931 17.1671 39.7429 17.5997 39.7429H23.594C24.0369 39.7429 24.3871 40.0931 24.3871 40.536V49.9703C24.3871 50.4132 24.0369 50.7634 23.594 50.7634ZM18.3928 49.1773H22.8009V41.329H18.3928V49.1773Z" fill="#B92D2D"/>
</svg>
