<svg width="45" height="51" viewBox="0 0 45 51" fill="none" xmlns="http://www.w3.org/2000/svg">
<path d="M16.1172 18.9785H1.16216C0.699636 18.9785 0.319336 18.5982 0.319336 18.1357V1.4229C0.319336 0.960373 0.699636 0.580078 1.16216 0.580078H37.6607C38.1232 0.580078 38.5035 0.960373 38.5035 1.4229V12.5956C38.5035 13.0684 38.154 13.4384 37.6504 13.4384C37.6915 13.6337 37.7737 13.8187 37.8765 13.9935C37.969 14.1682 38.0924 14.3224 38.2363 14.4457C38.5754 14.7644 38.596 15.2988 38.2876 15.638C37.969 15.9772 37.4345 15.9978 37.0954 15.6894C36.8281 15.4427 36.602 15.1549 36.417 14.8363C36.2423 14.5382 36.1189 14.2196 36.0367 13.8907L16.333 18.958C16.2611 18.9785 16.1891 18.9888 16.1275 18.9888L16.1172 18.9785ZM2.00499 17.2928H16.0041L36.5506 12.0097C36.6431 11.9892 36.7253 11.9789 36.8178 11.9892V2.26574H2.00499V17.2928Z" fill="#B92D2D"/>
<path d="M1.68677 5.98662C1.46065 5.98662 1.23452 5.96607 1.0084 5.92495C0.545872 5.84272 0.247799 5.40076 0.330026 4.93823C0.412253 4.4757 0.854224 4.17762 1.31675 4.25985C1.96429 4.38319 2.63238 4.17761 3.09491 3.7048C3.62938 3.17032 3.8144 2.39944 3.58827 1.66967C3.44437 1.2277 3.69105 0.75489 4.1433 0.610992C4.59555 0.477372 5.05808 0.724048 5.20198 1.16602C5.62339 2.49194 5.27392 3.92065 4.29748 4.89711C3.59855 5.59604 2.65294 5.97635 1.68677 5.97635V5.98662Z" fill="#B92D2D"/>
<path d="M37.1265 5.97635C36.1604 5.97635 35.2353 5.59604 34.5364 4.89711C33.5599 3.92065 33.2105 2.49194 33.6319 1.16602C33.7758 0.724048 34.2383 0.477372 34.6906 0.610992C35.1325 0.75489 35.3792 1.2277 35.2456 1.66967C35.0195 2.38916 35.2045 3.17032 35.739 3.7048C36.2015 4.17761 36.8696 4.38318 37.5068 4.24956C37.9694 4.16733 38.4113 4.45514 38.4936 4.91767C38.5861 5.3802 38.288 5.82216 37.8255 5.90439C37.5891 5.9455 37.3527 5.97635 37.1163 5.97635H37.1265Z" fill="#B92D2D"/>
<path d="M4.39976 18.9785C4.31754 18.9785 4.22503 18.9682 4.1428 18.9374C3.70083 18.7935 3.45415 18.3207 3.59805 17.8787C3.82418 17.1592 3.63916 16.378 3.10469 15.8538C2.64216 15.3913 1.97407 15.1857 1.32653 15.3091C0.874282 15.3913 0.432312 15.0932 0.339806 14.6307C0.257579 14.1682 0.555652 13.7365 1.0079 13.644C2.21047 13.4178 3.4336 13.7982 4.2867 14.6513C5.26315 15.6277 5.61261 17.0564 5.1912 18.3823C5.07814 18.7421 4.74923 18.9682 4.38949 18.9682L4.39976 18.9785Z" fill="#B92D2D"/>
<path d="M19.4165 16.152C15.9013 16.152 13.0439 13.2946 13.0439 9.77938C13.0439 6.26415 15.9013 3.40674 19.4165 3.40674C22.9317 3.40674 25.7891 6.26415 25.7891 9.77938C25.7891 13.2946 22.9317 16.152 19.4165 16.152ZM19.4165 5.10268C16.8367 5.10268 14.7399 7.19949 14.7399 9.77938C14.7399 12.3593 16.8367 14.4561 19.4165 14.4561C21.9964 14.4561 24.0932 12.3593 24.0932 9.77938C24.0932 7.19949 21.9964 5.10268 19.4165 5.10268Z" fill="#B92D2D"/>
<path d="M39.172 30.3156C38.802 30.3156 38.4525 30.0587 38.36 29.6887C38.247 29.2364 38.5142 28.7739 38.9664 28.6608L40.7138 28.2086C40.7138 28.2086 40.7549 28.2086 40.7754 28.1983L43.0367 27.6124L40.0354 15.895C40.0354 15.895 40.0045 15.823 39.9943 15.7922L39.2953 13.0684L37.6714 13.4795C37.7125 13.6646 37.7844 13.8393 37.8872 14.014C37.9797 14.1785 38.1031 14.3224 38.2469 14.456C38.5861 14.7746 38.617 15.3091 38.2983 15.6483C37.9797 15.9978 37.4452 16.0183 37.106 15.6997C36.8388 15.453 36.6024 15.1652 36.4277 14.8466C36.0679 14.2196 35.9035 13.5104 35.9343 12.7909C35.9549 12.4209 36.2118 12.1022 36.5716 12.0097L39.6962 11.2183C40.1484 11.1052 40.611 11.3725 40.724 11.8247L41.608 15.2474C41.608 15.2474 41.6388 15.3194 41.6491 15.3605L44.8868 28.003C44.9998 28.4552 44.7326 28.9075 44.2804 29.0308L41.1557 29.8326C41.1557 29.8326 41.1146 29.8326 41.1043 29.8428L39.4084 30.2848C39.3365 30.3054 39.2645 30.3156 39.1926 30.3156H39.172Z" fill="#B92D2D"/>
<path d="M8.6966 38.1374C8.54243 38.1374 8.39853 38.0963 8.26491 38.0243C8.06962 37.9112 7.936 37.7262 7.87433 37.5104L3.71159 21.3218C3.6602 21.106 3.69103 20.8798 3.8041 20.6846C3.91716 20.4893 4.10217 20.3556 4.31801 20.294L15.8915 17.3235C16.3437 17.2104 16.8062 17.4777 16.9193 17.9299C17.0324 18.3822 16.7651 18.8447 16.3129 18.9578L5.55142 21.7227L9.29275 36.277L17.8032 34.0877C18.2555 33.9746 18.718 34.2418 18.8311 34.6941C18.9441 35.1464 18.6769 35.6089 18.2247 35.7219L8.89189 38.1168C8.81994 38.1374 8.74799 38.1477 8.68632 38.1477L8.6966 38.1374Z" fill="#B92D2D"/>
<path d="M5.44824 25.5053C5.00627 25.5053 4.63624 25.1661 4.60541 24.7139C4.57457 24.2514 4.92404 23.8505 5.38657 23.8197C6.04438 23.7785 6.63025 23.4085 6.96944 22.8432C7.34973 22.1957 7.33946 21.394 6.9386 20.7567C6.69192 20.3661 6.81526 19.8419 7.20584 19.5952C7.59642 19.3485 8.12061 19.4719 8.36729 19.8624C9.09706 21.0445 9.11762 22.5143 8.41869 23.6963C7.80198 24.7447 6.7022 25.4231 5.49963 25.5053C5.47907 25.5053 5.45851 25.5053 5.43796 25.5053H5.44824Z" fill="#B92D2D"/>
<path d="M39.5835 16.6864C38.9359 16.6864 38.2987 16.5117 37.7231 16.1725C37.5072 16.0492 37.3017 15.895 37.0756 15.6791C36.8186 15.4427 36.5822 15.1549 36.4075 14.826C36.0477 14.199 35.873 13.4898 35.9141 12.7703C35.9449 12.3078 36.3561 11.9481 36.8083 11.9789C37.2708 12.0097 37.6306 12.4003 37.5998 12.8731C37.5792 13.2637 37.6717 13.6543 37.867 13.9935C37.9595 14.1682 38.0828 14.3224 38.2267 14.4457C38.3501 14.5691 38.4631 14.6513 38.5659 14.7027C39.1415 15.0419 39.8404 15.0727 40.4263 14.7952C40.9608 14.5485 41.6392 14.9699 41.6392 15.5558C41.6392 15.9258 41.413 16.2342 41.0841 16.3472C40.6113 16.5631 40.0974 16.6659 39.5835 16.6659V16.6864Z" fill="#B92D2D"/>
<path d="M40.9198 29.8532C40.6423 29.8532 40.3648 29.7093 40.2003 29.4523C39.4603 28.2806 39.45 26.8005 40.1489 25.6082C40.7656 24.5598 41.8654 23.8917 43.0885 23.8197C43.5511 23.7889 43.9519 24.1486 43.9828 24.6112C44.0136 25.0737 43.6539 25.4745 43.1913 25.5054C42.5335 25.5465 41.9477 25.9062 41.6085 26.4716C41.2282 27.1191 41.2384 27.9208 41.6393 28.5581C41.886 28.9487 41.7626 29.4729 41.3721 29.7195C41.2384 29.8018 41.074 29.8429 40.9301 29.8429L40.9198 29.8532Z" fill="#B92D2D"/>
<path d="M11.8315 37.3358C11.8315 37.3358 11.8006 37.3358 11.7801 37.3358C11.3176 37.305 10.9578 36.9144 10.9887 36.4519C11.0298 35.7016 10.6495 34.9924 10.0019 34.6121C9.43662 34.2832 8.73769 34.242 8.14155 34.5298C7.72013 34.7251 7.21649 34.5401 7.0212 34.1187C6.82592 33.6973 7.01093 33.1936 7.43234 32.9983C8.53213 32.4844 9.81692 32.5461 10.8653 33.1628C12.0576 33.872 12.7463 35.1671 12.6743 36.5444C12.6538 36.9967 12.2735 37.3461 11.8315 37.3461V37.3358Z" fill="#B92D2D"/>
<path d="M20.5682 29.5654C20.3729 29.5654 20.1673 29.4934 20.0132 29.3495C19.0984 28.5375 18.4406 27.4583 18.1322 26.2351C17.7108 24.5906 17.9472 22.8844 18.8106 21.4146C19.674 19.9447 21.0615 18.9066 22.7061 18.4852C24.3506 18.0638 26.0671 18.3104 27.5266 19.1738C28.9965 20.0372 30.0346 21.4248 30.456 23.0694C30.6102 23.6655 30.6821 24.2925 30.6513 24.8989C30.6307 25.3615 30.199 25.7418 29.7673 25.7007C29.3048 25.6801 28.9451 25.2895 28.9656 24.8167C28.9862 24.3747 28.9348 23.9328 28.8217 23.4908C28.5134 22.2779 27.7528 21.2604 26.6735 20.6231C25.5943 19.9858 24.3404 19.8111 23.1275 20.1195C21.9147 20.4278 20.8971 21.1987 20.2598 22.2676C19.6226 23.3366 19.4478 24.6009 19.7562 25.8137C19.9823 26.7182 20.4551 27.4994 21.1232 28.0853C21.4727 28.3936 21.5035 28.9281 21.1952 29.2776C21.0307 29.4626 20.7943 29.5654 20.5579 29.5654H20.5682Z" fill="#B92D2D"/>
<path d="M29.4496 50.5746C29.3057 50.5746 29.1721 50.5438 29.0488 50.4719C17.0128 43.8936 16.5092 31.282 16.4886 30.7475C16.4783 30.3672 16.7147 30.0383 17.0745 29.9149C20.8877 28.7021 22.0903 24.6729 22.1006 24.6318C22.2034 24.2721 22.5323 24.0254 22.9126 24.0254H35.9764C36.3567 24.0254 36.6856 24.2721 36.7884 24.6318C36.8089 24.6935 38.0115 28.7021 41.8145 29.9149C42.164 30.028 42.4004 30.3466 42.4004 30.7167C42.4004 30.8503 42.2565 43.8834 29.8402 50.4719C29.7169 50.5335 29.5833 50.5746 29.4496 50.5746ZM18.2256 31.2923C18.4826 33.7797 20.0758 43.4003 29.4599 48.7656C39.1421 43.39 40.5092 33.7591 40.6942 31.3025C37.3845 29.9663 35.8942 26.9959 35.3905 25.7111H23.519C23.0051 26.9959 21.525 29.9663 18.2256 31.3025V31.2923Z" fill="#B92D2D"/>
<path d="M28.6689 42.0023C28.4736 42.0023 28.2783 41.9304 28.1241 41.807L24.2903 38.6001C23.9305 38.3021 23.8894 37.7676 24.1875 37.4078C24.4856 37.0481 25.02 37.007 25.3798 37.305L28.5044 39.9158L34.6612 31.0455C34.9284 30.6652 35.4526 30.5624 35.8329 30.8296C36.2132 31.0968 36.3057 31.621 36.0487 32.0014L29.3678 41.6323C29.2342 41.8276 29.0183 41.9509 28.7922 41.992C28.7511 41.992 28.7203 41.992 28.6791 41.992L28.6689 42.0023Z" fill="#B92D2D"/>
</svg>
