<?xml version="1.0" encoding="UTF-8"?>
<svg id="Layer_1" data-name="Layer 1" xmlns="http://www.w3.org/2000/svg" xmlns:xlink="http://www.w3.org/1999/xlink" version="1.1" viewBox="0 0 280 43">
  <defs>
    <style>
      .cls-1 {
        fill: url(#linear-gradient);
      }

      .cls-1, .cls-2, .cls-3, .cls-4, .cls-5, .cls-6, .cls-7, .cls-8, .cls-9, .cls-10, .cls-11, .cls-12, .cls-13, .cls-14, .cls-15, .cls-16, .cls-17 {
        stroke-width: 0px;
      }

      .cls-2 {
        fill: url(#linear-gradient-11);
      }

      .cls-3 {
        fill: url(#linear-gradient-12);
      }

      .cls-4 {
        fill: url(#linear-gradient-13);
      }

      .cls-5 {
        fill: url(#linear-gradient-10);
      }

      .cls-6 {
        fill: #000;
      }

      .cls-7 {
        fill: #95d8e6;
      }

      .cls-8 {
        fill: #050606;
      }

      .cls-9 {
        fill: url(#linear-gradient-4);
      }

      .cls-10 {
        fill: url(#linear-gradient-2);
      }

      .cls-11 {
        fill: url(#linear-gradient-3);
      }

      .cls-12 {
        fill: url(#linear-gradient-8);
      }

      .cls-13 {
        fill: url(#linear-gradient-9);
      }

      .cls-14 {
        fill: url(#linear-gradient-7);
      }

      .cls-15 {
        fill: url(#linear-gradient-5);
      }

      .cls-16 {
        fill: url(#linear-gradient-6);
      }

      .cls-17 {
        fill: #231f20;
      }
    </style>
    <linearGradient id="linear-gradient" x1="50" y1="30.5" x2="69.9" y2="30.5" gradientTransform="translate(0 44) scale(1 -1)" gradientUnits="userSpaceOnUse">
      <stop offset="0" stop-color="#d1393f"/>
      <stop offset="1" stop-color="#b52a2a"/>
    </linearGradient>
    <linearGradient id="linear-gradient-2" x1="71.4" x2="94" xlink:href="#linear-gradient"/>
    <linearGradient id="linear-gradient-3" x1="97.8" x2="114.5" xlink:href="#linear-gradient"/>
    <linearGradient id="linear-gradient-4" x1="117.3" x2="135.3" xlink:href="#linear-gradient"/>
    <linearGradient id="linear-gradient-5" x1="137.8" x2="143.4" xlink:href="#linear-gradient"/>
    <linearGradient id="linear-gradient-6" x1="145.8" y1="30.6" x2="165.9" y2="30.6" xlink:href="#linear-gradient"/>
    <linearGradient id="linear-gradient-7" x1="166.1" x2="185.9" xlink:href="#linear-gradient"/>
    <linearGradient id="linear-gradient-8" x1="187.5" x2="205" xlink:href="#linear-gradient"/>
    <linearGradient id="linear-gradient-9" x1="216.4" x2="231.7" xlink:href="#linear-gradient"/>
    <linearGradient id="linear-gradient-10" x1="233.6" x2="239.2" xlink:href="#linear-gradient"/>
    <linearGradient id="linear-gradient-11" x1="242.7" x2="260.7" xlink:href="#linear-gradient"/>
    <linearGradient id="linear-gradient-12" x1="263.2" x2="279.9" xlink:href="#linear-gradient"/>
    <linearGradient id="linear-gradient-13" x1="14.5" y1="13" x2="24.7" y2="13" xlink:href="#linear-gradient"/>
  </defs>
  <path class="cls-1" d="M63.8,21.2l-.8-2.5h-6l-.8,2.5h-6.1l6.7-15.6h6.4l6.8,15.6h-6.1,0ZM60,10l-1.8,5.3h3.6l-1.8-5.3Z"/>
  <path class="cls-10" d="M88.5,21.2v-10l-3.7,10h-4.3l-3.7-9.9v9.9h-5.5V5.7h7.4l3.9,10.2,3.9-10.2h7.4v15.6h-5.5,0Z"/>
  <path class="cls-11" d="M97.8,21.2V5.7h16.5v3.5h-10.9v2.6h10.1v3.5h-10.1v2.5h11.1v3.5h-16.7Z"/>
  <path class="cls-9" d="M129.1,21.2l-3.2-5.7h-3v5.7h-5.6V5.7h11.5c2.1,0,4.1.2,5.4,2.1.3.5.8,1.4.8,2.8s-.2,3.7-3.6,4.4l3.9,6.2h-6.2ZM122.9,12.1h4.2c1.1,0,1.6-.1,2-.6.3-.4.3-.7.3-.9s0-.5-.2-.8c-.4-.6-1-.6-1.6-.6h-4.6v2.9Z"/>
  <path class="cls-15" d="M137.8,21.2V5.7h5.6v15.6h-5.6Z"/>
  <path class="cls-16" d="M160.4,10.8c-.8-1.6-2.3-2.3-3.9-2.3s-2.3,0-3.6,1.4c-.9.9-1.2,2.2-1.2,3.5s.6,2.7,1,3.2c1.2,1.6,2.9,1.6,3.6,1.6,2.3,0,3.8-1.2,4.3-2.6l5.3.6c-.2.6-.6,1.9-1.8,3-2,2-5.3,2.5-8,2.5s-4.6-.6-5.8-1.1c-1.5-.7-4.5-2.7-4.5-7.2s.5-8.5,10.5-8.5,6.7,1.1,8,2.5c.9.9,1.2,2,1.3,2.4l-5.2.9h0Z"/>
  <path class="cls-14" d="M179.9,21.2l-.8-2.5h-6l-.8,2.5h-6.1l6.7-15.6h6.4l6.8,15.6h-6.1,0ZM176,10l-1.8,5.3h3.6l-1.8-5.3Z"/>
  <path class="cls-12" d="M200.4,21.2l-7.4-8.3v8.3h-5.5V5.7h4.6l7.4,8.2V5.7h5.5v15.6h-4.6,0Z"/>
  <path class="cls-13" d="M222,9.2v3h8.9v3.5h-8.9v5.6h-5.6V5.7h15.3v3.5h-9.7Z"/>
  <path class="cls-5" d="M233.6,21.2V5.7h5.6v15.6h-5.6Z"/>
  <path class="cls-2" d="M254.5,21.2l-3.2-5.7h-3v5.7h-5.6V5.7h11.5c2.1,0,4.1.2,5.4,2.1.3.5.8,1.4.8,2.8s-.2,3.7-3.6,4.4l3.9,6.2h-6.2ZM248.4,12.1h4.2c1.1,0,1.6-.1,2-.6.3-.4.3-.7.3-.9s0-.5-.2-.8c-.4-.6-1-.6-1.6-.6h-4.6v2.9Z"/>
  <path class="cls-3" d="M263.2,21.2V5.7h16.5v3.5h-10.9v2.6h10.1v3.5h-10.1v2.5h11.1v3.5h-16.7Z"/>
  <path class="cls-17" d="M50,26h6.8c1,0,2.7.1,3.6,1.5.4.5.5,1.2.5,1.9s0,1.6-1.1,2.4c-.9.7-1.9.7-3.1.7h-5.2v4.3h-1.6v-10.8ZM56.5,31.2c.8,0,1.8,0,2.3-.7.2-.2.4-.6.4-1.2s0-.7-.4-1.2c-.6-.8-1.6-.8-2.5-.8h-4.8v3.9h5Z"/>
  <path class="cls-17" d="M74.2,36.8l-3.7-4.3h-5.2v4.3h-1.5v-10.8h7.4c.9,0,1.3,0,1.7.2,1.5.4,2.3,1.5,2.3,3s-.1,2.1-1.7,2.8c-.3.1-.6.2-1.2.3l4,4.6h-2ZM70.7,31.2c.9,0,1.9,0,2.5-.8.2-.2.4-.5.4-1.2s0-.6-.3-1.1c-.5-.8-1.2-.9-2-.9h-5.9v3.9h5.3Z"/>
  <path class="cls-17" d="M85,37.1c-4,0-6.6-2-6.6-5.6s3.1-5.8,6.5-5.8,6.6,1.7,6.6,5.8-2.3,5.5-6.5,5.5h0ZM84.9,27.1c-2.6,0-5,1.3-5,4.4s1.9,4.3,5.1,4.3,4.9-2.2,4.9-4.4-1.3-4.3-5.1-4.3Z"/>
  <path class="cls-17" d="M98.5,27.3v9.5h-1.5v-9.5h-4.4v-1.3h10.4v1.3h-4.4Z"/>
  <path class="cls-17" d="M105.6,36.8v-10.8h10v1.3h-8.4v3.2h8.2v1.3h-8.2v3.6h8.8v1.3h-10.4Z"/>
  <path class="cls-17" d="M131.4,33.8c-1.3,2.6-4,3.2-6.3,3.2-3.7,0-6.5-1.9-6.5-5.7s2.4-5.6,6.5-5.6,4.8.9,6.1,3.1l-1.6.4c-.8-1.6-2.6-2.1-4.4-2.1s-5,1.1-5,4.3,2.2,4.4,5.1,4.4,3.5-.4,4.4-2.2l1.6.3h0Z"/>
  <path class="cls-17" d="M138.4,27.3v9.5h-1.5v-9.5h-4.4v-1.3h10.4v1.3h-4.4Z"/>
  <path class="cls-17" d="M145.4,36.8v-10.8h1.6v10.8h-1.6Z"/>
  <path class="cls-17" d="M157,37.1c-4,0-6.6-2-6.6-5.6s3.1-5.8,6.5-5.8,6.6,1.7,6.6,5.8-2.3,5.5-6.5,5.5h0ZM157,27.1c-2.6,0-5,1.3-5,4.4s1.9,4.3,5.1,4.3,4.9-2.2,4.9-4.4-1.3-4.3-5.1-4.3Z"/>
  <path class="cls-17" d="M176.9,36.8l-8.5-8.9s0,8.1,0,8.9h-1.5v-10.8h1.6l8.4,8.9s0-8.4,0-8.9h1.5v10.8h-1.5Z"/>
  <path class="cls-17" d="M188.7,34c.4.4.7.8,1.7,1.2,1.2.5,2.6.5,3.1.5s1.9,0,2.9-.7c.6-.5.7-1.2.7-1.5,0-1.4-1.5-1.6-2.8-1.7l-1.6-.2c-2.1-.2-3.1-.3-3.9-1-.7-.7-.8-1.4-.8-1.8,0-1.5,1-2.2,1.5-2.4.6-.4,1.8-.7,3.6-.7,3.3,0,4.7,1.2,5.4,2.2l-1.4.6c-1-.9-2-1.5-4-1.5s-3.6.4-3.6,1.8,1.1,1.3,2.2,1.5l3.3.3c2.2.2,3.5,1.2,3.5,3s-1.1,3.5-5.3,3.5-5-.7-6.1-2.4l1.4-.6h0Z"/>
  <path class="cls-17" d="M206.8,32.6v4.2h-1.5v-4.2l-5.4-6.6h2l4.2,5.3,4.3-5.3h2l-5.5,6.6Z"/>
  <path class="cls-17" d="M214.4,34c.4.4.7.8,1.7,1.2,1.2.5,2.6.5,3.1.5s1.9,0,2.9-.7c.6-.5.7-1.2.7-1.5,0-1.4-1.5-1.6-2.8-1.7l-1.6-.2c-2.1-.2-3.1-.3-3.9-1-.7-.7-.8-1.4-.8-1.8,0-1.5,1-2.2,1.5-2.4.6-.4,1.8-.7,3.6-.7,3.3,0,4.7,1.2,5.4,2.2l-1.4.6c-1-.9-2-1.5-4-1.5s-3.6.4-3.6,1.8,1.1,1.3,2.2,1.5l3.3.3c2.2.2,3.5,1.2,3.5,3s-1.1,3.5-5.3,3.5-5-.7-6.1-2.4l1.4-.6Z"/>
  <path class="cls-17" d="M231.7,27.3v9.5h-1.5v-9.5h-4.4v-1.3h10.4v1.3h-4.4Z"/>
  <path class="cls-17" d="M238.8,36.8v-10.8h10v1.3h-8.4v3.2h8.2v1.3h-8.2v3.6h8.8v1.3h-10.4Z"/>
  <path class="cls-17" d="M264.1,36.8c0-.6,0-9.3,0-9.3l-4.4,9.3h-1.4l-4.4-9.3s0,8.9,0,9.3h-1.4v-10.8h2.1l4.4,9.1,4.4-9.1h2.1v10.8h-1.5,0Z"/>
  <path class="cls-17" d="M270,34c.4.4.7.8,1.7,1.2,1.2.5,2.6.5,3.1.5s1.9,0,2.9-.7c.6-.5.7-1.2.7-1.5,0-1.4-1.5-1.6-2.8-1.7l-1.6-.2c-2.1-.2-3.1-.3-3.9-1-.7-.7-.8-1.4-.8-1.8,0-1.5,1-2.2,1.5-2.4.6-.4,1.8-.7,3.6-.7,3.3,0,4.7,1.2,5.4,2.2l-1.4.6c-1-.9-2-1.5-4-1.5s-3.6.4-3.6,1.8,1.1,1.3,2.2,1.5l3.4.3c2.2.2,3.5,1.2,3.5,3s-1.1,3.5-5.3,3.5-5-.7-6.1-2.4l1.4-.6h0Z"/>
  <path class="cls-4" d="M24.7,33.2c0-.5-1.5.2-1.6,0-.3-.5,2-1.5.4-5.1,0,0-.1-.1-.2-.1-.4.1,0,1.8-2,2.6-.1,0-.2,0-.2-.2,1.7-3.9-2.4-7.3-2.2-6.2.5,3.8-4.6,5.4-4.6,8.6s2.3,5.1,5.1,5.1,4.9-2.1,5.1-4.8h0Z"/>
  <path class="cls-8" d="M21.5,13.7c.1.1.2.2.3.3h.4c.2,0,.3,0,.4.3,0,.1.1.3.2.4,0,.1-.1.1-.2.1h-.5c0,0-.1-.1-.2-.2h-.5c0,0,0,.1-.1.2-.2,0-.4,0-.7,0,0,0,0-.1-.2-.2h-.7c0,0-.1.1-.1.2h-.7c0,0,0-.1-.1-.2h-.5c0,0,0,.1-.1.2h-.7s0,0-.1-.1c0-.2.2-.4.3-.6.3-.1.5,0,.7,0,0,0,.2-.2.3-.3,0,0,0,0-.1,0-.5-.3-.9-.6-1.4-.8-.2-.1-.3-.2-.3-.4,0-.3-.1-.6-.2-.9,0-.4-.2-.9-.3-1.3,0-.3-.1-.6-.2-1,0-.3-.1-.7-.2-1,0,0,0-.2,0-.2,0-.4-.2-.8-.2-1.2,0,0,0,0,0,0,0,0-.1,0-.2,0-.4,0-.8,0-1.2,0-.3,0-.6-.2-.7-.6,0-.1,0-.2-.1-.4,0-.1,0-.3,0-.4.1-.1.3,0,.4,0h12.4c.2,0,.3,0,.4.2,0,.1,0,.2,0,.3,0,.1,0,.3-.2.4-.1.3-.3.4-.6.4h-1.5c0,.1,0,.2,0,.3-.1.5-.2,1-.3,1.5-.1.6-.2,1.2-.3,1.7,0,.5-.2.9-.3,1.4,0,.3-.1.6-.2.9,0,0,0,.2,0,.3-.6.4-1.1.7-1.7,1h0ZM22.5,7.7c0,0,0,0-.1,0,0,0-.7,0-.8,0,0,0,0,.1,0,.2,0,.2,0,.4,0,.6,0,.2-.2.4-.4.4,0,0-.2,0-.3,0v3.3c0,.2,0,.4-.2.6,0,0,0,.1,0,.2.2,0,.3.1.5.2,0,0,.1,0,.2-.1.4-.3.8-.6,1.2-1,.1-.1.2-.2.2-.4v-4ZM17.7,7.7v4c0,.2,0,.3.2.5.3.2.6.5.9.7.1.1.3.3.4.3.2-.1.3-.2.5-.3h0c-.2-.3-.2-.5-.2-.8v-3.1c0,0,0-.2,0-.2h-.3c-.2,0-.3-.1-.3-.3,0-.1,0-.2,0-.4,0-.2,0-.4-.1-.6h-.8s0,0-.1,0Z"/>
  <path class="cls-8" d="M26.2,3.8h-12.3v1.7h12.3v-1.7Z"/>
  <path class="cls-7" d="M22.9,14.5c3.4.6,6.8,1.5,10,2.9-3.4-.6-6.8-1.5-10-2.9Z"/>
  <path class="cls-7" d="M22.3,15.1c3.2,1.4,6.2,3.2,8.9,5.4-3.2-1.4-6.2-3.2-8.9-5.4Z"/>
  <path class="cls-7" d="M17.3,14.5c-3.2,1.4-6.6,2.3-10,2.9,3.2-1.4,6.6-2.3,10-2.9Z"/>
  <path class="cls-7" d="M17.8,15.1c-2.7,2.1-5.7,4-8.9,5.4,2.7-2.2,5.7-4,8.9-5.4Z"/>
  <path class="cls-7" d="M19.1,15.9c-.5,1.5-1.3,2.8-2.4,3.9.5-1.5,1.4-2.8,2.4-3.9Z"/>
  <path class="cls-7" d="M20.7,15.9c1.1,1.1,1.9,2.5,2.4,3.9-1.1-1.1-1.9-2.5-2.4-3.9Z"/>
  <path class="cls-6" d="M8.6,29.2c1.4,2.2,3.1,4.1,5.1,5.9,1.7,1.5,3.5,2.7,5.5,3.7.2.1.4.2.6,0,.5-.3,1.1-.6,1.6-.9,1.6-.9,3.1-2,4.4-3.3,1.8-1.7,3.4-3.6,4.8-5.6,0,0,0-.2.1-.4-.6.7-1.2,1.4-1.7,2-1.6,1.8-3.4,3.4-5.3,4.8-1.2.8-2.4,1.6-3.7,2.2-.3.2-.7.2-1,0-.3-.2-.5-.3-.8-.4-2.1-1.1-4-2.5-5.8-4.1-1.3-1.2-2.5-2.4-3.6-3.7l-.5-.4.2.3h0ZM3.6,25.8c1,2.3,2.2,4.5,3.7,6.6,1.6,2.1,3.4,4,5.5,5.6,2.1,1.6,4.3,3,6.7,4.1.1,0,.2,0,.3-.1,1-.5,2-1,3-1.6,2.7-1.5,5-3.5,7.1-5.7,1.4-1.5,2.6-3.1,3.6-4.8.4-.7.8-1.4,1.2-2.1,2.2-4.4,3.7-9,4.2-13.9.2-2.1.3-4.2.2-6.3,0-.4,0-.9,0-1.3,0-.2,0-.4,0-.7,0-.1,0-.2,0-.3,0,0,0-.3,0-.3-.2-.1-.3-.3-.5-.4-.6-.4-1.3-.7-1.9-1.1-1.8-.9-3.8-1.6-5.8-2.1-1.3-.3-2.6-.5-3.8-.8-.6-.1-1.2-.2-1.7-.2-1-.1-2-.3-3-.3-2,0-3.9,0-5.9,0-1.7.1-3.4.3-5.1.6-1.4.3-2.8.6-4.2,1-2,.6-3.9,1.3-5.7,2.4-.4.2-.9.4-1.2.8-.2,2.3,0,4.7,0,7.1.5,4.7,1.7,9.5,3.5,13.8ZM2.4,13.7c-.3-2.4-.3-4.9-.2-7.4v-.2c0,0,.1-.2.2-.2.2-.1.4-.2.6-.4,1.6-.9,3.3-1.5,5.1-2,1.1-.3,2.2-.6,3.3-.8,1.1-.2,2.1-.3,3.2-.4,1.6-.2,3.2-.2,4.8-.3.9,0,1.7,0,2.6,0,1.2,0,2.3.1,3.5.3,1,.1,2,.4,3.1.5,1.4.2,2.7.6,4.1,1,1.2.4,2.4.9,3.6,1.5.3.2.7.3.9.6.1.2,0,1.7,0,2.1,0,.7,0,1.5,0,2.2,0,3.6-.7,7-1.8,10.4-.3.9-.6,1.7-.9,2.5-1.2,3.2-3,6.2-5.2,8.8-1.1,1.3-2.2,2.5-3.5,3.5-1.8,1.5-3.7,2.7-5.7,3.8-.3.1-.5.1-.8,0-.5-.3-1.1-.6-1.6-.9-1.5-.9-2.9-1.8-4.2-3-1.5-1.3-2.9-2.8-4.1-4.4-1.7-2.2-3.1-4.7-4.2-7.2-1.4-3.2-2.2-6.8-2.6-10.3h0ZM3.1,12.5c0-1.9.3-3.7.7-5.4.2,0,.3-.2.4-.2,1-.4,1.9-.8,2.9-1.2.9-.3,1.8-.6,2.8-.8.8-.2,1.7-.4,2.5-.5,1.3-.2,2.5-.4,3.8-.4,1.4,0,2.7-.1,4.1-.1,1.4,0,2.9.1,4.3.3,1.4.2,2.7.4,4.1.7,1.4.3,2.7.7,4,1.2.9.3,1.7.6,2.5,1.1.4,1.8.6,3.5.6,5.4,0-.2.2-.7.2-1,0-.5,0-1.1.1-1.6,0-.6,0-1.3,0-2s0-1.3,0-1.5c0-.2-.4-.3-.6-.4-.3-.1-.6-.3-.8-.4-.5-.3-1.1-.5-1.7-.7-1.4-.5-2.8-.9-4.2-1.2-1.3-.3-2.6-.5-4-.6-1.2,0-2.3-.3-3.5-.3-1.5,0-3.1,0-4.6,0-1.3.1-2.5.2-3.8.4-1.4.2-2.7.5-4.1.8-1.3.3-2.6.7-3.8,1.2-.8.3-1.6.7-2.3,1.2,0,.2,0,.4,0,.5,0,1.6,0,3.2.1,4.9,0,.2,0,.4.1.6h0Z"/>
</svg>