<svg width="238" height="161" viewBox="0 0 238 161" fill="none" xmlns="http://www.w3.org/2000/svg">
<path d="M49.6927 104.189C49.3664 102.903 49.7224 101.854 50.4492 100.819C54.4982 95.0403 58.5028 89.2173 62.5222 83.409C68.9889 74.0685 75.4556 64.7428 81.9222 55.4024C86.9354 48.1753 91.9485 40.9483 96.9765 33.736C100.744 28.3416 104.57 22.9915 108.338 17.5971C111.512 13.0599 114.626 8.47829 117.785 3.92629C118.171 3.36468 118.631 2.81785 119.12 2.34491C120.974 0.556624 122.606 0.497507 124.356 2.33013C125.394 3.4238 126.254 4.70959 127.1 5.96582C129.325 9.30593 131.505 12.6756 133.685 16.0453C138.965 24.1738 144.231 32.3172 149.511 40.4458C155.132 49.0916 160.783 57.7375 166.404 66.3833C173.138 76.714 179.871 87.0447 186.59 97.3754C187.421 98.6464 188.177 99.9765 188.859 101.336C189.156 101.927 189.304 102.652 189.334 103.331C189.408 105.179 188.681 106.184 186.872 106.657C186.086 106.864 185.226 106.908 184.41 106.908C141.68 106.908 98.9491 106.908 56.2187 106.908C55.2547 106.908 54.3054 106.672 53.3414 106.568C51.6654 106.406 50.5382 105.46 49.6927 104.174V104.189ZM52.3773 103.125C52.6146 104.735 55.6848 104.795 56.9455 104.795C66.0819 104.795 75.2183 104.795 84.3398 104.795C117.326 104.795 150.297 104.795 183.283 104.795C184.454 104.795 185.641 104.868 186.783 104.115C186.976 103.272 186.946 102.43 186.368 101.632C185.967 101.07 185.685 100.435 185.3 99.8435C180.035 91.7741 174.754 83.7342 169.504 75.6647C165.01 68.7628 160.575 61.8166 156.081 54.8999C150.341 46.0767 144.572 37.2682 138.817 28.445C133.774 20.7303 128.746 13.0155 123.718 5.28598C123.214 4.51746 122.724 3.7785 121.568 3.4238C121.049 3.94107 120.396 4.44356 119.936 5.09385C116.006 10.6361 112.12 16.1931 108.234 21.75C103.473 28.5633 98.7415 35.3913 93.9953 42.2193C88.7004 49.8454 83.4054 57.4567 78.1105 65.0828C72.9045 72.5906 67.6985 80.1133 62.4777 87.6211C59.8673 91.375 57.257 95.129 54.6614 98.8829C53.9495 99.9174 52.7333 101.233 52.4218 102.459C52.3625 102.696 52.3476 102.918 52.3773 103.11V103.125Z" fill="#AC202D"/>
<path d="M173.82 116.042V118.539C173.197 118.879 172.619 119.19 172.1 119.47C170.898 119.16 169.919 118.776 169.741 117.564C169.578 116.426 170.453 115.864 171.506 115.17C172.174 115.421 172.975 115.716 173.82 116.042Z" fill="#102C52"/>
<path d="M106.691 115.125C107.418 115.45 108.145 115.761 108.768 116.027C109.094 117.948 108.619 118.997 107.388 119.367C106.588 119.603 105.46 119.012 105.015 118.125C104.526 117.15 104.823 116.544 106.706 115.14L106.691 115.125Z" fill="#102C52"/>
<path d="M73.5275 80.4827C73.1864 79.2117 73.6907 78.3397 74.3136 77.453C77.5914 72.7236 80.8099 67.9795 84.0877 63.2501C89.3679 55.6241 94.6628 47.998 99.9726 40.3867C103.428 35.4504 106.958 30.5585 110.399 25.6222C113.173 21.6466 115.887 17.6266 118.601 13.6067C119.447 12.3505 120.381 11.3011 122.042 11.1533C123.14 11.4489 123.867 12.2174 124.504 13.1929C129.073 20.2278 133.656 27.2331 138.239 34.2533C143.608 42.5001 148.977 50.7321 154.331 58.9937C158.247 65.0384 162.118 71.1127 166.048 77.1426C166.671 78.1033 167.146 79.0491 167.131 80.1871C166.567 81.7685 165.232 82.1084 163.823 82.3006C163.349 82.3597 162.845 82.3006 162.355 82.3006C134.605 82.3006 106.855 82.3006 79.1043 82.2858C78.0067 82.2858 76.9092 82.0789 75.8116 81.9163C74.892 81.7685 74.1208 81.2956 73.5275 80.4827ZM126.952 70.7876C130.066 69.1027 132.484 66.9597 134.442 64.2847C136.192 61.8904 136.993 59.1267 136.904 56.3039C136.815 53.7914 136.192 51.279 134.976 48.9438C133.552 46.2097 131.876 43.6972 129.725 41.5099C129.102 40.8596 128.435 40.2389 128.331 39.3078C128.598 38.4949 129.221 38.4949 129.873 38.5097C132.172 38.5097 134.471 38.5245 136.77 38.5097C137.364 38.5097 138.046 38.7314 138.595 37.9333C137.779 36.6771 136.904 35.3765 136.088 34.0316C135.628 33.2631 135.005 32.864 134.115 32.6867C131.535 32.1842 128.969 31.6226 126.403 31.0314C125.365 30.7802 124.371 30.3663 122.843 29.8491H118.334C114.79 31.7556 110.829 31.6374 107.181 32.997C106.039 34.6228 104.852 36.3076 103.488 38.2289C104.229 38.3471 104.748 38.4949 105.253 38.4949C107.7 38.5245 110.132 38.4949 112.58 38.5245C113.039 38.5245 113.484 38.6723 113.87 38.7314C114.167 39.559 113.959 40.0911 113.484 40.5936C112.55 41.6133 111.601 42.6331 110.74 43.712C107.922 47.2294 105.831 51.0129 105.549 55.6832C105.297 59.91 106.588 63.4423 109.539 66.3686C111.007 67.8169 112.698 69.0288 114.434 70.4624C114.567 72.5611 114.33 74.911 114.567 77.2313H126.952V70.7876Z" fill="#AC202D"/>
<path d="M107.092 101.72C105.549 102.12 104.244 101.913 102.85 101.927C102.39 100.982 101.945 100.065 101.456 99.075H95.0335C94.6479 100.021 94.2919 100.908 93.9063 101.868H89.6941C91.8744 96.3852 94.2178 91.1386 96.4277 85.7737H100.269C102.805 90.8725 104.659 96.3556 107.077 101.735L107.092 101.72ZM96.2646 95.5132H100.373C99.7056 93.6806 99.1123 92.0401 98.3855 90.0006C97.5994 92.0401 96.9765 93.6806 96.2794 95.5132H96.2646Z" fill="#102C52"/>
<path d="M145.521 98.9568H139.262C138.847 99.9027 138.461 100.834 138.016 101.839H133.893C135.999 96.2522 138.328 90.9908 140.701 85.7294H144.394C146.811 90.843 148.828 96.267 151.246 101.661C149.837 102.208 148.487 101.794 147.123 101.957C146.544 100.893 146.025 99.9322 145.491 98.942L145.521 98.9568ZM144.542 95.5428C143.904 93.7397 143.311 92.0844 142.584 90.0597C141.783 92.0549 141.116 93.7249 140.374 95.5428H144.542Z" fill="#102C52"/>
<path d="M133.033 87.429C132.157 88.1384 131.371 88.7887 130.437 89.5424C129.443 88.4192 127.93 88.3305 126.151 88.7443C125.898 89.2025 125.617 89.7197 125.365 90.1927C125.884 91.4194 126.892 91.6706 127.886 91.9957C129.666 92.5869 131.475 93.1633 132.662 94.9812C133.329 96.2226 133.033 97.6562 132.78 99.075C131.03 103.494 123.244 103.213 120.781 99.9765C121.523 99.2671 122.265 98.5577 123.125 97.7301C123.659 98.0109 124.237 98.4099 124.86 98.5873C125.706 98.8238 126.61 98.9863 127.485 98.9863C128.361 98.9863 128.954 98.3213 129.058 97.5823C129.161 96.7694 128.702 96.2522 128.079 95.8975C127.604 95.6314 127.055 95.4984 126.536 95.3063C125.75 95.0255 124.949 94.8038 124.193 94.4639C120.722 92.8529 120.663 88.4931 123.436 86.4535C125.795 84.7096 131.09 84.7539 133.018 87.429H133.033Z" fill="#102C52"/>
<path d="M118.824 92.3209V95.6019H112.461V101.824H108.694V85.7589H119.239C119.595 86.7491 119.432 87.7541 119.343 88.9364H112.669C112.179 90.104 112.505 91.109 112.372 92.3061H118.809L118.824 92.3209Z" fill="#102C52"/>
<path d="M126.002 67.5805C125.112 66.1321 124.4 64.9645 123.614 63.6935H118.23C117.519 64.8167 116.718 66.0878 115.872 67.4474C113.054 65.5853 110.637 63.6048 109.628 60.3386C108.916 58.0183 108.961 55.6832 109.554 53.3924C110.147 51.0573 110.993 48.7813 112.357 46.727C113.692 44.7318 115.383 43.3277 117.86 42.8105C118.201 43.0321 118.586 43.2982 119.031 43.5938C120.663 43.3868 122.472 44.1406 123.985 42.7809C127.767 43.7415 129.651 46.5939 131.104 49.8306C132.247 52.4022 132.602 55.1068 132.513 57.9296C132.439 60.4421 131.535 62.526 129.814 64.2551C128.702 65.3783 127.426 66.339 125.987 67.5657L126.002 67.5805ZM123.169 61.2845C123.155 56.1265 123.229 51.2494 123.125 46.3279C121.553 46.0176 120.233 45.9437 118.913 46.3279C118.497 48.7074 118.601 59.8509 119.046 61.2845H123.169Z" fill="#102C52"/>
<path d="M109.064 35.6869C109.42 34.5932 110.459 34.608 111.274 34.4454C113.766 33.9281 116.273 33.3961 118.809 33.1448C120.5 32.9823 122.205 32.9084 123.956 33.3961C125.928 33.9577 128.049 34.0464 130.096 34.4011C131.06 34.5636 132.247 34.4306 132.677 35.7164C131.016 36.1302 110.696 36.1155 109.079 35.6869H109.064Z" fill="#102C52"/>
<path d="M122.799 41.8055H119.18C118.868 40.6675 118.572 39.559 118.23 38.3176C119.995 37.9185 121.701 38.1402 123.6 38.1698C123.318 39.4704 123.066 40.6231 122.799 41.8055Z" fill="#102C52"/>
<path d="M78.8521 132.432H75.3369C74.3729 129.742 75.7522 126.83 74.4173 124.362C72.4447 124.259 71.8663 124.658 71.718 126.284C71.6141 127.525 71.6883 128.766 71.6586 130.008C71.6438 130.747 71.5696 131.486 71.5103 132.402H67.6096C67.5206 129.801 67.4464 127.229 67.3574 124.776C65.3551 123.934 64.4207 124.362 64.2427 126.151C64.1093 127.451 64.2131 128.766 64.1686 130.082C64.1537 130.821 64.0796 131.56 64.0203 132.432H60.4458V121.628C62.2998 120.86 63.071 120.919 64.3762 121.983C67.1053 120.268 68.2622 120.313 70.9022 122.131C71.9553 121.672 72.9193 121.052 73.9724 120.86C76.5383 120.401 78.6296 121.924 78.8224 124.495C79.0004 127.037 78.8669 129.594 78.8669 132.432H78.8521Z" fill="#102C52"/>
<path d="M59.1406 132.476H54.7058C54.1867 131.515 53.6973 130.629 53.1782 129.683H47.2751C46.8153 130.584 46.3852 131.442 45.8809 132.432H41.55C43.8638 126.934 46.0737 121.687 48.2985 116.396H52.4218C54.602 121.628 56.7971 126.875 59.1257 132.491L59.1406 132.476ZM50.5085 121.732C50.3453 121.717 50.1673 121.687 50.0042 121.672C49.5592 123.062 49.0994 124.436 48.5952 125.988H52.0806C51.5022 124.407 51.0127 123.062 50.5233 121.732H50.5085Z" fill="#102C52"/>
<path d="M114.819 152.591C114.33 153.61 113.87 154.527 113.366 155.576H109.139C111.23 149.916 113.647 144.698 115.932 139.304H119.936C122.146 144.625 124.356 149.93 126.699 155.561H122.265C121.82 154.645 121.345 153.669 120.811 152.605H114.819V152.591ZM118.067 144.817C117.889 144.802 117.726 144.772 117.548 144.758C117.044 146.162 116.525 147.58 115.946 149.191H119.728C119.106 147.566 118.586 146.191 118.052 144.817H118.067Z" fill="#102C52"/>
<path d="M19.7474 155.251V161H15.7725V144.477C17.3595 143.841 18.7388 143.974 20.0589 144.654C23.2773 143.442 25.7098 143.738 27.2078 145.526C29.1211 147.802 29.3287 151.172 27.7417 153.625C26.214 155.975 24.2266 156.404 19.7622 155.251H19.7474ZM24.805 149.886C24.7754 148.142 23.663 146.974 22.1353 147.078C20.7114 147.167 19.7326 148.349 19.7474 149.96C19.7622 151.674 20.8746 152.827 22.4171 152.753C23.8855 152.679 24.8199 151.541 24.7902 149.901L24.805 149.886Z" fill="#102C52"/>
<path d="M0.999939 153.566C1.71187 152.798 2.45345 152.014 3.20988 151.201C4.9452 151.866 6.36905 153.536 8.31201 152.384C8.80146 152.088 9.0536 151.394 9.55788 150.655C8.51966 150.063 7.7929 149.59 6.99198 149.221C6.36905 148.925 5.67195 148.792 5.01936 148.541C3.12089 147.832 1.84535 146.59 1.69703 144.462C1.54872 142.216 2.51278 140.634 4.52991 139.6C7.08097 138.284 11.664 138.772 13.34 141.092C12.6429 141.831 11.9161 142.615 11.1894 143.368C9.48373 142.895 7.97088 141.698 6.30972 142.925C5.62746 144.078 6.2059 144.772 7.21446 145.231C8.1637 145.659 9.17226 145.94 10.1363 146.339C12.3463 147.241 13.5476 148.896 13.4883 150.861C13.429 153.093 12.0793 154.926 9.88418 155.724C6.82883 156.847 2.95774 155.975 0.985107 153.581L0.999939 153.566Z" fill="#102C52"/>
<path d="M61.6768 155.517V138.403H65.3699C65.6517 141.506 65.355 144.669 65.5775 148.379C66.9717 146.753 68.0544 145.497 69.1668 144.196H73.7943C72.2667 146.088 71.006 147.669 69.6118 149.398C70.9763 151.349 72.3408 153.285 73.9427 155.561H69.1371C68.0841 154.083 67.0014 152.591 65.9335 151.083C65.8 151.098 65.6813 151.127 65.5479 151.142V155.532H61.6768V155.517Z" fill="#102C52"/>
<path d="M161.005 132.432H157.179V116.455C160.664 116.056 164.105 116.263 167.754 116.337V119.677H161.361V122.855H167.324V126.239H161.361C161.228 128.486 161.109 130.422 160.99 132.432H161.005Z" fill="#102C52"/>
<path d="M224.07 149.827C224.1 153.448 221.326 156.123 217.529 156.123C213.851 156.123 211.063 153.507 211.003 149.989C210.944 146.369 213.747 143.679 217.559 143.723C221.356 143.767 224.055 146.295 224.07 149.827ZM220.169 149.827C220.125 148.305 218.82 147.004 217.396 147.078C216.076 147.152 214.919 148.482 214.934 149.916C214.934 151.512 216.15 152.783 217.618 152.738C219.146 152.694 220.229 151.453 220.184 149.827H220.169Z" fill="#102C52"/>
<path d="M162.147 149.93C162.147 153.492 159.448 156.093 155.755 156.123C152.032 156.138 149.11 153.389 149.11 149.871C149.11 146.339 152.032 143.664 155.814 143.738C159.611 143.812 162.147 146.295 162.133 149.93H162.147ZM153.263 149.886C153.263 151.66 154.212 152.768 155.77 152.753C157.268 152.753 158.321 151.526 158.291 149.842C158.261 148.231 157.105 147.034 155.607 147.078C154.183 147.122 153.278 148.216 153.263 149.886Z" fill="#102C52"/>
<path d="M93.6393 150.994H85.8526C86.9353 153.389 88.018 153.581 90.9844 152.044C91.6815 152.502 92.4676 153.019 93.224 153.507C93.0609 153.906 93.046 154.142 92.9125 154.275C90.9992 156.212 88.6558 156.448 86.1641 155.842C83.6872 155.236 82.1891 153.581 81.7442 151.127C81.2992 148.63 82.0557 146.369 84.1321 144.891C86.2679 143.383 88.73 143.354 91.0586 144.492C93.0312 145.452 94.0249 147.965 93.6096 150.98L93.6393 150.994ZM90.0055 148.379C89.872 146.93 89.0266 146.605 87.9884 146.62C86.9353 146.62 86.1492 147.004 85.9861 148.379H90.0203H90.0055Z" fill="#102C52"/>
<path d="M47.557 144.093C48.788 144.166 50.1229 144.24 51.4429 144.329C51.4429 144.388 51.4133 144.447 51.3984 144.521C52.407 144.329 53.4155 144.019 54.4389 143.989C56.723 143.9 58.0579 144.832 58.488 147.019C59.0516 149.797 58.6512 152.605 58.7105 155.576H55.1509C54.5428 153.758 54.9136 151.97 54.8394 150.211C54.7801 148.94 54.6911 147.713 53.3117 147.137C51.5467 147.728 51.2501 148.053 51.2056 149.738C51.1611 151.586 51.2056 153.448 51.2056 155.532H47.6163C46.8896 154.054 46.7857 146.472 47.5718 144.122L47.557 144.093Z" fill="#102C52"/>
<path d="M85.2001 128.013C86.5201 130.274 87.2617 130.392 90.4505 129.062C91.1624 129.476 91.993 129.934 92.8088 130.407C91.118 133.097 87.2469 133.865 84.1915 132.284C81.062 130.673 80.6615 127.082 81.5811 124.554C82.649 121.599 86.179 120.091 89.3678 120.978C91.5926 121.584 94.0695 124.525 93.0016 128.028H85.2001V128.013ZM89.6941 125.264C88.997 123.83 88.2109 123.254 87.0392 123.535C86.1493 123.742 85.4374 124.17 85.4819 125.264H89.7089H89.6941Z" fill="#102C52"/>
<path d="M194.214 129.018C195 129.461 195.756 129.904 196.513 130.348C195.148 132.934 191.574 133.806 188.4 132.491C185.255 131.175 184.306 127.939 185.329 124.614C186.234 121.672 189.853 120.062 193.057 120.963C195.816 121.746 197.492 124.628 196.898 127.821C194.392 128.382 191.737 127.717 189.141 128.205C190.165 130.274 191.069 130.437 194.214 129.033V129.018ZM193.294 125.264C193.086 124.008 192.419 123.505 191.425 123.476C190.313 123.446 189.468 123.934 188.993 125.264H193.294Z" fill="#102C52"/>
<path d="M144.616 132.417C143.934 129.653 145.017 126.919 143.637 124.54C141.65 124.022 140.864 124.466 140.73 126.254C140.641 127.481 140.715 128.737 140.686 129.978C140.671 130.717 140.597 131.456 140.552 132.402H136.681C136.34 128.766 136.562 125.116 136.562 121.48C138.224 121.052 139.559 120.889 140.775 121.85C140.908 121.82 141.057 121.82 141.16 121.761C145.061 119.603 148.131 121.303 148.25 125.722C148.309 127.909 148.25 130.082 148.25 132.432H144.601L144.616 132.417Z" fill="#102C52"/>
<path d="M125.112 124.643C124.578 124.067 124.059 123.535 123.466 122.914C125.424 120.579 127.901 120.534 130.393 120.933C132.439 121.259 133.359 122.751 133.759 124.687C134.278 127.229 133.952 129.742 133.997 132.417H129.681C128.806 132.565 127.723 132.919 126.64 132.919C124.415 132.919 122.902 131.56 122.739 129.653C122.591 127.88 123.837 126.343 125.913 125.87C127.248 125.574 128.598 125.412 130.007 125.19C128.969 123.431 128.672 123.402 125.098 124.658L125.112 124.643ZM126.462 129.195C127.219 130.422 128.153 130.54 129.191 129.964C129.948 129.55 130.467 128.929 129.829 127.983C128.539 127.88 127.293 127.658 126.477 129.18L126.462 129.195Z" fill="#102C52"/>
<path d="M193.502 155.739C191.974 155.635 190.788 155.561 189.987 155.517C188.222 155.65 186.783 155.975 185.404 155.812C183.624 155.591 182.482 154.187 182.348 152.62C182.23 151.127 183.09 149.856 184.825 149.191C185.656 148.881 186.575 148.748 187.45 148.556C188.118 148.408 188.771 148.275 189.497 148.127C188.474 146.383 187.999 146.339 184.751 147.802C184.232 147.285 183.639 146.694 182.986 146.043C184.588 143.871 186.724 143.723 188.771 143.827C191.989 143.989 193.354 145.482 193.487 148.704C193.576 150.906 193.502 153.108 193.502 155.768V155.739ZM189.809 150.994C186.872 150.551 186.16 151.039 186.724 152.96C188.904 153.344 189.215 153.152 189.809 150.994Z" fill="#102C52"/>
<path d="M237.893 155.62H234.2C234.111 154.985 233.978 154.408 233.963 153.817C233.918 152.369 233.993 150.921 233.918 149.472C233.859 148.334 233.622 147.241 232.139 147.093C230.789 147.492 230.329 148.452 230.329 149.753C230.329 151.467 230.285 153.197 230.255 154.911C230.255 155.044 230.151 155.162 230.003 155.517H226.577V144.373C228.06 143.96 229.38 143.723 230.492 144.905C231.16 144.595 231.753 144.152 232.406 144.048C235.135 143.62 237.671 144.063 237.893 148.172C238.012 150.566 237.923 152.96 237.923 155.606L237.893 155.62Z" fill="#102C52"/>
<path d="M126.759 154.054C127.426 153.359 127.99 152.768 128.375 152.354C129.74 152.62 130.852 152.886 131.98 153.019C132.187 153.049 132.469 152.517 132.944 151.985C131.831 151.556 130.971 151.187 130.081 150.876C127.93 150.137 127.144 149.177 127.263 147.344C127.367 145.541 128.524 144.373 130.63 143.96C132.825 143.531 134.887 143.753 137.037 145.452C136.177 146.162 135.48 146.753 134.768 147.359C133.567 147.27 132.38 145.866 131.03 147.477C131.446 147.787 131.772 148.127 132.158 148.29C132.869 148.571 133.626 148.704 134.338 148.984C135.821 149.546 136.815 150.581 136.815 152.236C136.815 153.891 135.776 154.881 134.382 155.561C131.98 156.714 128.672 156.123 126.744 154.054H126.759Z" fill="#102C52"/>
<path d="M139.573 152.059C140.923 152.827 142.035 153.64 143.756 152.679C143.37 152.192 143.118 151.645 142.688 151.423C142.095 151.098 141.368 151.024 140.715 150.802C139.381 150.344 138.417 149.546 138.209 148.068C138.001 146.605 138.683 145.541 139.811 144.699C141.902 143.147 145.803 143.546 147.805 145.748C147.197 146.354 146.589 146.974 146.114 147.447C144.196 146.896 142.831 146.901 142.021 147.462C142.436 147.758 142.762 148.083 143.148 148.246C143.904 148.571 144.75 148.748 145.491 149.088C148.25 150.388 148.517 153.448 146.055 155.207C143.845 156.788 139.811 156.315 137.734 154.098C138.298 153.463 138.876 152.827 139.588 152.044L139.573 152.059Z" fill="#102C52"/>
<path d="M196.409 147.507C195.741 147.152 195.267 146.901 194.733 146.62V144.536C195.252 144.24 195.712 143.974 196.186 143.708C196.32 142.94 196.453 142.201 196.602 141.299H200.176C200.384 142.156 200.562 142.94 200.769 143.812C201.422 143.974 202.089 144.122 202.979 144.329C203.009 145.083 203.053 145.851 203.083 146.694C202.253 146.901 201.6 147.063 200.725 147.27V152.472C201.437 152.694 202.089 152.901 202.846 153.137V155.251C199.434 157.054 196.602 155.532 196.424 151.94C196.349 150.507 196.424 149.058 196.424 147.477L196.409 147.507Z" fill="#102C52"/>
<path d="M174.74 145.497C174.042 146.309 173.419 147.034 172.767 147.787C171.135 147.019 169.623 146.59 168.466 148.349C167.828 149.31 167.813 150.728 168.525 151.66C169.712 153.197 171.18 152.812 172.826 152.103C173.449 152.886 174.057 153.669 174.665 154.438C172.174 156.714 167.843 156.596 165.633 154.32C163.23 151.837 163.26 147.979 165.692 145.556C167.991 143.265 172.277 143.132 174.74 145.497Z" fill="#102C52"/>
<path d="M121.983 122.515C121.301 123.269 120.707 123.919 120.084 124.599C118.512 124.347 116.836 123.476 115.709 125.308C115.071 126.328 114.982 127.422 115.65 128.441C116.792 130.156 118.453 129.52 120.144 129.18C120.737 129.89 121.345 130.599 121.938 131.309C119.714 133.688 115.294 133.703 113.01 131.353C110.414 128.693 110.548 125.293 112.743 122.722C114.893 120.209 119.387 120.076 121.968 122.5L121.983 122.515Z" fill="#102C52"/>
<path d="M75.6928 138.373H79.1635V155.561H75.8412C75.3072 154.039 75.1737 141.092 75.6928 138.373Z" fill="#102C52"/>
<path d="M100.18 155.576H96.1755C96.1755 151.748 95.7009 148.098 96.22 144.418C97.8219 143.915 99.1864 143.812 100.225 144.698C101.411 144.388 102.435 144.107 103.74 143.767V147.019C101.367 147.738 100.18 149.329 100.18 151.793C100.18 152.96 100.18 154.113 100.18 155.576Z" fill="#102C52"/>
<path d="M95.5823 121.052C97.2583 121.229 98.4893 121.347 99.7352 121.48C100.803 121.377 101.782 120.328 103.295 121.155V123.948C102.835 124.067 102.464 124.17 102.079 124.274C100.343 124.717 99.7945 125.352 99.75 127.185C99.7056 128.885 99.75 130.584 99.75 132.432H95.7158C95.4192 128.752 95.5971 125.16 95.5971 121.052H95.5823Z" fill="#102C52"/>
<path d="M180.732 132.461H176.875C176.475 128.752 176.712 125.146 176.712 121.525C178.344 120.933 179.693 120.948 180.999 121.85C182.007 121.318 182.897 120.313 184.44 121.229C184.395 122.027 184.351 122.943 184.306 123.904C183.772 124.067 183.386 124.17 183.001 124.288C181.31 124.82 180.91 125.323 180.85 127.111C180.791 128.811 180.776 130.51 180.732 132.461Z" fill="#102C52"/>
<path d="M31.1678 144.329C32.6955 144.033 34.0303 143.664 34.9944 144.713C36.1958 144.403 37.2785 144.107 38.554 143.767V147.063C38.1387 147.196 37.8866 147.3 37.6196 147.374C35.4987 147.876 34.9944 148.452 34.9647 150.64C34.9351 152.206 34.9647 153.788 34.9647 155.546H31.153V144.329H31.1678Z" fill="#102C52"/>
<path d="M179.96 144.299C180.598 146.236 180.583 153.714 179.916 155.561H176.401V144.299H179.96Z" fill="#102C52"/>
<path d="M105.164 121.273H108.768C109.079 124.998 108.901 128.604 108.901 132.432C107.566 132.491 106.498 132.55 105.505 132.594C104.674 131.102 104.481 124.096 105.178 121.273H105.164Z" fill="#102C52"/>
<path d="M40.3339 144.255H44.0715V155.517H40.4822C40.0521 151.881 40.3191 148.231 40.3191 144.255H40.3339Z" fill="#102C52"/>
<path d="M204.878 155.753V144.299H208.467V155.606C207.31 155.65 206.242 155.709 204.878 155.768V155.753Z" fill="#102C52"/>
<path d="M173.612 132.432H170.068V121.318H173.612V132.432Z" fill="#102C52"/>
<path d="M178.181 138.506C179.426 138.506 180.39 139.304 180.45 140.427C180.524 141.551 179.456 142.674 178.27 142.718C177.113 142.762 175.956 141.669 175.985 140.531C176.015 139.422 176.979 138.521 178.181 138.521V138.506Z" fill="#102C52"/>
<path d="M206.658 138.506C207.978 138.506 209.001 139.437 208.942 140.619C208.897 141.684 207.859 142.659 206.747 142.703C205.634 142.748 204.448 141.61 204.462 140.501C204.462 139.393 205.441 138.506 206.658 138.506Z" fill="#102C52"/>
<path d="M106.869 119.633C105.653 119.662 104.748 118.85 104.689 117.667C104.63 116.411 105.564 115.406 106.81 115.406C108.011 115.406 108.931 116.234 109.005 117.401C109.079 118.672 108.174 119.618 106.869 119.648V119.633Z" fill="#102C52"/>
<path d="M171.922 115.391C173.078 115.45 174.057 116.455 174.028 117.564C173.998 118.687 172.989 119.618 171.818 119.618C170.557 119.618 169.504 118.539 169.608 117.357C169.712 116.263 170.794 115.332 171.922 115.376V115.391Z" fill="#102C52"/>
<path d="M40.0076 140.723C40.7343 138.875 41.3869 138.358 42.6328 138.536C43.7007 138.698 44.4571 139.452 44.4719 140.442C44.4868 141.551 43.849 142.23 42.8404 142.57C41.6687 142.984 40.9865 142.541 40.0076 140.723Z" fill="#102C52"/>
</svg>
