<svg width="28" height="18" viewBox="0 0 28 18" fill="none" xmlns="http://www.w3.org/2000/svg">
<path d="M27.6729 0.0583562V2.19953C26.0829 2.37118 24.6012 2.78677 23.499 4.0516C22.9931 4.6298 22.4962 5.18994 22.3064 6.08436C22.6227 6.21084 22.9208 6.33732 23.228 6.4367C26.1913 7.46663 28.1156 10.7461 26.8508 14.1883C26.128 16.1488 24.1043 17.9557 21.5747 17.9828C20.0569 18.0008 18.7107 17.6395 17.5453 16.6908C16.2804 15.6609 15.4944 14.3509 15.377 12.6795C15.1331 8.99346 16.5153 5.93077 19.0811 3.41015C21.2133 1.32318 23.8242 0.184839 26.8237 0.00414932C27.0676 -0.0139196 27.3115 0.0312528 27.6729 0.0583562Z" fill="#B92D2D"/>
<path d="M12.3236 0.0583562V2.19953C10.7335 2.37118 9.25184 2.78677 8.14963 4.0516C7.6437 4.6298 7.1468 5.18994 6.95708 6.08436C7.27329 6.21084 7.57142 6.33732 7.8786 6.4367C10.8419 7.46663 12.7663 10.7461 11.5014 14.1883C10.7787 16.1488 8.75494 17.9557 6.22529 17.9828C4.70749 18.0008 3.36136 17.6395 2.19591 16.6908C0.93108 15.6609 0.14508 14.3599 0.0276319 12.6886C-0.216299 9.00249 1.16598 5.9398 3.73177 3.41918C5.86391 1.32318 8.47487 0.184839 11.4743 0.00414932C11.7183 -0.0139196 11.9622 0.0312528 12.3236 0.0583562Z" fill="#B92D2D"/>
</svg>
