<svg width="94" height="93" viewBox="0 0 94 93" fill="none" xmlns="http://www.w3.org/2000/svg">
<path d="M92.4343 92.9505H1.39077C0.623858 92.9505 0 92.3271 0 91.5608V26.293C0 25.5266 0.623858 24.9033 1.39077 24.9033H21.3145C22.0814 24.9033 22.7053 25.5266 22.7053 26.293C22.7053 27.0593 22.0814 27.6826 21.3145 27.6826H2.78153V90.1711H91.0436V27.6826H74.6603C73.8934 27.6826 73.2696 27.0593 73.2696 26.293C73.2696 25.5266 73.8934 24.9033 74.6603 24.9033H92.4343C93.2012 24.9033 93.8251 25.5266 93.8251 26.293V91.5608C93.8251 92.3271 93.2012 92.9505 92.4343 92.9505Z" fill="#B92D2D"/>
<path d="M40.952 92.9505C40.1851 92.9505 39.5613 92.3271 39.5613 91.5608V56.9059C39.5613 56.1396 40.1851 55.5162 40.952 55.5162C41.719 55.5162 42.3428 56.1396 42.3428 56.9059V91.5608C42.3428 92.3271 41.719 92.9505 40.952 92.9505Z" fill="#B92D2D"/>
<path d="M11.0546 87.7648C10.2877 87.7648 9.66382 87.1415 9.66382 86.3751V56.9097C9.66382 56.1434 10.2877 55.52 11.0546 55.52C11.8215 55.52 12.4454 56.1434 12.4454 56.9097V86.3751C12.4454 87.1415 11.8215 87.7648 11.0546 87.7648Z" fill="#B92D2D"/>
<path d="M82.7704 92.5773C82.0035 92.5773 81.3796 91.9539 81.3796 91.1876V56.9099C81.3796 56.1436 82.0035 55.5202 82.7704 55.5202C83.5373 55.5202 84.1612 56.1436 84.1612 56.9099V91.1876C84.1612 91.9539 83.5373 92.5773 82.7704 92.5773Z" fill="#B92D2D"/>
<path d="M52.8729 92.5773C52.106 92.5773 51.4822 91.9539 51.4822 91.1876V56.9099C51.4822 56.1436 52.106 55.5202 52.8729 55.5202C53.6399 55.5202 54.2637 56.1436 54.2637 56.9099V91.1876C54.2637 91.9539 53.6399 92.5773 52.8729 92.5773Z" fill="#B92D2D"/>
<path d="M88.0674 58.0733H6.84658C6.07967 58.0733 5.45581 57.4499 5.45581 56.6836C5.45581 55.9173 6.07967 55.2939 6.84658 55.2939H88.0674C88.8343 55.2939 89.4581 55.9173 89.4581 56.6836C89.4581 57.4499 88.8343 58.0733 88.0674 58.0733Z" fill="#B92D2D"/>
<path d="M40.9521 67.265H11.7023C10.9354 67.265 10.3115 66.6417 10.3115 65.8753C10.3115 65.109 10.9354 64.4857 11.7023 64.4857H40.9521C41.719 64.4857 42.3429 65.109 42.3429 65.8753C42.3429 66.6417 41.719 67.265 40.9521 67.265Z" fill="#B92D2D"/>
<path d="M40.9521 76.7308H11.0546C10.2877 76.7308 9.66382 76.1074 9.66382 75.3411C9.66382 74.5748 10.2877 73.9514 11.0546 73.9514H40.9521C41.719 73.9514 42.3429 74.5748 42.3429 75.3411C42.3429 76.1074 41.719 76.7308 40.9521 76.7308Z" fill="#B92D2D"/>
<path d="M82.683 67.265H52.8729C52.106 67.265 51.4822 66.6417 51.4822 65.8753C51.4822 65.109 52.106 64.4857 52.8729 64.4857H82.683C83.45 64.4857 84.0738 65.109 84.0738 65.8753C84.0738 66.6417 83.45 67.265 82.683 67.265Z" fill="#B92D2D"/>
<path d="M82.0394 76.7308H53.4293C52.6624 76.7308 52.0386 76.1074 52.0386 75.3411C52.0386 74.5748 52.6624 73.9514 53.4293 73.9514H82.0394C82.8063 73.9514 83.4302 74.5748 83.4302 75.3411C83.4302 76.1074 82.8063 76.7308 82.0394 76.7308Z" fill="#B92D2D"/>
<path d="M82.683 86.1966H52.8729C52.106 86.1966 51.4822 85.5732 51.4822 84.8069C51.4822 84.0406 52.106 83.4172 52.8729 83.4172H82.683C83.45 83.4172 84.0738 84.0406 84.0738 84.8069C84.0738 85.5732 83.45 86.1966 82.683 86.1966Z" fill="#B92D2D"/>
<path d="M24.9067 49.0402H11.7858C11.0189 49.0402 10.395 48.4168 10.395 47.6505V34.5398C10.395 33.7735 11.0189 33.1501 11.7858 33.1501H19.8165C20.5834 33.1501 21.2072 33.7735 21.2072 34.5398C21.2072 35.3061 20.5834 35.9295 19.8165 35.9295H13.1766V46.2608H23.5159V39.1694C23.5159 38.4031 24.1398 37.7797 24.9067 37.7797C25.6736 37.7797 26.2975 38.4031 26.2975 39.1694V47.6505C26.2975 48.4168 25.6736 49.0402 24.9067 49.0402Z" fill="#B92D2D"/>
<path d="M82.0394 49.0402H68.9185C68.1516 49.0402 67.5277 48.4168 67.5277 47.6505V39.5268C67.5277 38.7605 68.1516 38.1371 68.9185 38.1371C69.6854 38.1371 70.3092 38.7605 70.3092 39.5268V46.2608H80.6486V35.9295H74.0285C73.2616 35.9295 72.6378 35.3061 72.6378 34.5398C72.6378 33.7735 73.2616 33.1501 74.0285 33.1501H82.0394C82.8063 33.1501 83.4301 33.7735 83.4301 34.5398V47.6505C83.4301 48.4168 82.8063 49.0402 82.0394 49.0402Z" fill="#B92D2D"/>
<path d="M43.8926 37.2239C43.7257 37.2239 43.5548 37.1921 43.3959 37.1326C42.7084 36.8705 36.6407 34.3969 35.7268 28.715C34.8129 23.0411 38.7666 18.9991 38.9335 18.8323C39.9348 17.8278 41.0077 17.1607 41.874 16.6247C42.78 16.0609 43.4952 15.6162 43.7138 15.0841C44.282 13.7024 43.5707 11.5781 41.6554 8.94962C41.3336 8.50492 41.3018 7.91728 41.572 7.44082C41.8422 6.96435 42.3707 6.69832 42.9151 6.74994C45.478 7.00406 50.3656 8.04037 54.3194 12.1578C55.0267 12.8963 61.158 19.6066 58.8175 28.171C57.7009 32.2567 55.1538 34.9607 53.2147 36.5092C52.8134 36.8308 52.265 36.9023 51.7921 36.6998C51.3193 36.4933 50.9974 36.0446 50.9616 35.5285C50.9418 35.2545 50.8702 34.647 50.6517 33.293C50.2702 30.9187 49.3603 28.6038 48.0212 26.5828C46.3085 29.1835 45.339 32.2647 45.2754 35.3696C45.2754 35.5285 45.2754 35.6635 45.2754 35.7627C45.3032 36.2313 45.0886 36.6839 44.7072 36.9618C44.4648 37.1365 44.1787 37.2279 43.8886 37.2279L43.8926 37.2239ZM45.6171 10.0852C46.7615 12.404 46.988 14.429 46.2887 16.1363C45.7284 17.5022 44.5164 18.2526 43.3442 18.9832C42.5257 19.4914 41.6793 20.0155 40.9084 20.7898C40.8766 20.8216 37.7851 23.9821 38.4765 28.2703C38.9017 30.9067 41.0276 32.6657 42.6131 33.6305C42.9945 30.1603 44.3257 26.7933 46.4436 24.0059C46.7019 23.6645 46.9046 23.4262 47.0834 23.2515C47.3576 22.9855 47.7271 22.8426 48.1086 22.8545C48.4901 22.8704 48.8517 23.0411 49.102 23.327C49.3642 23.6287 49.7417 24.1409 50.2543 24.8993C51.808 27.1943 52.8769 29.8347 53.3577 32.5506C54.4783 31.272 55.5551 29.5806 56.1432 27.4325C58.1142 20.222 52.559 14.3218 52.3206 14.0756C50.1788 11.8442 47.6993 10.6848 45.6211 10.0852H45.6171Z" fill="#B92D2D"/>
<path d="M47.4569 43.6284C35.4208 43.6284 25.6259 33.841 25.6259 21.8142C25.6259 9.7874 35.4208 0 47.4569 0C59.493 0 69.288 9.7874 69.288 21.8142C69.288 33.841 59.493 43.6284 47.4569 43.6284ZM47.4569 2.77938C36.9546 2.77938 28.4074 11.3161 28.4074 21.8142C28.4074 32.3123 36.9507 40.849 47.4569 40.849C57.9632 40.849 66.5064 32.3123 66.5064 21.8142C66.5064 11.3161 57.9592 2.77938 47.4569 2.77938Z" fill="#B92D2D"/>
</svg>
