<svg width="97" height="97" viewBox="0 0 97 97" fill="none" xmlns="http://www.w3.org/2000/svg">
<path d="M38.4329 89.2658C38.27 89.2658 38.1031 89.238 37.9402 89.1745C36.8911 88.7775 31.4036 86.5579 26.222 81.69C25.6617 81.1659 25.6339 80.2845 26.1623 79.7246C26.6908 79.1648 27.569 79.137 28.1293 79.6651C32.9294 84.1716 37.964 86.2125 38.9256 86.5738C39.6448 86.8438 40.0064 87.6459 39.7362 88.3645C39.5256 88.9204 38.9971 89.2619 38.4369 89.2619L38.4329 89.2658Z" fill="#B92D2D"/>
<path d="M22.7728 76.973C22.3317 76.973 21.8986 76.7626 21.6284 76.3735C19.2919 73.0065 17.6905 69.2702 16.868 65.2599C15.5765 58.9785 16.2401 52.4668 18.7912 46.4276C21.3423 40.3884 25.602 35.2466 31.1094 31.5579C31.6061 31.2244 32.2578 31.2482 32.7307 31.6095C33.2035 31.9709 33.3942 32.5982 33.1995 33.162C32.0551 36.5013 30.5452 43.2115 33.283 50.6404C33.5492 51.359 33.1797 52.1611 32.4605 52.4231C31.7412 52.6892 30.9425 52.3199 30.6763 51.6012C28.5107 45.7328 28.7372 40.2772 29.5041 36.2908C21.4059 43.3941 17.468 54.3568 19.5978 64.7001C20.3449 68.3411 21.7992 71.7359 23.9211 74.7892C24.3582 75.4206 24.2033 76.2861 23.5715 76.7229C23.3291 76.8897 23.0549 76.9691 22.7807 76.9691L22.7728 76.973Z" fill="#B92D2D"/>
<path d="M37.5348 54.8214C36.8911 54.8214 36.3149 54.3727 36.1758 53.7175C34.8605 47.4758 34.2565 37.9505 38.862 28.0162C45.1761 14.3932 56.9658 8.74713 61.7381 6.95244C62.2348 6.76582 62.7911 6.877 63.1766 7.23832C63.562 7.59964 63.709 8.14757 63.558 8.6558C60.6017 18.4273 60.5937 27.23 63.5223 34.8138C63.5938 35.0004 63.6693 35.191 63.7488 35.3776C64.0468 36.0843 63.713 36.8983 63.0057 37.1961C62.2944 37.4939 61.4838 37.1604 61.1858 36.4536C61.0984 36.2432 61.0149 36.0327 60.9315 35.8183C58.0546 28.3775 57.7843 19.9242 60.1208 10.649C54.8717 13.1028 46.3244 18.5226 41.3852 29.1796C37.1016 38.423 37.6659 47.313 38.8978 53.1418C39.0567 53.8922 38.5759 54.6308 37.8249 54.7896C37.7295 54.8094 37.6302 54.8214 37.5348 54.8214Z" fill="#B92D2D"/>
<path d="M62.2228 89.5437C62.0241 89.5437 61.8215 89.5001 61.6308 89.4127C61.138 89.1824 60.8241 88.6821 60.8321 88.1382C60.8479 86.7683 61.0705 85.4144 61.4957 84.112L63.8202 76.9611C64.0745 76.1273 66.1925 68.4363 59.7393 62.5718C56.9776 60.0624 53.6914 58.8038 51.0331 58.1725C52.5391 60.8446 53.914 64.6405 53.4689 69.2265C52.8769 75.3689 49.2966 79.673 47.2145 81.69C46.7813 82.1109 46.1257 82.2022 45.5932 81.9203C44.5839 81.3843 43.6978 80.7252 42.9587 79.9668C41.8461 78.8233 41.1944 77.6003 40.8209 76.4568C40.1573 77.5328 39.6646 78.6605 39.3427 79.8318C38.6712 82.2816 38.8063 84.8307 39.7361 87.4036C39.9984 88.1263 39.6248 88.9204 38.9016 89.1824C38.1784 89.4445 37.3837 89.0713 37.1214 88.3486C35.989 85.2278 35.834 82.1149 36.6566 79.1012C37.3639 76.5243 38.7467 74.138 40.7693 72.0058C41.1746 71.577 41.8024 71.4539 42.3428 71.6922C42.8792 71.9304 43.2091 72.4823 43.1654 73.066C43.0819 74.1499 43.2051 76.2345 44.9495 78.0292C45.2674 78.3547 45.625 78.6565 46.0224 78.9344C47.8343 76.973 50.2583 73.5504 50.7033 68.9604C51.2397 63.3937 48.6052 59.1611 46.988 57.1322C46.6383 56.6954 46.5866 56.0919 46.8568 55.5995C47.127 55.1072 47.6635 54.8253 48.2198 54.8848C51.2477 55.1985 57.0174 56.346 61.6109 60.519C69.3316 67.535 66.7885 76.7705 66.4706 77.8028L64.301 84.4734C74.0006 75.5555 78.3795 67.5549 77.3146 60.654C76.6232 56.1634 73.802 53.1974 70.5317 49.7628C68.8508 47.9959 67.1143 46.1695 65.4454 43.946C64.9845 43.3305 65.1116 42.461 65.7236 42.0004C66.3395 41.5398 67.2097 41.6669 67.6706 42.2784C69.2402 44.3748 70.9211 46.1417 72.5463 47.849C75.9874 51.4662 79.2339 54.8809 80.0604 60.2292C81.3836 68.8215 75.6815 78.5771 63.1129 89.2182C62.8586 89.4365 62.5367 89.5477 62.2149 89.5477L62.2228 89.5437Z" fill="#B92D2D"/>
<path d="M48.2437 96.4128C21.6403 96.4128 0 74.7892 0 48.2064C0 21.6236 21.6403 0 48.2437 0C74.8471 0 96.4874 21.6236 96.4874 48.2064C96.4874 74.7892 74.8471 96.4128 48.2437 96.4128ZM48.2437 2.77938C23.1741 2.77938 2.78153 23.1562 2.78153 48.2064C2.78153 73.2566 23.1741 93.6334 48.2437 93.6334C73.3132 93.6334 93.7059 73.2566 93.7059 48.2064C93.7059 23.1562 73.3132 2.77938 48.2437 2.77938Z" fill="#B92D2D"/>
<path d="M16.0216 83.719C15.664 83.719 15.3103 83.584 15.0401 83.31C14.4957 82.7661 14.4957 81.8886 15.0401 81.3446L81.3559 15.0801C81.9002 14.5362 82.7784 14.5362 83.3228 15.0801C83.8672 15.6241 83.8672 16.5016 83.3228 17.0456L17.007 83.31C16.7368 83.58 16.3792 83.719 16.0256 83.719H16.0216Z" fill="#B92D2D"/>
</svg>
