<svg width="19" height="23" viewBox="0 0 19 23" fill="none" xmlns="http://www.w3.org/2000/svg">
<path d="M0.0106609 4.54499C0.0603099 3.36334 0.457502 2.35795 1.38594 1.5586C2.30196 0.77415 3.29494 0.200704 4.49645 0.03438C5.8047 -0.146839 6.59412 0.386888 6.89698 1.67031C7.22962 3.08035 7.34133 4.51024 7.30658 5.95999C7.28672 6.76182 6.98386 7.33775 6.2714 7.71011C6.03557 7.83424 5.81711 7.99063 5.59865 8.14703C4.80924 8.71054 4.67767 9.01092 5.05748 9.92446C5.38765 10.7188 5.80966 11.476 6.23664 12.2257C6.68349 13.0126 7.15515 13.7872 7.66654 14.5319C8.02649 15.0532 8.4361 15.5522 8.8879 15.994C9.4539 16.5476 9.8784 16.5749 10.5561 16.1728C10.9781 15.9221 11.3877 15.6391 11.77 15.3288C12.2615 14.9291 12.7779 14.8323 13.3836 15.006C14.7812 15.4082 16.0895 15.9916 17.2587 16.8604C17.6336 17.1409 17.9588 17.491 18.2865 17.8311C18.6638 18.2233 18.7035 18.695 18.5918 19.2113C18.3684 20.244 17.7949 21.0458 17.0179 21.7285C15.8561 22.7513 14.4536 22.8704 13.0112 22.7612C10.9707 22.6048 9.23544 21.7186 7.65661 20.455C5.88414 19.035 4.49645 17.2973 3.26515 15.4032C1.90229 13.3105 0.919238 11.0664 0.311037 8.65096C0.20181 8.21405 0.102512 7.76721 0.0528626 7.32037C-0.00919867 6.78416 -0.00671622 4.93474 0.0106609 4.54499Z" fill="#B92D2D"/>
</svg>
