<svg width="30" height="21" viewBox="0 0 30 21" fill="none" xmlns="http://www.w3.org/2000/svg">
<path d="M1.61035 0.485842C1.8833 0.365746 2.10711 0.229274 2.35276 0.174685C2.72397 0.0873424 3.11155 0.0109178 3.49367 0.0109178C10.885 0 18.2818 0 25.6732 0C26.2136 0 26.7268 0.103719 27.2181 0.327534C27.3109 0.371205 27.4037 0.431253 27.5292 0.502219C27.4419 0.600479 27.3873 0.671445 27.3163 0.742411C23.244 4.78746 19.1716 8.8325 15.0993 12.883C14.7226 13.2542 14.4333 13.2542 14.0566 12.8775C9.98977 8.8325 5.92288 4.79292 1.856 0.747869C1.78504 0.676904 1.72499 0.605938 1.61035 0.480383V0.485842Z" fill="#B92D2D"/>
<path d="M27.5183 20.4986C27.038 20.8262 26.5194 20.9462 25.9789 20.9954C25.8698 21.0063 25.7606 20.9954 25.6569 20.9954C18.2764 20.9954 10.896 20.9954 3.5101 20.9954C2.95875 20.9954 2.43469 20.8971 1.93793 20.6678C1.84513 20.6242 1.75779 20.5641 1.6377 20.4932C1.71958 20.4004 1.76871 20.3349 1.83422 20.2748C4.67284 17.458 7.51693 14.6412 10.3556 11.819C10.5248 11.6497 10.6176 11.6497 10.7868 11.819C11.5183 12.5668 12.2662 13.2983 13.0086 14.0298C13.9366 14.9469 15.2467 14.9469 16.1693 14.0298C16.9172 13.2874 17.6705 12.5505 18.4129 11.7971C18.5603 11.6443 18.6476 11.6443 18.8005 11.7971C21.65 14.6303 24.505 17.458 27.36 20.2912C27.4146 20.3458 27.4583 20.4113 27.5293 20.4877L27.5183 20.4986Z" fill="#B92D2D"/>
<path d="M28.6537 19.374C28.348 19.0683 28.0642 18.7954 27.7858 18.517C25.1873 15.9404 22.5889 13.3692 19.9959 10.7926C19.712 10.5142 19.712 10.5088 19.985 10.2358C22.8018 7.43541 25.6186 4.635 28.4408 1.83458C28.5009 1.77453 28.5718 1.71995 28.6646 1.63806C28.954 2.07477 29.0959 2.52786 29.145 3.0137C29.1614 3.18293 29.1559 3.35762 29.1559 3.52684C29.1559 8.17237 29.1559 12.8234 29.1559 17.4689C29.1559 18.0639 29.0631 18.6316 28.7847 19.1611C28.7574 19.2157 28.7192 19.2649 28.6537 19.3686V19.374Z" fill="#B92D2D"/>
<path d="M0.491301 19.3681C0.207438 18.9041 0.054589 18.4455 0.0163767 17.9542C0.0054589 17.7905 0.0054589 17.6322 0.0054589 17.4684C0 12.8229 0.0054589 8.17189 0 3.52637C0 2.93681 0.0873424 2.38 0.360288 1.85594C0.387582 1.80681 0.414877 1.76314 0.442171 1.71401C0.453089 1.69764 0.469466 1.69218 0.507678 1.65942C0.567726 1.70855 0.638691 1.75768 0.698739 1.81773C3.54283 4.63998 6.38691 7.4677 9.231 10.2899C9.40023 10.4537 9.40569 10.5465 9.231 10.7157C6.39237 13.5216 3.5592 16.333 0.726034 19.1443C0.655068 19.2098 0.584102 19.2698 0.480383 19.3626L0.491301 19.3681Z" fill="#B92D2D"/>
</svg>
