<svg width="93" height="88" viewBox="0 0 93 88" fill="none" xmlns="http://www.w3.org/2000/svg">
<path d="M91.5363 2.77938H1.39077C0.623858 2.77938 0 2.15601 0 1.38969C0 0.623376 0.623858 0 1.39077 0H91.5363C92.3032 0 92.927 0.623376 92.927 1.38969C92.927 2.15601 92.3032 2.77938 91.5363 2.77938Z" fill="#B92D2D"/>
<path d="M37.7732 26.6663C37.4156 26.6663 37.0619 26.5313 36.7877 26.2573L24.0563 13.5317C21.4337 10.9111 19.9316 7.28204 19.9316 3.58149V1.39372C19.9316 0.627404 20.5555 0.00402832 21.3224 0.00402832C22.0893 0.00402832 22.7132 0.627404 22.7132 1.39372V3.58149C22.7132 6.55543 23.9212 9.46584 26.0232 11.5702L38.7547 24.2958C39.2991 24.8398 39.2991 25.7173 38.7547 26.2613C38.4845 26.5313 38.1269 26.6663 37.7732 26.6663Z" fill="#B92D2D"/>
<path d="M55.1498 26.6663C54.7921 26.6663 54.4385 26.5313 54.1683 26.2613C53.6239 25.7173 53.6239 24.8398 54.1683 24.2958L66.8998 11.5702C69.0376 9.43805 70.2098 6.60308 70.2098 3.58149V1.39372C70.2098 0.627404 70.8337 0.00402832 71.6006 0.00402832C72.3675 0.00402832 72.9913 0.627404 72.9913 1.39372V3.58149C72.9913 7.34557 71.5251 10.8794 68.8627 13.5357L56.1313 26.2613C55.8611 26.5313 55.5034 26.6702 55.1458 26.6702L55.1498 26.6663Z" fill="#B92D2D"/>
<path d="M38.111 32.9913C37.3441 32.9913 36.7202 32.3679 36.7202 31.6016V2.0131C36.7202 1.24679 37.3441 0.623413 38.111 0.623413C38.8779 0.623413 39.5017 1.24679 39.5017 2.0131V31.5976C39.5017 32.364 38.8779 32.9873 38.111 32.9873V32.9913Z" fill="#B92D2D"/>
<path d="M54.8161 32.9913C54.0492 32.9913 53.4253 32.3679 53.4253 31.6016V1.38969C53.4253 0.623376 54.0492 0 54.8161 0C55.583 0 56.2068 0.623376 56.2068 1.38969V31.5976C56.2068 32.3639 55.583 32.9873 54.8161 32.9873V32.9913Z" fill="#B92D2D"/>
<path d="M53.9816 48.5399H38.9454C36.3387 48.5399 34.0658 46.777 33.4221 44.2517L31.6499 37.3152C31.2128 35.5959 31.5823 33.8092 32.6711 32.4115C33.7599 31.0139 35.401 30.2079 37.1732 30.2079H55.7578C57.5301 30.2079 59.1712 31.0099 60.2599 32.4115C61.3487 33.8131 61.7183 35.5999 61.2812 37.3152L59.5089 44.2517C58.8652 46.777 56.5923 48.5399 53.9856 48.5399H53.9816ZM37.1732 32.9912C36.2632 32.9912 35.4248 33.4042 34.8685 34.1189C34.3122 34.8336 34.1215 35.7508 34.344 36.6322L36.1162 43.5688C36.446 44.8632 37.6103 45.7645 38.9454 45.7645H53.9816C55.3167 45.7645 56.481 44.8632 56.8108 43.5688L58.5831 36.6322C58.8095 35.7547 58.6188 34.8375 58.0585 34.1189C57.5022 33.4002 56.6598 32.9912 55.7538 32.9912H37.1692H37.1732Z" fill="#B92D2D"/>
<path d="M46.4636 58.1923C42.4661 58.1923 39.2157 54.9444 39.2157 50.954V47.1542C39.2157 46.3879 39.8396 45.7645 40.6065 45.7645C41.3734 45.7645 41.9972 46.3879 41.9972 47.1542V50.954C41.9972 53.4118 43.9999 55.413 46.4636 55.413C48.9272 55.413 50.9259 53.4118 50.9259 50.954V47.1542C50.9259 46.3879 51.5498 45.7645 52.3167 45.7645C53.0836 45.7645 53.7075 46.3879 53.7075 47.1542V50.954C53.7075 54.9444 50.4571 58.1923 46.4636 58.1923Z" fill="#B92D2D"/>
<path d="M2.20534 68.9365C1.65301 68.9365 1.12848 68.603 0.909934 68.059C0.627807 67.3443 0.977499 66.5383 1.69275 66.2564L6.50082 64.3545C7.2121 64.0726 8.02273 64.422 8.30486 65.1367C8.58699 65.8514 8.23729 66.6574 7.52204 66.9393L2.71397 68.8412C2.54708 68.9087 2.37223 68.9405 2.20136 68.9405L2.20534 68.9365ZM14.0308 64.2553C13.4785 64.2553 12.954 63.9217 12.7354 63.3778C12.4533 62.6631 12.803 61.857 13.5182 61.5751L20.5396 58.7997C21.2549 58.5138 22.0615 58.8672 22.3436 59.5819C22.6258 60.2966 22.2761 61.1026 21.5608 61.3845L14.5395 64.16C14.3726 64.2275 14.1977 64.2592 14.0269 64.2592L14.0308 64.2553ZM28.0736 58.7044C27.5213 58.7044 26.9968 58.3709 26.7782 57.8269C26.4961 57.1122 26.8458 56.3062 27.561 56.0243L34.5824 53.2489C35.2977 52.963 36.1043 53.3164 36.3864 54.0311C36.6685 54.7458 36.3189 55.5518 35.6036 55.8337L28.5822 58.6091C28.4153 58.6766 28.2405 58.7084 28.0696 58.7084L28.0736 58.7044Z" fill="#B92D2D"/>
<path d="M19.6138 81.7692C19.272 81.7692 18.9343 81.6461 18.6641 81.3959C18.1038 80.8718 18.072 79.9943 18.5965 79.4305L22.2483 75.5275C22.7728 74.9676 23.651 74.9359 24.2152 75.46C24.7755 75.9841 24.8073 76.8616 24.2828 77.4254L20.631 81.3284C20.3568 81.6223 19.9873 81.7692 19.6138 81.7692ZM28.4193 72.355C28.0776 72.355 27.7398 72.2319 27.4696 71.9818C26.9093 71.4577 26.8776 70.5802 27.4021 70.0164L32.5559 64.5052C33.0804 63.9454 33.9585 63.9136 34.5228 64.4377C35.0831 64.9618 35.1149 65.8393 34.5903 66.4032L29.4366 71.9143C29.1624 72.2081 28.7928 72.355 28.4193 72.355Z" fill="#B92D2D"/>
<path d="M73.3133 81.7693C72.9398 81.7693 72.5702 81.6224 72.2961 81.3286L68.6443 77.4255C68.1198 76.8657 68.1476 75.9842 68.7118 75.4601C69.2721 74.936 70.1543 74.9638 70.6788 75.5276L74.3305 79.4307C74.8551 79.9905 74.8273 80.872 74.263 81.3961C73.9928 81.6462 73.655 81.7693 73.3133 81.7693ZM64.5078 72.3551C64.1342 72.3551 63.7647 72.2082 63.4905 71.9144L58.3367 66.4033C57.8122 65.8434 57.84 64.962 58.4043 64.4379C58.9646 63.9138 59.8467 63.9416 60.3712 64.5054L65.525 70.0165C66.0495 70.5763 66.0217 71.4578 65.4574 71.9819C65.1872 72.2321 64.8495 72.3551 64.5078 72.3551Z" fill="#B92D2D"/>
<path d="M90.7217 68.9366C90.5508 68.9366 90.38 68.9048 90.2091 68.8373L85.401 66.9355C84.6858 66.6535 84.3361 65.8436 84.6182 65.1328C84.9003 64.4181 85.707 64.0687 86.4222 64.3506L91.2303 66.2525C91.9456 66.5344 92.2952 67.3444 92.0131 68.0551C91.7985 68.6031 91.274 68.9326 90.7177 68.9326L90.7217 68.9366ZM78.8922 64.2553C78.7213 64.2553 78.5505 64.2236 78.3796 64.1561L71.3582 61.3807C70.643 61.0987 70.2933 60.2888 70.5754 59.578C70.8576 58.8633 71.6682 58.5139 72.3795 58.7958L79.4008 61.5712C80.1161 61.8532 80.4658 62.6631 80.1836 63.3739C79.9691 63.9218 79.4446 64.2514 78.8883 64.2514L78.8922 64.2553ZM64.8534 58.7045C64.6826 58.7045 64.5117 58.6727 64.3408 58.6052L57.3194 55.8298C56.6042 55.5479 56.2545 54.7379 56.5366 54.0272C56.8188 53.3125 57.6254 52.9631 58.3407 53.245L65.362 56.0204C66.0773 56.3023 66.427 57.1123 66.1449 57.823C65.9303 58.371 65.4058 58.7005 64.8495 58.7005L64.8534 58.7045Z" fill="#B92D2D"/>
<path d="M46.4635 87.0463C45.6966 87.0463 45.0728 86.423 45.0728 85.6566V78.1126C45.0728 77.3463 45.6966 76.7229 46.4635 76.7229C47.2304 76.7229 47.8543 77.3463 47.8543 78.1126V85.6566C47.8543 86.423 47.2304 87.0463 46.4635 87.0463ZM46.4635 71.9582C45.6966 71.9582 45.0728 71.3349 45.0728 70.5686V63.0245C45.0728 62.2582 45.6966 61.6348 46.4635 61.6348C47.2304 61.6348 47.8543 62.2582 47.8543 63.0245V70.5686C47.8543 71.3349 47.2304 71.9582 46.4635 71.9582Z" fill="#B92D2D"/>
</svg>
