<svg width="95" height="92" viewBox="0 0 95 92" fill="none" xmlns="http://www.w3.org/2000/svg">
<path d="M84.3877 91.8268H9.73537C4.36701 91.8268 0 87.4632 0 82.099V9.72784C0 4.36363 4.36701 0 9.73537 0H84.3877C89.7561 0 94.1231 4.36363 94.1231 9.72784V82.099C94.1231 87.4632 89.7561 91.8268 84.3877 91.8268ZM9.73537 2.77938C5.90082 2.77938 2.78153 5.89626 2.78153 9.72784V82.099C2.78153 85.9306 5.90082 89.0475 9.73537 89.0475H84.3877C88.2223 89.0475 91.3416 85.9306 91.3416 82.099V9.72784C91.3416 5.89626 88.2223 2.77938 84.3877 2.77938H9.73537Z" fill="#B92D2D"/>
<path d="M82.6831 79.1052H11.4401C10.6732 79.1052 10.0493 78.4818 10.0493 77.7155V45.7724C10.0493 45.0061 10.6732 44.3828 11.4401 44.3828H82.6871C83.454 44.3828 84.0778 45.0061 84.0778 45.7724V77.7155C84.0778 78.4818 83.454 79.1052 82.6871 79.1052H82.6831ZM12.8309 76.3258H81.2963V47.1621H12.8309V76.3258Z" fill="#B92D2D"/>
<path d="M52.7141 40.5552C52.3048 40.5552 51.9034 40.3765 51.6253 40.035C51.1445 39.4355 51.2438 38.562 51.8438 38.0815C53.7393 36.5648 56.2307 33.9283 57.3076 29.9816C59.6242 21.5164 53.1074 14.5997 52.8293 14.3099C48.9193 10.2401 44.0516 9.20772 41.5005 8.95757C40.7376 8.88213 40.1773 8.20317 40.2528 7.43685C40.3283 6.67451 41.0078 6.11466 41.7747 6.1901C44.7112 6.47995 50.31 7.66714 54.8399 12.3842C55.6506 13.2299 62.6719 20.9089 59.9937 30.7122C58.7182 35.3816 55.8016 38.4786 53.5843 40.2495C53.326 40.4559 53.02 40.5552 52.718 40.5552H52.7141Z" fill="#B92D2D"/>
<path d="M42.9231 41.0356C42.7562 41.0356 42.5893 41.0038 42.4264 40.9443C42.2118 40.8649 40.2925 40.1065 38.3216 38.5818C35.7269 36.5767 34.1255 34.0832 33.6884 31.3673C32.6473 24.9072 37.1494 20.3093 37.3401 20.1148C38.4806 18.9713 39.6607 18.2367 40.7018 17.5895C41.7827 16.9185 42.637 16.3864 42.9191 15.7035C43.2648 14.8657 43.233 13.8215 42.8317 12.5946C42.5933 11.864 42.9906 11.0818 43.7178 10.8396C44.449 10.6014 45.2318 10.9984 45.4741 11.729C46.0901 13.6031 46.094 15.2945 45.49 16.7636C44.8662 18.2764 43.5549 19.0944 42.1681 19.956C41.2105 20.5515 40.217 21.167 39.3071 22.0802C39.2713 22.1159 35.6116 25.8522 36.4302 30.9266C36.9627 34.2341 39.7283 36.3662 41.6158 37.4621C42.0012 33.3645 43.5469 29.3781 46.0424 26.0905C46.3364 25.7013 46.5669 25.4313 46.7616 25.2408C47.0358 24.9747 47.4053 24.8278 47.7868 24.8477C48.1683 24.8636 48.5259 25.0343 48.7802 25.3202C49.0782 25.6577 49.5074 26.2453 50.0955 27.1149C51.3273 28.9373 52.2889 30.9186 52.9485 33.0111C53.179 33.7417 52.7737 34.5239 52.0425 34.7542C51.3114 34.9845 50.5286 34.5795 50.2981 33.8489C49.718 32.0145 48.8756 30.2754 47.7947 28.6753C47.763 28.6316 47.7351 28.5879 47.7073 28.5443C45.5894 31.6453 44.3894 35.3577 44.3099 39.1019C44.3099 39.2925 44.3059 39.4553 44.3099 39.5744C44.3377 40.043 44.1231 40.4956 43.7417 40.7735C43.4993 40.9482 43.2132 41.0396 42.9231 41.0396V41.0356Z" fill="#B92D2D"/>
<path d="M47.0595 69.9928C42.5058 69.9928 38.8024 66.2923 38.8024 61.742C38.8024 57.1918 42.5058 53.4912 47.0595 53.4912C51.6133 53.4912 55.3167 57.1918 55.3167 61.742C55.3167 66.2923 51.6133 69.9928 47.0595 69.9928ZM47.0595 56.2706C44.0396 56.2706 41.5839 58.7244 41.5839 61.742C41.5839 64.7596 44.0396 67.2134 47.0595 67.2134C50.0795 67.2134 52.5352 64.7596 52.5352 61.742C52.5352 58.7244 50.0795 56.2706 47.0595 56.2706Z" fill="#B92D2D"/>
<path d="M27.8552 68.5793C27.4975 68.5793 27.1359 68.4403 26.8657 68.1664C26.3253 67.6184 26.3333 66.7409 26.8816 66.2009L31.4076 61.746L26.8816 57.291C26.3333 56.751 26.3293 55.8736 26.8657 55.3256C27.4061 54.7777 28.2843 54.7737 28.8327 55.3097L34.3639 60.7534C34.6302 61.0154 34.7772 61.3728 34.7772 61.742C34.7772 62.1113 34.6262 62.4726 34.3639 62.7307L28.8327 68.1743C28.5625 68.4403 28.2088 68.5753 27.8552 68.5753V68.5793Z" fill="#B92D2D"/>
<path d="M33.3903 63.1317H17.7621C16.9952 63.1317 16.3713 62.5083 16.3713 61.742C16.3713 60.9757 16.9952 60.3523 17.7621 60.3523H33.3903C34.1573 60.3523 34.7811 60.9757 34.7811 61.742C34.7811 62.5083 34.1573 63.1317 33.3903 63.1317Z" fill="#B92D2D"/>
<path d="M66.2681 68.5793C65.9145 68.5793 65.5648 68.4483 65.2906 68.1783L59.7593 62.7347C59.4931 62.4726 59.3461 62.1153 59.3461 61.746C59.3461 61.3768 59.4971 61.0155 59.7593 60.7574L65.2906 55.3137C65.839 54.7738 66.7171 54.7817 67.2575 55.3296C67.798 55.8776 67.79 56.7551 67.2416 57.2951L62.7157 61.75L67.2416 66.205C67.79 66.745 67.794 67.6224 67.2575 68.1704C66.9834 68.4483 66.6257 68.5833 66.2681 68.5833V68.5793Z" fill="#B92D2D"/>
<path d="M76.3651 63.1317H60.7368C59.9699 63.1317 59.3461 62.5083 59.3461 61.742C59.3461 60.9757 59.9699 60.3523 60.7368 60.3523H76.3651C77.132 60.3523 77.7558 60.9757 77.7558 61.742C77.7558 62.5083 77.132 63.1317 76.3651 63.1317Z" fill="#B92D2D"/>
</svg>
