<svg width="82" height="98" viewBox="0 0 82 98" fill="none" xmlns="http://www.w3.org/2000/svg">
<path d="M1.396 97.8661C1.34037 97.8661 1.28475 97.8661 1.22912 97.8581C0.466183 97.7668 -0.0782061 97.0759 0.00921351 96.3136L3.34706 68.079C3.91926 63.2508 7.47168 59.2207 12.1923 58.0455L28.9451 53.8764V46.789C28.9451 46.0226 29.569 45.3993 30.3359 45.3993C31.1028 45.3993 31.7266 46.0226 31.7266 46.789V54.9643C31.7266 55.6036 31.2935 56.1594 30.6737 56.3143L12.8639 60.7494C9.25981 61.6467 6.54583 64.7239 6.10873 68.4126L2.77088 96.6471C2.68744 97.3539 2.08743 97.874 1.39205 97.874L1.396 97.8661Z" fill="#B92D2D"/>
<path d="M40.8104 62.7347C38.6129 62.7347 36.4155 61.9723 34.6195 60.4397L29.4339 56.0165C28.8498 55.5202 28.7783 54.6427 29.2789 54.059C29.7756 53.4754 30.6538 53.4079 31.2379 53.9042L36.4235 58.3274C38.9666 60.4953 42.6541 60.4953 45.1933 58.3274L50.3749 53.9082C50.959 53.4118 51.8372 53.4793 52.3339 54.063C52.8306 54.6467 52.763 55.5242 52.1789 56.0205L46.9973 60.4397C45.2052 61.9684 43.0038 62.7347 40.8064 62.7347H40.8104Z" fill="#B92D2D"/>
<path d="M18.3435 97.866C18.3435 97.866 18.3117 97.866 18.2958 97.866C17.5289 97.8382 16.9289 97.195 16.9527 96.4287L17.4296 82.4683C17.6283 76.6355 15.3553 70.9418 11.187 66.8521L7.90481 63.628C7.35645 63.088 7.34851 62.2105 7.88892 61.6626C8.42536 61.1147 9.30751 61.1067 9.85587 61.6467L13.1381 64.8708C17.8587 69.5044 20.4336 75.9566 20.2071 82.5635L19.7303 96.524C19.7065 97.2744 19.0866 97.866 18.3395 97.866H18.3435Z" fill="#B92D2D"/>
<path d="M40.8103 83.9096H18.8203C18.0534 83.9096 17.4296 83.2862 17.4296 82.5199C17.4296 81.7536 18.0534 81.1302 18.8203 81.1302H40.8103C41.5772 81.1302 42.2011 81.7536 42.2011 82.5199C42.2011 83.2862 41.5772 83.9096 40.8103 83.9096Z" fill="#B92D2D"/>
<path d="M40.8103 94.0225H18.8203C18.0534 94.0225 17.4296 93.3991 17.4296 92.6328C17.4296 91.8665 18.0534 91.2431 18.8203 91.2431H40.8103C41.5772 91.2431 42.2011 91.8665 42.2011 92.6328C42.2011 93.3991 41.5772 94.0225 40.8103 94.0225Z" fill="#B92D2D"/>
<path d="M40.8144 53.4754C31.834 53.4754 24.5265 44.625 24.5265 33.7497C24.5265 30.6924 25.0868 27.7621 26.1954 25.0383C26.4855 24.3276 27.2961 23.9861 28.0074 24.276C28.7187 24.5658 29.0604 25.3758 28.7703 26.0865C27.7968 28.4728 27.304 31.0537 27.304 33.7497C27.304 43.0924 33.3638 50.696 40.8104 50.696C48.2569 50.696 54.3127 43.0924 54.3127 33.7497C54.3127 31.0537 53.82 28.4768 52.8465 26.0865C52.7789 25.9198 52.7431 25.7411 52.7431 25.5624C52.7431 24.7961 53.367 24.1727 54.1339 24.1727C54.7419 24.1727 55.2585 24.5618 55.4492 25.1058C56.538 27.8137 57.0943 30.7202 57.0943 33.7537C57.0943 44.629 49.7868 53.4793 40.8104 53.4793L40.8144 53.4754Z" fill="#B92D2D"/>
<path d="M25.357 52.1968C25.1941 52.1968 25.0311 52.169 24.8722 52.1094C24.153 51.8434 23.7874 51.0414 24.0536 50.3227L26.8232 42.8859C27.0895 42.1672 27.8921 41.8019 28.6114 42.0679C29.3306 42.3339 29.6962 43.136 29.4299 43.8547L26.6603 51.2915C26.4537 51.8514 25.9212 52.1968 25.357 52.1968Z" fill="#B92D2D"/>
<path d="M19.5078 55.1509C19.3051 55.1509 19.1025 55.1072 18.9078 55.0119L14.052 52.6773C13.4599 52.3954 13.15 51.7362 13.301 51.097L19.4124 25.8284C19.468 18.9713 22.9489 12.6819 28.7464 8.9814C29.3941 8.56846 30.2524 8.75905 30.6657 9.40228C31.079 10.0495 30.8882 10.9071 30.2445 11.3201C25.202 14.5402 22.1939 20.0235 22.1939 25.9952C22.1939 26.1064 22.182 26.2136 22.1542 26.3208L16.2693 50.6563L20.1118 52.5026C20.8032 52.8361 21.0972 53.6659 20.7635 54.3568C20.525 54.8531 20.0283 55.143 19.5078 55.143V55.1509Z" fill="#B92D2D"/>
<path d="M63.4123 54.8412C62.8957 54.8412 62.399 54.5514 62.1566 54.055C61.8228 53.3642 62.1169 52.5343 62.8083 52.2008L66.007 50.6642L60.1221 26.3287C60.0943 26.2215 60.0824 26.1143 60.0824 26.0031C60.0824 20.226 57.2214 14.838 52.4292 11.59C51.7934 11.1612 51.6265 10.2956 52.0596 9.66036C52.4888 9.02507 53.355 8.85831 53.9908 9.2911C59.5022 13.0234 62.8083 19.1976 62.8639 25.8364L68.9754 51.1049C69.1303 51.7402 68.8164 52.3993 68.2244 52.6852L64.0123 54.7102C63.8176 54.8055 63.611 54.8492 63.4123 54.8492V54.8412Z" fill="#B92D2D"/>
<path d="M56.9154 52.1968C56.3511 52.1968 55.8187 51.8514 55.6121 51.2916L52.6477 43.3386C52.3815 42.6199 52.7471 41.8178 53.4663 41.5518C54.1855 41.2858 54.9882 41.6511 55.2544 42.3697L58.2188 50.3227C58.485 51.0414 58.1194 51.8435 57.4002 52.1095C57.2413 52.1691 57.0783 52.1968 56.9154 52.1968Z" fill="#B92D2D"/>
<path d="M65.5699 26.9521H17.215C16.4481 26.9521 15.8242 26.3287 15.8242 25.5624C15.8242 24.7961 16.4481 24.1727 17.215 24.1727H65.5699C66.3368 24.1727 66.9607 24.7961 66.9607 25.5624C66.9607 26.3287 66.3368 26.9521 65.5699 26.9521Z" fill="#B92D2D"/>
<path d="M41.3945 26.686C36.6858 26.686 32.8552 22.8584 32.8552 18.1533C32.8552 13.4482 36.6858 9.62061 41.3945 9.62061C46.1033 9.62061 49.9338 13.4482 49.9338 18.1533C49.9338 22.8584 46.1033 26.686 41.3945 26.686ZM41.3945 12.404C38.2196 12.404 35.6368 14.9848 35.6368 18.1573C35.6368 21.3297 38.2196 23.9106 41.3945 23.9106C44.5695 23.9106 47.1523 21.3297 47.1523 18.1573C47.1523 14.9848 44.5695 12.404 41.3945 12.404Z" fill="#B92D2D"/>
<path d="M47.8119 16.3984C47.045 16.3984 46.4211 15.775 46.4211 15.0087V3.57349C46.4211 3.13673 46.0635 2.77938 45.6264 2.77938H37.1626C36.7255 2.77938 36.3678 3.13673 36.3678 3.57349V15.0087C36.3678 15.775 35.744 16.3984 34.9771 16.3984C34.2102 16.3984 33.5863 15.775 33.5863 15.0087V3.57349C33.5863 1.6041 35.1916 0 37.1626 0H45.6264C47.5973 0 49.2026 1.6041 49.2026 3.57349V15.0087C49.2026 15.775 48.5788 16.3984 47.8119 16.3984Z" fill="#B92D2D"/>
<path d="M18.6693 87.757H2.59206C1.82515 87.757 1.20129 87.1337 1.20129 86.3674C1.20129 85.601 1.82515 84.9777 2.59206 84.9777H18.6693C19.4362 84.9777 20.0601 85.601 20.0601 86.3674C20.0601 87.1337 19.4362 87.757 18.6693 87.757Z" fill="#B92D2D"/>
<path d="M79.8432 97.866C79.1478 97.866 78.5478 97.3459 78.4643 96.6391L75.1265 68.4046C74.6894 64.7199 71.9754 61.6387 68.3713 60.7414L50.5616 56.3063C49.9417 56.1514 49.5085 55.5956 49.5085 54.9563V46.781C49.5085 46.0146 50.1324 45.3913 50.8993 45.3913C51.6662 45.3913 52.2901 46.0146 52.2901 46.781V53.8684L69.0428 58.0375C73.7635 59.2127 77.3159 63.2428 77.8881 68.071L81.226 96.3056C81.3174 97.0679 80.769 97.7588 80.0061 97.8501C79.9505 97.8581 79.8948 97.8581 79.8432 97.8581V97.866Z" fill="#B92D2D"/>
<path d="M62.8917 97.866C62.1447 97.866 61.5288 97.2744 61.501 96.524L61.0241 82.5636C60.7976 75.9566 63.3765 69.5084 68.0932 64.8708L71.3754 61.6467C71.9237 61.1107 72.8019 61.1147 73.3424 61.6626C73.8828 62.2105 73.8748 63.088 73.3264 63.628L70.0442 66.8521C65.8799 70.9418 63.603 76.6355 63.8057 82.4683L64.2825 96.4287C64.3103 97.195 63.7063 97.8383 62.9394 97.866C62.9235 97.866 62.9076 97.866 62.8917 97.866Z" fill="#B92D2D"/>
<path d="M62.4189 83.9096H40.8103C40.0434 83.9096 39.4196 83.2862 39.4196 82.5199C39.4196 81.7536 40.0434 81.1302 40.8103 81.1302H62.4189C63.1858 81.1302 63.8097 81.7536 63.8097 82.5199C63.8097 83.2862 63.1858 83.9096 62.4189 83.9096Z" fill="#B92D2D"/>
<path d="M62.4189 94.0225H40.8103C40.0434 94.0225 39.4196 93.3991 39.4196 92.6328C39.4196 91.8665 40.0434 91.2431 40.8103 91.2431H62.4189C63.1858 91.2431 63.8097 91.8665 63.8097 92.6328C63.8097 93.3991 63.1858 94.0225 62.4189 94.0225Z" fill="#B92D2D"/>
<path d="M78.6472 87.757H62.57C61.8031 87.757 61.1792 87.1337 61.1792 86.3674C61.1792 85.601 61.8031 84.9777 62.57 84.9777H78.6472C79.4141 84.9777 80.038 85.601 80.038 86.3674C80.038 87.1337 79.4141 87.757 78.6472 87.757Z" fill="#B92D2D"/>
<path d="M40.8103 97.866C40.0434 97.866 39.4196 97.2427 39.4196 96.4763V61.3291C39.4196 60.5627 40.0434 59.9394 40.8103 59.9394C41.5772 59.9394 42.2011 60.5627 42.2011 61.3291V96.4763C42.2011 97.2427 41.5772 97.866 40.8103 97.866Z" fill="#B92D2D"/>
</svg>
