<?xml version="1.0" encoding="UTF-8"?>
<svg id="Layer_1" data-name="Layer 1" xmlns="http://www.w3.org/2000/svg" version="1.1" viewBox="0 0 106.4 17.7">
  <defs>
    <style>
      .cls-1 {
        fill: #b92d2d;
        stroke-width: 0px;
      }
    </style>
  </defs>
  <polygon class="cls-1" points="9.3 0 11.5 6.8 18.6 6.8 12.9 11 15.1 17.7 9.3 13.5 3.6 17.7 5.8 11 0 6.8 7.1 6.8 9.3 0"/>
  <polygon class="cls-1" points="31.3 0 33.5 6.8 40.6 6.8 34.8 11 37 17.7 31.3 13.5 25.5 17.7 27.7 11 21.9 6.8 29 6.8 31.3 0"/>
  <polygon class="cls-1" points="53.2 0 55.4 6.8 62.5 6.8 56.7 11 58.9 17.7 53.2 13.5 47.4 17.7 49.6 11 43.9 6.8 51 6.8 53.2 0"/>
  <polygon class="cls-1" points="75.1 0 77.3 6.8 84.4 6.8 78.7 11 80.9 17.7 75.1 13.5 69.3 17.7 71.5 11 65.8 6.8 72.9 6.8 75.1 0"/>
  <polygon class="cls-1" points="97 0 99.2 6.8 106.4 6.8 100.6 11 102.8 17.7 97 13.5 91.3 17.7 93.5 11 87.7 6.8 94.8 6.8 97 0"/>
</svg>